<?xml version="1.0" encoding="UTF-8" standalone="no"?>
<!DOCTYPE svg  PUBLIC '-//W3C//DTD SVG 1.1//EN'  'http://www.w3.org/Graphics/SVG/1.1/DTD/svg11.dtd'>
<svg xmlns="http://www.w3.org/2000/svg">
<defs>
<font id="AcquestScript-Regular" horiz-adv-x="753">
<font-face underline-position="-50" font-weight="400" descent="-200" panose-1="2 0 5 5 0 0 0 2 0 4" units-per-em="1000" unicode-range="U+0020-201D" bbox="-386 -996 1859 997" x-height="221" underline-thickness="50" font-family="AcquestScript" ascent="800" cap-height="614"/>
<missing-glyph horiz-adv-x="1000"/>
<glyph glyph-name=".notdef" horiz-adv-x="1000"/>
<glyph glyph-name=".null" horiz-adv-x="0"/>
<glyph glyph-name="nonmarkingreturn" horiz-adv-x="333"/>
<glyph glyph-name="space" horiz-adv-x="289" unicode=" "/>
<glyph glyph-name="exclam" horiz-adv-x="250" unicode="!" d="M159 25q-1 -33 -35 -35q-29 3 -31 35q2 33 31 35q32 -3 35 -35zM105 122l-12 312v7q0 58 30 58h1h1q34 0 34 -58v-7l-13 -312q-10 -18 -21 -18q-10 0 -20 18z"/>
<glyph glyph-name="quotedbl" horiz-adv-x="420" unicode='&quot;' d="M120 356h-11l1 9l-5 31q-10 40 -11 61q0 42 27 42h2q26 0 26 -36v-5q-2 -38 -15 -62q-13 -26 -14 -40zM219 356h-11l1 9l-5 31q-11 44 -11 65q0 34 29 38q25 -3 25 -34v-7q-2 -38 -14 -62q-13 -26 -14 -40z"/>
<glyph glyph-name="numbersign" horiz-adv-x="443" unicode="#" d="M290 140v-140h-30v140h-71v-140h-37v140h-122v34h123v69h-123v32h124l-1 176h36v-175h71v175h30v-175h123v-33h-123v-69h123v-34h-123zM258 174v69h-69v-69h69z"/>
<glyph glyph-name="dollar" horiz-adv-x="352" unicode="$" d="M189 -30h-34v30q-27 0 -51.5 7.5t-44 20.5t-33.5 30.5t-20 37.5q-5 15 -5 28q0 14 8.5 29t35.5 15q20 0 36.5 -13t23.5 -32q5 -15 1.5 -25.5t-16.5 -13.5l-9 -2q-7 -7 -3 -18q5 -16 27 -27.5t50 -11.5v217q-38 10 -56 20.5t-30 23.5q-14 14 -16 29t-2 22q0 16 5 30 q8 26 24 42.5t33 25.5q19 11 42 16v29h34v-29q33 -6 54.5 -23.5t43.5 -58.5l-30 -17q-8 23 -19.5 36t-22.5 19.5t-18.5 7.5t-7.5 0v-147q6 -3 24 -9t29 -10q32 -11 55 -30.5t28 -42.5q5 -15 5 -31q0 -19 -9.5 -46t-39.5 -54q-25 -22 -49.5 -32t-42.5 -12v-31zM189 30 q8 4 15.5 7.5t19.5 14.5q12 10 18.5 26.5t8.5 31.5t2 25q0 8 -1.5 22t-6.5 30q-9 19 -22 30.5t-34 15.5v-203zM155 414q-23 -8 -36 -48q-4 -12 -4 -24q0 -13 7 -32t33 -31v135z"/>
<glyph glyph-name="percent" horiz-adv-x="525" unicode="%" d="M167 329q9 15 9 33l-1 50q-5 21 -13 33.5t-14 19.5q-7 7 -12 8.5t-13 1.5t-15.5 -3t-12.5 -9q-4 -5 -7 -8.5t-6 -9.5q-11 -19 -14 -45q-1 -11 -1 -20q0 -35 14 -58q14 -22 36 -22q11 0 26.5 8t23.5 21zM211 334q-6 -11 -14.5 -24t-23.5 -22q-14 -10 -29.5 -13.5 t-35.5 -3.5q-59 0 -90 51q-17 26 -17 57q0 3 1 22.5t23 46.5q7 11 16.5 18t17.5 15q28 21 58 21q29 0 53.5 -15.5t41.5 -42.5q4 -8 6.5 -20.5t2.5 -28t-2 -31.5t-8 -30zM415 501l-255 -501h-47l255 501h47zM449 58q9 15 9 33l-1 50q-5 21 -13 33.5t-14 19.5q-7 7 -12 8.5 t-13 1.5t-15.5 -3t-12.5 -9q-4 -5 -7 -8.5t-6 -9.5q-11 -19 -14 -45q-1 -11 -1 -20q0 -35 14 -58q14 -22 36 -22q11 0 26.5 8t23.5 21zM493 63q-6 -11 -14.5 -24t-23.5 -22q-14 -10 -29.5 -13.5t-35.5 -3.5q-59 0 -90 51q-17 26 -17 57q0 3 1 22.5t23 46.5q7 11 16.5 18 t17.5 15q28 21 58 21q29 0 53.5 -15.5t41.5 -42.5q4 -8 6.5 -20.5t2.5 -28t-2 -31.5t-8 -30z"/>
<glyph glyph-name="ampersand" horiz-adv-x="435" unicode="&amp;" d="M268 402q16 22 16 43q0 10 -4 21q0 8 -9 19t-21.5 17t-25.5 6q-3 0 -13 -1t-26 -19q-11 -10 -13 -24.5t-2 -25.5q0 -10 2 -26.5t10.5 -37.5t22.5 -33q13 10 21 16.5t14 13t12.5 13.5t15.5 18zM428 19l-23 -18l-45 62q-30 -27 -64.5 -45t-88.5 -18h-6q-69 0 -113.5 31 t-51.5 79q-1 8 -1 16q0 28 13 58q18 39 54 75q14 13 31 26t46 36q-23 28 -33 58.5t-10 58t9 49.5t24 35q22 22 40 27.5t32 5.5q6 0 18 -2t27.5 -10.5t25.5 -16.5q13 -11 19.5 -26t8 -29.5t0 -27.5t-5.5 -19q-12 -27 -41.5 -54.5t-69.5 -50.5l142 -206q17 20 24 32.5t15 31.5 l24 -11q-12 -26 -20.5 -42.5t-24.5 -35.5zM195 299q-17 -14 -28.5 -24t-20 -19.5t-15.5 -21.5t-14 -28q-17 -36 -17 -68q0 -33 15 -58t43 -39t68 -14q37 1 66 20t52 40z"/>
<glyph glyph-name="quotesingle" horiz-adv-x="144" unicode="&apos;" d="M80 355h-11q1 4 1 6.5t2 33.5q4 56 13 79q10 24 31 24q18 0 18 -19t-18 -55l-15 -29q-9 -19 -21 -40z"/>
<glyph glyph-name="parenleft" horiz-adv-x="226" unicode="(" d="M194 516l17 -11q-60 -70 -83 -175q-10 -48 -10 -95q0 -12 1 -24q1 -65 14 -121q11 -52 59 -156l-21 1q-44 69 -66 116q-30 60 -39 125q-4 29 -4 58q0 56 16 114q41 108 116 168z"/>
<glyph glyph-name="parenright" horiz-adv-x="246" unicode=")" d="M70 516q75 -60 116 -168q16 -58 16 -114q0 -29 -4 -58q-19 -73 -39 -119q-22 -59 -63 -122l-24 -1q48 104 59 156q13 56 14 121q1 12 1 24q0 47 -10 95q-23 105 -83 175z"/>
<glyph glyph-name="asterisk" horiz-adv-x="365" unicode="*" d="M301 414q-4 -31 -28 -49q-41 41 -73 64l-11 -7q-1 -17 18 -94q-15 -5 -29 -5t-28 5q17 60 18 95l-7 5q-28 -21 -69 -64q-29 17 -32 47q38 9 92 33l3 12q-48 23 -93 34q0 34 28 49q34 -38 73 -66l8 6q-4 35 -20 95q14 6 29 6q16 0 27 -6q-12 -47 -16 -95l11 -9 q61 54 70 66q25 -14 29 -46q-48 -12 -90 -37v-7q60 -26 90 -32z"/>
<glyph glyph-name="plus" horiz-adv-x="252" unicode="+" d="M145 130h75v-33h-75v-71h-33v71h-71v33h71v75h33v-75z"/>
<glyph glyph-name="comma" horiz-adv-x="264" unicode="," d="M97 -116l-7 9q53 42 50 73q-3 14 -15 24q-18 14 -19 31q-3 16 7 28q7 11 22 11q29 0 35 -42v-9q0 -31 -17 -62q-19 -36 -56 -63z"/>
<glyph glyph-name="hyphen" horiz-adv-x="252" unicode="-" d="M220 97h-179v33h179v-33z"/>
<glyph glyph-name="period" horiz-adv-x="247" unicode="." d="M156 25q-1 -33 -35 -35q-29 3 -31 35q2 33 31 35q32 -3 35 -35z"/>
<glyph glyph-name="slash" horiz-adv-x="280" unicode="/" d="M358 568l-350 -687h-48l353 689z"/>
<glyph glyph-name="zero" horiz-adv-x="400" unicode="0" d="M285 116q4 18 6.5 43t2.5 49q0 5 -0.5 22t-4.5 46.5t-12 53.5q-14 43 -35 61.5t-44 18.5h-2q-22 0 -48 -20.5t-40 -60.5q-8 -24 -11.5 -51.5t-3.5 -53.5q0 -4 0.5 -20t5 -42.5t12.5 -45.5q15 -37 39.5 -57t51.5 -20q29 0 52 23.5t31 53.5zM279 25q-44 -25 -96 -25 q-54 0 -98.5 31t-67.5 85q-12 37 -13 61.5t-1 30.5q0 38 10 74q14 46 39.5 81.5t59.5 57.5q22 14 45.5 20.5t46.5 6.5q54 0 95.5 -29.5t61.5 -88.5q15 -44 15 -89q0 -4 -1 -31.5t-17 -76.5q-14 -38 -34 -64.5t-45 -43.5z"/>
<glyph glyph-name="one" horiz-adv-x="278" unicode="1" d="M83 310q18 17 31 29t25 26.5t26.5 34t35.5 51.5h19l-4 -451l-82 1l13 309q-29 -32 -56.5 -51.5t-66.5 -39.5l-24 24q26 20 44.5 34t38.5 33z"/>
<glyph glyph-name="two" horiz-adv-x="344" unicode="2" d="M153 84q22 -8 34 -13.5t20.5 -9t17 -5.5t23.5 -4q12 0 29 12.5t34 34.5l21 -18l-8 -9q-18 -21 -32 -35.5t-25 -23.5t-21 -12.5t-21 -3.5q-16 0 -33.5 4t-36.5 11q-23 7 -34.5 12.5t-19 9t-15 5t-21.5 1.5q-15 0 -23 -9.5t-15 -30.5l-25 10q6 28 12.5 48.5t16.5 37 t24.5 29.5t37.5 25l69 40q48 27 61.5 54t13.5 49q0 18 -6 38q-11 38 -36.5 61t-56.5 23q-13 0 -24.5 -5.5t-20 -13.5t-12.5 -18t-1 -20q1 -5 5.5 -10t7.5 -6q2 0 5 -2.5t10 -3.5q11 -4 19.5 -14t10.5 -21q3 -8 3 -15q0 -10 -8 -20t-28 -10q-23 0 -42.5 16.5t-27.5 43.5 q-6 17 -6 33q0 9 3.5 25.5t19.5 35t40.5 30t56.5 11.5q55 0 96.5 -34t57.5 -86q8 -25 8 -46q0 -3 -1 -16.5t-14.5 -34t-39.5 -38t-65 -34.5q-24 -10 -40.5 -17.5t-29.5 -14.5t-23.5 -14.5t-20.5 -16.5q5 1 10 1q12 0 29.5 -4t36.5 -12z"/>
<glyph glyph-name="three" horiz-adv-x="352" unicode="3" d="M187 451q40 0 70 -24.5t40 -59.5q4 -11 4 -23q0 -10 -4.5 -27t-24.5 -34q-7 -5 -12 -9t-23 -15q36 -8 58.5 -26t33.5 -53q5 -16 5 -33q0 -18 -8.5 -45t-44.5 -57q-25 -22 -56 -33.5t-63 -11.5q-27 0 -52.5 7.5t-46.5 20.5t-36 30.5t-21 37.5q-5 15 -5 28q0 14 8.5 29 t35.5 15q20 0 36.5 -13t23.5 -32q5 -15 1.5 -25.5t-16.5 -13.5l-9 -2q-7 -7 -3 -18q5 -16 29 -28t52 -12q18 0 34.5 8t27.5 20q10 12 17 29t10 33.5t3 32.5q0 3 -0.5 13.5t-5.5 26.5q-7 23 -23.5 36.5t-39.5 13.5q-2 0 -7.5 -1t-12.5 -1l-9 24q13 2 20.5 4t23.5 4 q23 20 31.5 41t8.5 36q0 11 -3 22q-7 20 -24.5 34.5t-39.5 14.5q-23 0 -41 -17t-33 -46l-30 17q43 82 121 82z"/>
<glyph glyph-name="four" horiz-adv-x="398" unicode="4" d="M280 451h19l-1 -317h24q12 1 20 1.5t15.5 3t16 7t22.5 12.5l2 -3l-31 -61h-64l-2 -186l-84 -1l12 184h-82.5t-60.5 0.5t-46 0.5h-40zM86 130h140l11 202z"/>
<glyph glyph-name="five" horiz-adv-x="327" unicode="5" d="M268 439q-12 -39 -32 -55t-52 -16q-17 0 -34.5 2t-47.5 10v-91q6 2 11.5 2h8.5q25 0 50 -7.5t48 -21t42.5 -32t32.5 -41.5q19 -35 19 -69q0 -3 -1 -23t-26 -49q-21 -23 -47 -35.5t-63 -12.5q-26 0 -51 6.5t-47.5 18.5t-41 28.5t-29.5 36.5q-10 18 -10 33q0 5 3 16t26 11 q20 0 37 -9.5t28 -28.5q8 -15 7.5 -25.5t-11.5 -13.5q-5 -5 -6 -6.5t3 -8.5q9 -17 31.5 -26t47.5 -9q21 0 37 9.5t23 30.5q9 23 9 49q0 6 -1.5 25t-18.5 50q-17 29 -44.5 46t-60.5 17q-10 0 -17 -2.5t-12 -5.5q-4 -1 -8 -1h-6q-11 0 -15 9q-7 12 -4 19.5t20 19.5l-2 161 l21 -2l1 -5q30 -14 60 -20.5t48 -6.5q21 0 32.5 7.5t18.5 26.5z"/>
<glyph glyph-name="six" horiz-adv-x="361" unicode="6" d="M243 13q-14 -6 -28 -9.5t-30 -3.5q-50 0 -91 28t-66 81q-15 32 -20.5 66.5t-5.5 66.5q0 11 1.5 38.5t11.5 74t27 91.5q16 48 42 90q57 97 146 150t195 53q81 0 144 -34t91 -93q7 -16 7.5 -23.5t0.5 -10.5q0 -10 -2 -21l-15 8q1 12 0.5 22.5t-7.5 24.5q-22 48 -77 76 t-124 28q-68 0 -126 -26t-104.5 -74t-79 -115.5t-47.5 -149.5q-6 -32 -9.5 -63t-3.5 -60v-15q7 27 17.5 46t23.5 32q14 14 32 20t41 6q41 0 77 -24.5t54 -62.5q16 -36 16 -75q0 -4 -1 -28t-24 -59q-13 -19 -30 -33t-36 -22zM254 111q4 29 4 55q0 5 -0.5 23t-13.5 45 q-11 23 -25.5 34t-37.5 11q-28 0 -50 -24q-21 -22 -32 -59q-7 -24 -7 -50q0 -5 1 -22.5t12 -40.5q11 -24 32 -38.5t47 -14.5q16 0 28.5 7t21 19t13.5 26.5t7 28.5z"/>
<glyph glyph-name="seven" horiz-adv-x="335" unicode="7" d="M58 524q7 -13 11 -22.5t6.5 -18t3.5 -17.5t1 -21h15q9 0 16.5 -1t17 -4t22 -9.5t32.5 -17.5t29 -14t21 -3q50 0 56 55h24q-5 -35 -9 -60t-7 -42q-9 -34 -20.5 -82.5t-23.5 -105.5t-24.5 -118t-23.5 -120t-20 -111.5t-14 -92.5h-98q40 138 68 235t47 162t30 104.5 t17.5 63.5t10 38t7.5 29q-12 -6 -18.5 -8t-20.5 -2q-13 1 -23 2.5t-19.5 6t-21 11.5t-28.5 18q-16 11 -25 15t-17 4h-3.5t-4.5 -2q-3 -20 -15 -30t-28 -10q-17 0 -24 14q-5 10 -5 19t8 22t37 25q9 25 9 42q0 19 -13 46h17z"/>
<glyph glyph-name="eight" horiz-adv-x="344" unicode="8" d="M214 33q34 11 35.5 34.5t1.5 27.5q0 39 -21 87q-5 11 -9.5 19.5t-11 16.5t-15 15.5t-21.5 17.5q-17 -5 -25.5 -10t-22.5 -13q-35 -23 -43 -48.5t-8 -40.5q0 -22 10 -44q13 -30 40.5 -48t58.5 -18q6 0 16 1t15 3zM222 9q-9 -3 -23.5 -6t-25.5 -3q-57 0 -98.5 24t-60.5 67 q-11 25 -11 49q0 26 20.5 59.5t89.5 61.5q11 4 18.5 7.5t15.5 5.5l-15 10q-17 13 -32.5 24.5t-29.5 24.5q-36 36 -54 75q-13 29 -13 58q0 8 1 16q7 48 51.5 79t113.5 31q42 0 78 -12.5t82 -42.5l-8 -15q-39 24 -67.5 33.5t-59.5 9.5q-40 0 -68 -14t-43 -39t-15 -58 q0 -32 17 -68q7 -17 15 -30t18 -25t23.5 -23t32.5 -24q50 22 61 39t11 30q0 12 -6 27q-9 20 -29.5 32.5t-41.5 12.5q-8 0 -14.5 -1.5t-16.5 -9.5l-8 10q11 12 27.5 19t42.5 7q17 0 34 -5.5t31.5 -15t26 -22t17.5 -25.5q7 -15 7 -28q0 -20 -20 -42.5t-94 -48.5 q40 -23 64 -45.5t36 -49.5t12 -52.5t-10.5 -46.5t-31.5 -37t-50 -23z"/>
<glyph glyph-name="nine" horiz-adv-x="355" unicode="9" d="M202 193q6 5 10.5 12t8.5 14q7 16 11 34t4 36q0 22 -5 42.5t-13 36.5q-23 51 -66 51h-4h-5q-15 0 -33 -10t-30 -33q-8 -17 -11 -35t-3 -36q0 -3 0.5 -15t5 -32t12.5 -37q11 -23 30 -37t42 -14q13 0 24 6t22 17zM294 19q-23 -55 -55.5 -99.5t-71.5 -75.5t-83.5 -48 t-91.5 -17q-53 0 -93.5 21.5t-60.5 61.5q-11 23 -12 34.5t-1 13.5q0 18 9 41l16 -9q-5 -17 -5.5 -30.5t7.5 -28.5q17 -36 58.5 -58t88.5 -22q48 0 89.5 22t73.5 62t54.5 95.5t33.5 122.5q4 30 6 51t2 38q0 14 -1 29q-8 -20 -16 -31.5t-19 -23.5q-14 -15 -35.5 -22.5 t-44.5 -7.5q-42 0 -75.5 20t-51.5 57q-17 36 -18 56.5t-1 24.5q0 33 13 63q12 26 31 46t43 31q14 8 30.5 11t33.5 3q48 0 90 -29t65 -77q15 -31 22.5 -68.5t7.5 -76.5q0 -3 -0.5 -25.5t-10 -67t-27.5 -87.5z"/>
<glyph glyph-name="colon" horiz-adv-x="247" unicode=":" d="M156 25q-1 -33 -35 -35q-29 3 -31 35q2 33 31 35q32 -3 35 -35zM156 193q-1 -33 -35 -35q-29 3 -31 35q2 33 31 35q32 -3 35 -35z"/>
<glyph glyph-name="semicolon" horiz-adv-x="264" unicode=";" d="M171 193q-1 -33 -35 -35q-29 3 -31 35q2 33 31 35q32 -3 35 -35zM97 -116l-7 9q53 42 50 73q-3 14 -15 24q-18 14 -19 31q-3 16 7 28q7 11 22 11q29 0 35 -42v-9q0 -31 -17 -62q-19 -36 -56 -63z"/>
<glyph glyph-name="equal" horiz-adv-x="252" unicode="=" d="M220 62h-179v33h179v-33zM220 131h-179v33h179v-33z"/>
<glyph glyph-name="question" horiz-adv-x="312" unicode="?" d="M193 25q-1 -33 -35 -35q-29 3 -31 35q2 33 31 35q32 -3 35 -35zM81 354q-6 -2 -11 -2q-19 0 -19 32q0 8 1 18q11 45 43.5 71.5t62.5 26.5q92 -1 106 -93q1 -10 1 -20q0 -41 -15 -76.5t-49 -76.5q-17 -30 -19.5 -52.5t-2.5 -38.5q-3 -20 -18 -20h-3h-3q-15 0 -19 20 q-1 8 -1 18t1.5 27t14.5 40q38 59 44.5 98.5t6.5 75.5v20q-5 51 -45 51q-40 -3 -54 -53q11 -2 11 -14q0 -7 -4 -18q-6 -23 -29 -34z"/>
<glyph glyph-name="at" horiz-adv-x="492" unicode="@" d="M427 162q0 25 -10 52.5t-29.5 51t-47.5 39t-65 15.5q-29 0 -52.5 -6t-42 -15t-31.5 -18.5t-20 -16.5q-32 -34 -41 -71t-9 -68q0 -10 2 -35.5t16 -58.5t32 -49q20 -22 58.5 -42.5t85.5 -24.5q5 -1 11 -1q12 0 30.5 3.5t40.5 12t41 20t27 25.5l22 -23q-12 -12 -31 -24 t-41.5 -21.5t-47.5 -15t-51 -5.5q-24 0 -52 7.5t-53 19t-45.5 26t-29.5 28.5q-25 25 -37.5 66t-12.5 85t12 85.5t38 68.5q32 36 78 56.5t103 21.5q49 0 84.5 -18t58 -45.5t32 -59t9.5 -59.5v-5q0 -31 -2 -54t-14 -56q-6 -16 -17 -27t-23.5 -17.5t-25.5 -8.5t-22 0 q-17 0 -32 7t-23 18q-4 6 -4.5 10t-2.5 13q-14 -29 -34.5 -38.5t-41.5 -9.5q-19 0 -38.5 12.5t-33.5 32.5q-16 23 -18.5 42t-2.5 28q0 19 6 36q7 17 19 32t26 25q12 10 26 14.5t27 4.5q18 0 30.5 -7t21.5 -20q2 -4 5 -8t6 -10l16 39h45l-6 -147q-1 -9 -1 -16q0 -11 3 -15 q7 -10 22 -10q15 -2 26 9t17.5 29.5t10 42.5t3.5 48zM271 60q2 8 3 19t3 19q3 19 3 35q0 8 -1.5 23t-11.5 30q-11 17 -29 17h-3q-11 -2 -19 -11t-15 -21q-9 -14 -11 -29t-2 -27q0 -5 0.5 -16t5 -26t10.5 -24q11 -14 27 -14q11 0 22.5 4.5t17.5 20.5z"/>
<glyph glyph-name="A" horiz-adv-x="821" unicode="A" d="M399 182q9 15 18.5 36.5t19.5 44t18 44t14 36.5q8 21 11.5 30.5t6.5 23.5l-11 5q-12 6 -31 15t-43 19.5t-49 19.5t-48 15.5t-39 6.5h-3q-71 0 -82 -27.5t-11 -42.5q0 -34 26 -78q26 -43 76 -84.5t118 -79.5zM668 544q5 24 9.5 49.5t6.5 45.5q1 4 -0.5 9t-3.5 9t-4.5 4.5 t-4.5 0.5q-4 0 -13 -5t-24 -25q-14 -19 -22 -37t-22 -44q-4 -8 -13 -28t-18.5 -41t-17 -38.5t-7.5 -18.5q-5 -8 -8.5 -17t-5.5 -14q8 -6 16 -11.5t20 -15.5q29 -24 52 -48t43 -48q1 6 1.5 9.5t1.5 7.5q0 6 -0.5 14.5t-0.5 13.5q0 10 1 22q0 11 0.5 26t1 30.5t1 29.5t2.5 24 q0 3 1 15t2 27t2.5 30t3.5 24zM653 236q0 7 -7 17t-17 20t-21 20.5t-20 19.5q-12 11 -24.5 22.5t-23 20.5t-17.5 14l-7 5q-5 -7 -8.5 -18t-8.5 -22q-7 -16 -15.5 -43t-18.5 -46l-25 -46q-7 -14 -11 -21t-6.5 -11.5t-3.5 -7.5t-3 -7q20 -9 36.5 -16.5t32.5 -13.5 q27 -11 75 -23t99 -20q-1 8 -1.5 13.5t-1 11.5t-0.5 14v20v18.5t-0.5 21.5t-1 21.5t-0.5 17.5zM881 133q-20 -25 -44.5 -41t-45.5 -25t-35.5 -12t-14.5 -2q-7 -27 -14.5 -39t-23.5 -12q-11 0 -19.5 5.5t-13.5 13.5q-4 6 -6.5 14.5l-7.5 25.5q-40 4 -78 12.5t-68 19.5 q-23 8 -51 19.5t-51 23.5q-46 -69 -106.5 -101.5t-138.5 -32.5q-35 0 -68.5 8t-62.5 22.5t-53 35.5t-40 47q-14 24 -14 44q0 8 5 23.5t40 15.5q13 0 28 -5.5t29.5 -14.5t27 -21t20.5 -26q10 -18 10 -33q0 -6 -3.5 -17.5t-25.5 -11.5h-8q-15 0 -9 -8q4 -7 15 -13.5t26 -11 t33.5 -7.5t37.5 -3q78 0 143 38q13 8 23.5 16t20 18t19.5 23.5t22 31.5q-86 48 -134.5 91.5t-78.5 93.5q-22 36 -26 57t-4 31q0 17 8 34.5t33 28.5t62 11h6q34 -2 76.5 -15.5t80.5 -29.5q44 -18 89 -42q9 19 16 37t14.5 37t17.5 40t25 48q30 54 52 82q14 18 34 32t35 14 q34 0 54 -32q5 -8 6.5 -17.5t-0.5 -28.5l-7 -53l-8 -79q-2 -22 -3 -46t-4 -50q-2 -20 -2 -35v-38q-1 -19 -1 -40q0 -10 0.5 -31.5t3.5 -70.5l6 -51q4 -23 4 -38t2 -15q25 0 49 11.5t42 25t29 24.5t12 10z"/>
<glyph glyph-name="B" horiz-adv-x="829" unicode="B" d="M606 7q-22 -7 -41 -8t-39 -1q-38 0 -59 8.5t-32 26.5q-5 8 -5 15q0 15 25 28.5t88 23.5q19 2 40 4t45 2h16v8q0 20 -8.5 44t-25.5 53q-21 35 -42 52.5t-48 21.5h-10q-17 -5 -26.5 -7.5t-21.5 -2.5q-10 0 -16.5 3t-8.5 7q-8 13 6 17.5t40 4.5h21q26 23 26 61q0 40 -25 82 q-14 24 -33.5 41t-50.5 31l-1 -8l-5 -22q0 -14 -1.5 -35.5t-3.5 -50.5l-3 -80q-3 -83 -10.5 -144t-25.5 -95q-25 -47 -63.5 -68t-93.5 -21q-31 0 -61 7.5t-57 21.5t-48.5 33.5t-35.5 42.5q-15 24 -15 43q0 6 4 20.5t34 14.5q24 0 49.5 -17.5t39.5 -41.5q9 -15 9 -28 q0 -4 -2 -13t-19 -11h-8q-13 0 -5 -13q4 -7 14.5 -13.5t24.5 -12t30 -8.5t31 -3q26 0 43.5 7t30.5 25q9 12 16 26.5t13 34.5t11 48.5t10 67.5l15 118q3 23 8 44t8 39q3 8 4.5 16t3 18t4 23t7.5 30q2 6 4 11.5t4 9.5l-8 2q-9 2 -23 5t-30.5 5t-31.5 2q-26 0 -53 -5.5 t-52.5 -14.5t-47.5 -21.5t-37 -28.5q-42 -47 -46 -82.5t-4 -46.5q0 -50 28 -97q37 -62 94 -62q35 0 61 29t28 76q0 26 -8 56t-24 56l-4 7h16l7 -12q18 -30 26.5 -58.5t8.5 -52.5v-10q-3 -52 -32 -83.5t-76 -31.5q-36 0 -72 23t-60 63q-29 49 -29 102q0 33 11 67 q25 66 90.5 107.5t159.5 46.5h45q20 -2 34 -4t23 -4q11 -2 18 -4q-1 1 5 11t18.5 26t30.5 34.5t41.5 34t50 24t53.5 8.5h12q51 -3 95.5 -27.5t70.5 -66.5q18 -30 18 -55q0 -23 -16 -42l-13 8q6 14 6 28q0 21 -13 41q-12 19 -29.5 35.5t-38 27.5t-43.5 17.5t-45 6.5 q-61 0 -103 -32t-61 -89q50 -19 87.5 -46.5t59.5 -63.5q21 -36 21 -66q0 -47 -52 -79q95 -22 146 -105q16 -26 21 -47t5 -36q0 -6 -1 -11q15 -2 22.5 -2.5t13.5 -0.5q28 0 44.5 4.5t26.5 12.5q6 4 10.5 11.5t7.5 15.5q3 6 4 12l1 6l26 -16q-8 -21 -16.5 -34t-21 -20.5 t-30.5 -10t-45 -2.5q-11 0 -22.5 0.5t-32.5 2.5q-14 -31 -38 -49t-63 -26zM588 25q26 8 36 21.5t20 37.5h-11q-23 0 -41.5 -1.5t-36.5 -3.5q-13 -1 -26.5 -5t-24 -9t-15 -10t-4.5 -9q0 -3 2 -5q13 -21 66 -21q10 0 15.5 1.5t19.5 3.5z"/>
<glyph glyph-name="C" horiz-adv-x="538" unicode="C" d="M328 579q-38 -17 -45 -39t-7 -35q0 -22 12 -47q14 -29 43.5 -46.5t64.5 -17.5q16 0 33 4t31 14q19 15 32 35t17.5 39.5t4.5 35.5q0 8 -1.5 24t-12.5 39q-23 48 -68.5 76t-103.5 28q-59 0 -109 -29t-91 -83q-31 -44 -50.5 -95.5t-25.5 -93.5t-6 -72q0 -22 4 -58.5 t24 -78.5q32 -69 96 -108.5t145 -39.5q60 0 107.5 18.5t80.5 40t51 39.5t19 18q6 -4 11.5 -7.5t11.5 -7.5q-15 -23 -45 -46.5t-69 -43t-85 -31.5t-94 -12q-113 0 -196 48.5t-126 142.5q-30 63 -30 131q0 80 42 165q24 51 60 92t79.5 70t92.5 44.5t99 15.5q36 0 71.5 -10 t66 -27.5t54 -41.5t36.5 -52q15 -32 15 -63q0 -6 -2 -28t-24 -52q-23 -28 -61.5 -45t-79.5 -17q-51 0 -91 23t-59 63q-11 24 -11 45q0 18 12.5 42.5t66.5 49.5z"/>
<glyph glyph-name="D" horiz-adv-x="948" unicode="D" d="M673 28q28 4 50 21.5t45 47.5l-14 -1q-15 0 -34.5 -1t-38 -2t-24.5 -2q-52 -6 -72.5 -16t-20.5 -20q0 -3 2 -7q5 -12 29.5 -17.5t54.5 -5.5zM826 93q-14 -26 -41.5 -47t-60.5 -31.5t-60.5 -11.5t-41.5 -1h-15q-42 3 -66.5 9t-35.5 27q-4 8 -4 15q0 20 33 38.5t110 26.5 q11 2 35.5 3t47.5 1h47q15 19 19.5 42.5t4.5 43.5q0 11 -2 34t-13.5 60.5t-30.5 75.5q-29 57 -68 102t-85.5 76.5t-98 48.5t-104.5 17h-5q-41 0 -86.5 -16t-89 -45t-80 -69.5t-58.5 -86.5q-33 -76 -34.5 -117t-1.5 -47q0 -68 26 -119q24 -47 63.5 -72.5t85.5 -25.5 q31 0 55 11t42.5 36.5t34.5 68.5t31 108q7 42 13 65.5t8 28.5q10 39 26 78.5t30 65.5q7 13 14.5 22.5t16 17t19.5 14t26 15.5l16 -13q-11 -9 -17 -19t-10.5 -21.5t-8 -26.5t-7.5 -35l-15 -74q-16 -78 -24 -138t-26 -99q-26 -63 -80.5 -96.5t-133.5 -33.5q-77 0 -135 35 t-90 98q-29 57 -29 124q0 70 36 140q27 52 61 96t78 78t98.5 57t122.5 33q13 2 28 2h29q63 0 122 -18t111 -51.5t94.5 -82t73.5 -108.5q42 -84 43 -124t1 -44q0 -70 -33 -116q18 -2 26.5 -2.5t16.5 -0.5q32 0 51.5 5t30.5 15q5 4 12.5 16t23.5 35l24 -18q-12 -24 -23 -39 t-26 -23.5t-36 -11.5t-52 -3h-15.5t-19.5 1q-11 0 -24 1z"/>
<glyph glyph-name="E" horiz-adv-x="537" unicode="E" d="M87 514q-23 36 -23 72q0 5 2.5 28t30 54.5t77.5 51t117 19.5q72 0 131 -25.5t89 -70.5q9 -14 11.5 -32t2.5 -24q0 -27 -14 -66l-2 -7l-27 13l2 5q7 16 7 32q0 10 -5 28t-21 41q-26 38 -65 58t-81 20q-45 0 -83 -21t-54 -58q-9 -15 -11.5 -30.5t-2.5 -27.5q0 -8 1.5 -22.5 t7.5 -35t17 -36.5l10 -15q20 2 27.5 4t14.5 2q28 0 49 -8.5t30 -22.5t-3.5 -24.5t-42.5 -10.5q-19 0 -38 5.5t-50 16.5q-43 -11 -71.5 -41t-38 -63t-9.5 -60q0 -17 5 -49.5t34 -76.5q69 -107 209 -107q93 0 159 38t89 106l34 -21l-4 -7q-74 -147 -298 -147 q-95 0 -164.5 35.5t-114.5 102.5q-30 46 -32.5 74.5t-2.5 37.5q0 39 16.5 78t56 72.5t97.5 50.5q-23 14 -35 25.5t-26 28.5z"/>
<glyph glyph-name="F" horiz-adv-x="682" unicode="F" d="M554 641q10 6 16.5 9.5t12 5.5t11.5 2.5t14 0.5q11 0 24 -6.5t20 -15.5q9 -14 -9 -21.5t-68 -12.5l-14 -3q-5 -9 -6 -15.5t-3 -18.5q-4 -13 -8 -25t-6 -26q-2 -15 -3 -27.5t-2 -26t-0.5 -30t2.5 -39.5l7 -64l1 -40l4 -17q15 11 28 14t30 3q27 0 52 -12.5t44 -38.5 q9 -14 9 -25q0 -3 -1.5 -11t-18.5 -8q-14 0 -30 8.5t-26 22.5q-1 1 -1.5 2.5t-1.5 3.5l-2 4q-3 5 -3.5 6t0.5 3l-2 3q-3 5 -10.5 8.5t-17.5 3.5q-7 0 -14 -2t-15 -4q-11 -9 -15 -19t-5 -43q-6 -189 -180 -189q-34 0 -68.5 8.5t-66 24.5t-58.5 38t-46 48q-23 30 -23 54 q0 4 2.5 18t34.5 14q27 0 57.5 -18t50.5 -46q15 -21 15 -38.5t-20 -17.5l-8 -3q-9 0 -9.5 -4.5t2.5 -9.5q5 -7 15 -13.5t21 -11.5q20 -9 44 -15t44 -6q46 0 71.5 36t28.5 105v104q0 40 3.5 82t9.5 81t14 72t17 55q5 8 11 21t11 24q-24 0 -47.5 2t-54.5 6.5t-73.5 12 t-104.5 19.5q-67 14 -117 20.5t-80 6.5q-111 0 -128.5 -33t-17.5 -51q0 -42 43 -102q22 -31 51.5 -56.5t62 -43.5t66.5 -27.5t66 -9.5q38 0 65.5 10t48.5 35l20 -15q-20 -32 -50.5 -45t-72.5 -13t-88.5 13t-91 35.5t-83 53t-64.5 66.5q-32 45 -35.5 69t-3.5 32 q0 29 17.5 54.5t60.5 42t106 16.5q34 0 82.5 -6t128.5 -25q106 -20 180.5 -32.5t106.5 -12.5q8 0 12.5 -1t9.5 4z"/>
<glyph glyph-name="G" horiz-adv-x="588" unicode="G" d="M405 -579q-8 -41 -23.5 -69.5t-35.5 -46.5t-42.5 -26t-44.5 -8q-24 0 -48.5 14t-41.5 40q-29 42 -29 102q0 6 1.5 42t43.5 113q10 18 18.5 33t24.5 38q12 20 29.5 44t32.5 44q11 14 25 32t31 38q14 17 23 27.5t20 27.5l-1 92l-7 131l2 17q-66 -73 -141 -73q-47 0 -90 22 t-68 64q-15 25 -23 53t-12 50.5t-5 37.5t-2 15q-22 0 -48 3.5t-52 12.5q-59 17 -109.5 44.5t-98.5 60.5q-24 17 -44 38.5t-35 44.5q-17 24 -28 47.5t-13 43.5v8q0 45 23 78.5t85 53.5l14 -16q-29 -18 -44.5 -29t-26.5 -28q-12 -18 -12 -41q0 -11 5.5 -36t34.5 -67 q26 -38 61.5 -68.5t77.5 -53.5t88 -38t93 -20q14 -2 20.5 -2.5t11.5 -0.5q4 47 22 97.5t47 98.5q17 28 32 50.5t33 38.5l27 24q44 38 91.5 60.5t94.5 22.5q42 0 79 -18.5t60 -51.5q17 -26 17 -55q0 -34 -34.5 -88.5t-146.5 -126.5q-16 -11 -34.5 -20.5t-38 -18t-37.5 -15 t-33 -11.5q-11 -2 -20 -3.5t-19.5 -3.5t-23.5 -3.5t-31 -3.5q-1 -15 -1 -32q0 -9 0.5 -27t4 -43t9.5 -46t14 -32q29 -42 77 -42q21 0 44 7.5t43.5 20t36.5 29.5t24 36l-1 14l-3 24q-1 7 -1 14q0 25 10.5 47t30.5 22q8 0 13 -4t10 -10q7 -10 8 -20.5t-3 -30.5v-5.5t-2 -7.5 q-1 -20 -1.5 -35.5t-0.5 -32t1.5 -36.5t3.5 -49l3 -110q16 17 26.5 28t17.5 18t11 11.5t8 9.5q21 26 36.5 49.5t26 41.5t16 28t6.5 10l21 -13l-9 -19q-6 -13 -15.5 -29t-19.5 -32.5t-20.5 -31t-17.5 -23.5q-19 -24 -39.5 -45.5t-38.5 -43.5q-2 -1 -2.5 -3t-2.5 -4v-32 t-2 -30q-1 -45 -2.5 -82.5t-3.5 -70.5t-5 -62.5t-7 -58.5q-2 -18 -5.5 -35t-7 -30.5t-6 -22.5t-2.5 -10zM365 -493q6 38 10.5 86.5t4.5 92.5l3 71l3 35l3 15q-36 -36 -71 -82.5t-61 -93.5q-14 -21 -25.5 -46.5t-16.5 -45.5q-11 -29 -17 -59.5t-6.5 -45.5t-0.5 -18 q0 -24 4.5 -45.5t13.5 -35.5q11 -17 26 -24.5t29 -7.5q24 0 41 20t33 69q4 10 7.5 23t6.5 26t5.5 24t3.5 18zM389 421q72 55 87.5 96.5t15.5 63.5q0 30 -17 54q-27 41 -90 41q-38 0 -78 -25t-74 -70q-14 -20 -24.5 -37.5t-20.5 -39.5t-19.5 -50.5t-19.5 -68.5q-8 -30 -9 -47 t-1 -22q0 -27 137 37q73 34 113 68z"/>
<glyph glyph-name="H" horiz-adv-x="701" unicode="H" d="M457 76q33 -5 40 -5h2l-7 110q-16 20 -44.5 41.5t-58.5 39t-54.5 29t-31.5 11.5q-1 -13 -1.5 -31.5t-1.5 -38.5t-2.5 -39t-3.5 -31q-1 -5 -2 -12t-2 -13.5t-2 -10.5l-1 -4q42 -14 87 -27t83 -19zM432 62q-20 3 -42 8.5t-43 11.5t-39 11.5t-28 9.5q-22 -54 -61.5 -79 t-96.5 -25q-30 0 -60 7.5t-57 21.5t-49.5 34t-37.5 45q-14 22 -14 38q0 7 5 20.5t31 13.5q24 0 50.5 -16t41.5 -41q11 -18 11 -30q0 -3 -2 -12t-20 -9h-8q-11 0 -3 -13q4 -7 15 -14t25.5 -12t31 -8.5t33.5 -3.5q40 0 62 25.5t36 87.5q-15 7 -24.5 11.5t-16.5 8t-12.5 6 t-11.5 6.5q-29 17 -51 36.5t-35 39.5q-16 25 -16 47q0 16 15.5 38.5t81.5 23.5q13 0 29.5 -1.5t30.5 -3.5q14 -1 24 -3l10 -2q2 13 4.5 27.5t3.5 23.5q5 20 8 33t6 23.5t6 19.5t8 21q-25 -9 -44.5 -13.5t-35.5 -8.5q-11 -2 -21 -2.5t-20 -0.5q-14 0 -23 0.5t-24 4.5l-8 17 q12 -2 19 -2.5t13 -0.5q12 0 25.5 1.5t24.5 4.5q8 2 21.5 5.5t29 8t31 10.5t26.5 13q10 4 13 14q1 2 6.5 9.5t13.5 19.5q17 29 39.5 47t40.5 18q23 0 32 -17q3 -4 3 -9q0 -21 -50 -58l-55 -34q-6 -15 -9.5 -22t-6.5 -19q-3 -20 -7 -50t-4 -74v-21l3 -8q30 -11 53.5 -21.5 t44.5 -23.5t42 -29.5t45 -38.5q-4 52 -4 101q0 64 9.5 143t38.5 150.5t75.5 111t106.5 39.5q39 0 74 -20t57 -55q20 -32 20 -62q0 -8 -4.5 -30.5t-46.5 -43.5l-16 13q28 20 29.5 37.5t1.5 21.5q0 28 -18 56q-17 29 -42 42.5t-54 13.5t-55.5 -14.5t-47.5 -40.5t-36.5 -63.5 t-22.5 -82.5q-2 -27 -3.5 -67.5t-1.5 -88.5t2 -100.5t8 -103.5l11 -99q33 1 57.5 5.5t42.5 15t30 27.5t21 41l24 -17q-10 -26 -19 -39t-24 -26q-21 -14 -50.5 -21.5t-75.5 -7.5q0 -26 -6.5 -35.5t-24.5 -9.5q-25 0 -37 19q-5 8 -6.5 14.5t0.5 17.5zM158 331q-33 0 -51 -8 t-23 -19t-5 -20q0 -6 3 -17.5t14 -28.5q8 -13 28 -28.5t41 -28.5t37 -21.5t16 -7.5l7 56l4 74q0 8 1 12t1.5 8l1 8t0.5 12q-18 2 -36.5 5.5t-38.5 3.5z"/>
<glyph glyph-name="I" horiz-adv-x="554" unicode="I" d="M196 -1q-66 0 -104 11t-56 36q-7 9 -7 18q0 7 7 18t27.5 23.5t47 20t49.5 8.5q17 2 44.5 3t38.5 1q36 0 79 -4l4 20q5 21 5.5 35t0.5 21q0 14 -1 27q-1 23 -4 49t-4 48q-1 15 -1 30q0 11 1 29.5t5 44.5q2 23 8.5 47t11.5 38q9 23 20.5 45t33.5 51l6 11 q-168 -27 -212.5 -67.5t-44.5 -74.5q0 -31 26 -67q18 -25 41.5 -40t65.5 -29l4 -15q-104 9 -168 96q-27 38 -27 70q0 115 347 157q20 19 36.5 27.5t39.5 8.5q11 0 17.5 -2.5t11.5 -8.5q3 -5 3 -9q0 -9 -17 -19.5t-64 -20.5l-17 -3q-6 -7 -7 -12t-6 -14q-8 -27 -12 -49.5 t-6 -46.5t-2 -50q0 -7 0.5 -28t3.5 -73q1 -26 1 -47q0 -16 -1 -39t-2 -50q-2 -15 -3 -26.5t-3 -23t-4.5 -24.5t-6.5 -31q33 -3 54 -5t44 -2q32 0 59.5 16t45.5 49l23 -13q-17 -25 -44.5 -48t-72.5 -27q-11 -1 -22 -1q-17 0 -40 2.5t-61 10.5q-13 -19 -30 -37t-40 -32 t-53 -23t-69 -10zM313 109l-59 3q-20 0 -38.5 -2t-35.5 -4q-53 -6 -73.5 -19.5t-20.5 -24.5q0 -6 5 -13q8 -11 31 -17.5t51 -8.5h11l54 11q55 12 75 75z"/>
<glyph glyph-name="J" horiz-adv-x="500" unicode="J" d="M294 -842q-32 -75 -71.5 -114.5t-86.5 -39.5q-36 0 -71 22t-64 67q-44 67 -47 118t-3 63q0 79 29 166q12 47 42.5 102t67.5 103q33 42 70.5 78.5t64.5 65.5q26 29 44 48t18 20q0 19 -1 32.5t-2 31t-2.5 44t-3.5 70.5q-2 66 -3.5 109t-1.5 63v16q0 66 8 134.5t22 137.5 q1 16 3 25.5t4 18l4 17t3 22.5q0 1 -8 -1.5t-19 -5.5t-22.5 -5.5t-18.5 -2.5q-17 0 -39 4t-47 11q-42 14 -62 17.5t-28 3.5q-35 0 -39.5 -15.5t-4.5 -22.5q0 -21 17 -46q7 -11 14.5 -19t17 -14.5t22 -12.5t29.5 -12l8 -3l7 -16q-42 5 -73.5 24t-51.5 50q-16 25 -17.5 39 t-1.5 19q0 16 7 31t26 25.5t47 10.5q17 0 39.5 -3.5t47.5 -7.5q33 -8 53.5 -13.5t33.5 -8.5t19.5 -4t12.5 -1q13 0 24.5 -1t15.5 11l5 17l8 20q19 56 42 56q5 0 11 -3.5t11 -11.5q5 -7 5 -16t-8 -25t-40 -39q-1 -29 -2.5 -50t-2.5 -41.5t-1.5 -35t-0.5 -23.5q0 -16 1 -36 q-1 -29 -1 -69t1 -97t3.5 -134.5t5.5 -183.5q70 74 114 136.5t59 107.5l32 -21l-2 -6q-42 -69 -90 -133t-110 -134q-1 -6 -1 -7.5t1 -6.5q-1 -7 -1 -20q0 -10 1 -32t2 -76q1 -31 1 -68q0 -28 -1 -81t-8 -129q-5 -71 -17.5 -129t-30.5 -116zM284 -683q4 46 6 89.5t3 85 t1 79.5q0 19 -0.5 59.5t-2.5 120.5v18.5t0.5 13t1 11.5t0.5 14q-21 -21 -37.5 -37t-31 -32t-30 -34t-35.5 -43q-35 -43 -57.5 -81t-44.5 -82q-25 -58 -38 -115.5t-13 -112.5q0 -50 12.5 -96t37.5 -85q20 -29 39 -41t43 -12q18 0 35.5 9t33.5 25.5t28 40t19 52.5l22 95z"/>
<glyph glyph-name="K" horiz-adv-x="815" unicode="K" d="M672 688q20 0 38 -10t31 -28q12 -18 12 -40q0 -3 -1 -18t-19 -38q-5 -9 -15.5 -18.5t-21.5 -17.5q-11 -5 -20.5 -14t-20.5 -11q-2 -2 -15 -9t-41 -21q-1 -21 -2.5 -35.5t-4 -25t-6 -18.5t-8.5 -16q-3 -10 -10.5 -19.5t-18.5 -17.5t-23.5 -14t-24.5 -9q38 -18 57 -33.5 t33 -35.5q13 -18 21 -40t16 -56q6 -27 11 -46.5t13 -30.5q10 -14 25 -20.5t30 -6.5q20 0 40 9.5t38 27t32 42t23 53.5l32 -22l-1 -6q-34 -75 -77 -109t-104 -34q-38 0 -68.5 17t-50.5 46q-13 18 -23.5 52t-15.5 77l-7 56q-3 7 -5.5 13.5t-7.5 13.5q-15 22 -45 22h-3 q-14 -4 -22.5 -6.5t-15 -4t-12.5 -2t-14 -0.5q-11 0 -21 4t-14 9q-6 8 10.5 14t50.5 6h33q12 5 23.5 12.5t22.5 23.5q8 8 12 16t6.5 17.5t3 22.5t1.5 31l-197 -69v-12l2 -42q1 -22 1 -44q0 -36 -4 -79.5t-19 -80.5q-6 -20 -16 -37.5t-26 -31.5q-22 -23 -53.5 -33.5 t-68.5 -10.5q-83 0 -131 69q-17 24 -17 54q0 3 1 21.5t14.5 51.5t35 61t41.5 43q16 14 39.5 25.5t46.5 21.5l69 30q2 7 2 11.5v6.5l1.5 34.5t2.5 16.5q2 13 6 29t9 34q6 20 11 30.5t13 25.5q-80 -17 -147 -17q-17 0 -32.5 1t-33.5 3.5t-40.5 5.5l-52.5 7l-14 25 q28 -6 50 -9.5t40.5 -5.5t35.5 -2.5t37 -0.5q36 0 63 2t48 5.5t37.5 10t31.5 15.5q20 42 44 67t44 25q7 0 13.5 -3.5t9.5 -7.5q7 -10 7 -21q0 -15 -17 -38t-68 -43q-2 0 -4 -2t-7 -4q-5 -18 -8 -29.5t-5 -33.5v-23.5t0.5 -24t1.5 -28t1 -35.5l201 63l1 15q3 47 5 74.5 t12 51.5q12 29 36 47q19 14 38.5 23.5t46.5 9.5h6zM599 619q-8 -17 -8.5 -35.5t-0.5 -24.5q0 -27 3 -63l69 43q35 22 42.5 39.5t7.5 26.5q0 15 -11 30q-9 14 -20.5 20t-25.5 6q-17 -4 -31.5 -12.5t-24.5 -29.5zM104 260q-17 -15 -31 -37.5t-20 -44t-6 -39.5q0 -9 2.5 -27 t19.5 -43q14 -21 34 -33t43 -12q17 0 32.5 12t27 26.5t18 26.5t5.5 13q7 24 7.5 59.5t2.5 80.5q0 22 0.5 35.5t0.5 24t0.5 19.5t1.5 23l-21 -9q-36 -14 -62 -31t-55 -44z"/>
<glyph glyph-name="L" horiz-adv-x="540" unicode="L" d="M87 -5q-57 0 -79 33q-7 9 -7 17q0 10 15.5 19t65.5 9q13 0 34 -2t40.5 -4.5t33.5 -4.5t14 -1q19 10 33 30t20 34q6 15 12 39.5t6 65.5v13q0 13 0.5 21.5t0.5 14.5v11t1 12q-10 -2 -15 -2h-12q-48 0 -94.5 10.5t-87.5 30.5t-76 47.5t-59 62.5q-27 39 -31 61.5t-4 32.5 q0 22 11 43.5t42 36.5t77 15q14 0 26 -1t24 -3.5t25.5 -7t30.5 -11.5l1 -15q-17 6 -29 9t-21.5 4.5t-17.5 1.5h-18q-41 0 -66 -13.5t-32 -31.5t-7 -32t6.5 -38t32.5 -61q41 -58 108 -90t148 -32h22t14 2q-2 12 -2.5 26.5t-1.5 39.5q1 17 1 30q0 7 -0.5 18t0.5 16 q0 17 2.5 35.5t6 36.5t7.5 35t8 30q4 11 7.5 21t11.5 19q23 34 53.5 54t60.5 20q29 0 56 -15.5t45 -41.5q20 -29 23.5 -56t3.5 -41q0 -28 -7 -59q-8 -30 -24 -59t-39 -48q-29 -24 -66 -44.5t-79 -31.5v-6l-3 -37.5t-2.5 -22t-4 -21.5t-8.5 -35q-2 -6 -5 -15.5t-6.5 -19 t-7 -17.5t-6.5 -12q-14 -20 -27 -35.5t-32 -28.5l14 -2q27 -4 54 -8.5t50.5 -8.5t42.5 -6.5t29 -2.5q32 0 54 14t39 38l27 44l19 -10l-4 -8q-15 -30 -30 -51.5t-32 -34.5t-37.5 -19t-47.5 -6q-23 0 -53.5 4t-81.5 17q-23 5 -38.5 8.5t-23.5 5.5h-3q-2 0 -8 2 q-23 -13 -54 -23.5t-69 -13.5zM476 435q15 25 24 53.5t10.5 46.5t1.5 25q0 21 -5.5 45.5t-20.5 46.5q-21 28 -56 28q-42 0 -67 -52q-3 -5 -6.5 -16.5t-7.5 -27t-6.5 -33t-3.5 -34.5q0 -8 -0.5 -31t-0.5 -51.5t0.5 -57t0.5 -47.5q89 29 137 105zM177 42q-22 4 -43 7t-38 5 h-22q-23 0 -31 -4t-8 -8q0 -3 3 -7q5 -7 20 -13t31 -6q28 1 48 7t40 19z"/>
<glyph glyph-name="M" horiz-adv-x="1196" unicode="M" d="M672 190q-1 -14 -1 -27q0 -6 0.5 -18t-0.5 -22q0 -34 -3 -56.5t-8 -36.5t-13.5 -20t-20.5 -6q-15 0 -24 5t-18 18q-9 12 -13.5 34t-5 39t-0.5 21q0 27 3.5 60.5t10.5 73.5q3 15 4 29t1 32t-0.5 42t-1.5 57q-1 29 -1 51t-2 36q-2 19 -5 38t-12 32q-24 35 -63 35 q-42 0 -91 -63q-17 -23 -30 -44.5t-22 -45.5t-14.5 -51.5t-6.5 -61.5l-6 -157q-2 -99 -15.5 -141t-35.5 -42q-12 0 -25.5 8t-21.5 18q-6 9 -10 28t-4.5 32.5t-0.5 17.5q0 19 2.5 42t8.5 46l11 49q6 25 7 56t2 49q1 32 1.5 46t0.5 19q0 16 -1.5 31.5t-3.5 29.5t-5 29 q-14 61 -48 110q-22 31 -49 47t-56 16q-60 0 -101 -31t-49 -84q-2 -16 -2 -32q0 -26 6.5 -61t32.5 -71q17 -24 38 -38t43 -14q24 0 39.5 27t21.5 73l23 -12v-10q0 -52 -20.5 -81t-66.5 -29q-36 0 -74.5 22.5t-67.5 64.5q-33 48 -35 79.5t-2 38.5q0 48 24 90q25 45 76 69.5 t111 24.5q116 0 191 -106q19 -26 32 -55.5t18 -53.5q79 154 182 154q38 0 73 -20.5t63 -59.5q11 -17 17.5 -31.5t9.5 -36.5q86 144 188 144q37 0 71.5 -20.5t59.5 -55.5q14 -21 22 -43t10.5 -47t2.5 -49q0 -16 -1.5 -46.5t-7.5 -93.5q-3 -43 -3 -75q0 -27 3.5 -59t20.5 -57 q30 -44 73 -44q14 0 35 20.5t41 45.5q18 24 32 45l14 21l27 -20l-7 -12q-6 -12 -17.5 -28.5t-28 -36t-35 -36.5t-39 -29t-41.5 -12h-3q-36 0 -73 24.5t-68 69.5q-23 34 -28 65t-5 58q0 21 2 46l8 80q5 57 5.5 82t0.5 36q0 22 -1.5 43t-6.5 35.5t-12 25.5q-24 35 -61 35 q-24 0 -48.5 -16.5t-47.5 -45.5t-42.5 -68t-31.5 -84z"/>
<glyph glyph-name="N" horiz-adv-x="795" unicode="N" d="M217 421q-2 42 -9.5 71t-18.5 45q-18 26 -45.5 40t-59.5 14q-33 0 -56.5 -13.5t-43.5 -34.5q-19 -20 -28.5 -47t-9.5 -57t9.5 -60.5t28.5 -56.5q18 -26 37 -37.5t38 -11.5q28 0 44 24.5t16 65.5v5l24 -13v-11q0 -106 -79 -106q-37 0 -73.5 24t-63.5 63q-24 35 -31 65.5 t-7 51.5q0 19 4 37q7 31 25 56.5t45 42.5t61 26.5t73 9.5q47 0 91.5 -23.5t74.5 -68.5q12 -16 17 -28t10 -31l7 16q36 65 79 99t88 34q35 0 72.5 -21t61.5 -56q8 -12 15.5 -27.5t10.5 -31.5q3 -13 4.5 -25.5t1.5 -33.5t-2 -56.5t-6 -94.5q-4 -42 -4.5 -61t-0.5 -27 q0 -19 2 -37t7.5 -33t14.5 -28q14 -21 32.5 -31.5t34.5 -10.5q33 7 63 42.5t56 95.5l28 -22q-12 -23 -26 -49t-33 -48t-42 -37.5t-53 -16.5q-37 0 -75.5 22.5t-65.5 61.5q-28 40 -32.5 76.5t-4.5 68.5q0 27 2 58q3 42 5.5 76t3.5 69v25q0 29 -2 49.5t-13 36.5 q-12 17 -27 24.5t-32 7.5q-28 0 -60 -27.5t-59 -71.5q-14 -23 -20 -42t-9 -54q-6 -27 -9 -64t-5 -74q-2 -32 -3.5 -52.5t-2.5 -35.5t-2 -26t-2 -23q-1 -18 -3.5 -37t-8 -34.5t-13.5 -26t-19 -10.5q-12 0 -24.5 6.5t-19.5 15.5q-12 18 -13 42.5t-1 31.5q0 37 9 83l9 49 q7 35 10 85t3 108z"/>
<glyph glyph-name="O" horiz-adv-x="548" unicode="O" d="M444 133q-39 -69 -86 -100t-101 -33q-62 0 -114 31.5t-90 91.5q-25 38 -39 92t-14 113t14.5 119t46.5 111q20 33 50 60t63.5 46t67 29t60.5 10q45 0 80.5 -17t57.5 -52q18 -28 18 -52q0 -28 -23 -46q36 -59 45 -108.5t9 -84.5q0 -41 -8 -86q-4 -20 -7 -36t-7 -30 t-9.5 -28t-13.5 -30zM400 144q7 17 12 37t7 37q7 35 7 75q0 3 -0.5 26.5t-8 66t-21 81t-30.5 65.5q-17 25 -34.5 37t-40.5 12q-31 0 -56 -26t-44 -67q-7 -20 -11 -42.5t-8 -44.5l-26 12v8q0 25 5.5 51t17.5 49q23 42 54.5 69t71.5 27q39 0 68 -15t58 -48q7 7 7 18q0 2 -1 11 t-12 25q-20 32 -55 50.5t-74 18.5q-45 0 -84 -27.5t-68 -74.5q-29 -64 -37 -124t-8 -106q0 -22 3 -65.5t18.5 -98t35.5 -85.5q41 -66 111 -66q25 0 48 11.5t41.5 28.5t32.5 37t21 37z"/>
<glyph glyph-name="P" horiz-adv-x="619" unicode="P" d="M564 262q-30 -12 -61 -12l-25 2q-25 2 -52 10l-3 -20q-3 -20 -11.5 -49t-22.5 -63t-35.5 -63t-50 -48.5t-66.5 -19.5q-33 0 -65.5 7t-61.5 20.5t-53 33t-41 43.5q-17 26 -17 44q0 4 2.5 16.5t30.5 12.5q26 0 53.5 -15t45.5 -41q12 -17 12 -31q0 -21 -17 -23q-8 0 -8.5 -3 t1.5 -8q11 -14 42.5 -24t65.5 -10q56 0 85 32q9 11 15.5 25.5t11 37.5t6.5 56.5t4 81.5l1 32q-54 24 -93.5 53t-64.5 65q-14 20 -19 38t-7 38l22 -9q3 -17 9.5 -33.5t19.5 -30.5q9 -15 31.5 -32.5t45.5 -32.5t40 -25t17 -9v27v13v13.5t1 29.5q2 37 14 60.5t21 36.5 q12 17 25.5 29.5t30.5 26.5q-36 36 -84 65t-92 50q-12 6 -34.5 14t-51.5 15.5t-61 12t-63 4.5h-13q-75 -2 -124.5 -26t-66.5 -58t-17 -67q0 -17 7 -54t52 -101q22 -31 49.5 -57.5t58 -46t63 -32.5t65.5 -17l7 -16q-89 10 -169 59.5t-136 128.5q-46 65 -50 98.5t-4 44.5 q0 42 25 79t85 60.5t149 23.5q53 0 103.5 -6t98.5 -20q34 -10 76 -32t79 -44t62.5 -38.5t26.5 -16.5q24 8 40 11t33 3h10q17 -1 30.5 -3.5t27 -8.5t28.5 -16t35 -25l-4 -5q-19 10 -32.5 16.5t-24.5 11t-23 7t-22.5 4t-15.5 1.5l-19 -4q-19 -4 -38 -12q14 -13 25 -23 t19.5 -19.5t16.5 -19t16 -21.5q48 -68 48 -117q0 -6 -4 -35.5t-66 -49.5zM424 283q22 -6 42 -6q9 0 26.5 2.5t36.5 7.5q21 9 26 24.5t5 27.5q0 10 -3.5 28.5t-17.5 47t-34 56.5q-6 8 -13 17.5t-14 17t-11.5 12.5t-5.5 5q-28 -20 -41 -46q-15 -29 -15 -56q0 -24 7 -65 q3 -18 5 -36.5t7 -36.5z"/>
<glyph glyph-name="Q" horiz-adv-x="653" unicode="Q" d="M63 0q-48 0 -74.5 8t-37.5 31q-4 7 -4 15q0 24 38 47q23 14 49.5 21.5t47.5 9.5q15 2 29 2.5t33 0.5q38 0 72 -6.5t74 -18.5q40 37 65.5 89.5t32.5 98t7 79.5q0 26 -5 68.5t-30 93.5q-26 52 -67 84.5t-86 32.5q-38 0 -66.5 -19.5t-45.5 -52.5q-18 -41 -18 -90.5t20 -92.5 q14 -29 39.5 -46t54.5 -17q38 0 59.5 35t22.5 103l26 -9q1 -10 1 -20q0 -60 -29 -101t-88 -41q-45 0 -80 23t-55 64q-19 40 -19 89q0 4 1 32.5t24 76.5q28 50 77 77t108 27q61 0 114.5 -38t88.5 -108q25 -53 28.5 -90.5t3.5 -53.5q0 -43 -12.5 -94t-45 -106.5t-83.5 -101.5 q74 -27 125 -38t84 -11q27 0 48 10.5t47 38.5q17 19 26 35.5t20 33.5l26 -22l-4 -6q-50 -76 -98.5 -109.5t-106.5 -33.5q-32 0 -92 14.5t-135 38.5q-47 -26 -96 -39t-114 -14zM97 28q36 2 71.5 13t63.5 25q-35 11 -71 21t-70 10h-6q-42 0 -65 -12t-23 -26q0 -4 2 -9 q7 -10 19.5 -15t24.5 -7t23 -2q3 0 11.5 0.5t19.5 1.5z"/>
<glyph glyph-name="R" horiz-adv-x="875" unicode="R" d="M559 497q-14 29 -33.5 50.5t-47.5 39.5q-12 -23 -16 -33t-9 -23q-4 -11 -9.5 -30.5t-10.5 -44t-10 -52t-9 -52.5q-8 -47 -11.5 -73.5t-7.5 -34.5q-9 -56 -36 -107t-62 -85q-29 -24 -74.5 -38t-105.5 -14q-36 0 -71 9t-65.5 25t-54 39t-37.5 52q-10 20 -10 37q0 11 8 27 t43 16q30 0 55.5 -17.5t38 -42t12.5 -39.5q0 -5 -3 -16t-25 -13q-15 0 -10 -12q4 -8 15.5 -15t28 -12.5t35.5 -9t39 -3.5q68 0 108 40q9 9 16 19t13.5 24t13 34.5t14.5 52.5q3 11 10.5 35t18.5 63q13 42 22 70t16 48t14 36.5t16 34.5q16 40 34.5 71t31.5 52q-17 8 -29.5 13 t-25.5 7.5t-29 3.5t-39 1q-54 0 -106.5 -17.5t-86.5 -46.5q-52 -42 -63 -78.5t-11 -56.5q0 -32 15 -64q31 -60 86 -60q23 0 42.5 11.5t32.5 30.5t17.5 38t4.5 33q0 10 -2 21h15q6 -21 6 -41q0 -10 -3 -29.5t-18.5 -41t-40.5 -34.5t-58 -13q-42 0 -78.5 23t-56.5 65 q-18 36 -18 71q0 18 9.5 53t54 75t115.5 64t159 24q44 0 75.5 -5t63.5 -16q39 45 84.5 67t92.5 22q49 0 87 -21t69 -71l-15 -3q-25 33 -62 52.5t-77 19.5q-44 0 -83 -21t-65 -56q45 -20 74 -45.5t47 -62.5q16 -35 16 -64q0 -17 -10 -44.5t-65 -62.5q70 -11 102 -77 q11 -21 12.5 -35.5t1.5 -25.5q0 -16 -2 -38q-3 -21 -3 -38q0 -10 2 -25.5t10 -32.5q18 -37 55 -37q18 0 39.5 11t43 30t42 44.5t36.5 54.5l26 -23l-6 -5q-50 -79 -98.5 -114t-109.5 -35q-81 0 -113 65q-8 15 -11.5 30t-4.5 31t-1 31q0 10 0.5 29t2.5 58q5 16 2 29t-6 20 q-18 35 -54 35h-19l-33 -10q-2 0 -3.5 -1.5t-3.5 -1.5q-23 0 -29 16q-2 3 -2 6q0 19 76 19h6q38 32 43 53.5t5 30.5q0 26 -15 57z"/>
<glyph glyph-name="S" horiz-adv-x="565" unicode="S" d="M500 504q44 36 44 75q0 32 -29 65q-21 26 -52 26q-28 0 -48 -12t-32 -33q-13 -27 -13 -74t16 -101q29 7 59.5 20.5t54.5 33.5zM396 425q10 -21 14 -35.5t9 -25.5q29 -81 42 -133.5t15 -86.5v-6q0 -65 -44.5 -101.5t-128.5 -36.5q-36 0 -74 10t-74 27.5t-68.5 42 t-56.5 53.5q-29 35 -29 60q0 27 34 27q27 0 58 -17.5t54 -44.5q20 -23 23 -41t-11 -23h-16q-7 -2 -5 -7t7 -12q9 -11 24.5 -20t34 -15.5t39 -10.5t38.5 -4q26 0 46.5 8t33.5 23q14 14 20.5 34t6.5 48.5t-6 66.5t-18 89q-7 26 -12 43t-8.5 30t-6 25t-5.5 30h-28 q-126 0 -224 38t-158 110q-31 36 -37.5 61t-6.5 39q0 16 8 35.5t36.5 35t73.5 15.5q50 0 101.5 -16t99.5 -45l-1 -12q-53 25 -90.5 36.5t-76.5 11.5t-63 -12.5t-30 -28t-6 -27.5q0 -13 6.5 -34.5t33.5 -53.5q24 -29 59 -52.5t77.5 -40.5t91 -26t99.5 -9h31q-2 26 -3 42 t-1 26q0 5 0.5 15t2.5 23t5 27q5 21 14 40t17 30q40 48 105 48q29 0 53.5 -14t50.5 -45q19 -23 22 -39t3 -25q0 -14 -6 -32.5t-25 -38.5t-46 -36q-26 -15 -57 -26.5t-67 -16.5z"/>
<glyph glyph-name="T" horiz-adv-x="500" unicode="T" d="M481 620q34 -8 62 -10.5t49 -2.5q44 5 66.5 14t15.5 17q-7 10 -25 14t-44 4q-32 -2 -62.5 -9t-61.5 -27zM549 679q20 4 33 5t21 1q11 0 21 -1q32 -4 55 -10.5t36 -22.5q6 -8 6 -16q0 -13 -23.5 -28t-86.5 -25l-12 -1q-21 -5 -40 -5q-2 0 -13.5 0.5t-40.5 0.5h-26t-35 2 q-8 -18 -12 -37t-4.5 -33.5t-0.5 -18.5q0 -21 2.5 -50t8.5 -73q6 -51 8.5 -85.5t2.5 -59.5q0 -5 -0.5 -22t-4.5 -41.5t-11 -48.5q-19 -58 -57.5 -84t-106.5 -26q-72 0 -137 32.5t-110 90.5q-22 29 -22 50q0 4 3 17t33 13t61.5 -16.5t52.5 -45.5q5 -6 8 -12.5t3 -9.5 q8 -16 2.5 -29t-16.5 -13h-16q-2 0 -2.5 -4t2.5 -9q4 -4 10 -8.5t14 -9.5q24 -14 50 -19.5t51 -5.5q28 0 47.5 9t31.5 30t16 50.5t4 62.5q0 14 -1 30l-6 87v31q0 16 0.5 40t2.5 54t5.5 56t8.5 44q5 17 12 31t24 36q-18 3 -30.5 4.5t-23.5 2.5t-22 2.5t-26 3.5l-121 21 q-48 8 -83.5 12.5t-61.5 4.5q-64 0 -104.5 -19.5t-52 -46t-11.5 -49.5q0 -18 8 -51t47 -85q35 -47 77.5 -71t86.5 -24q36 0 59.5 13.5t32 34.5t8.5 43q0 10 -3 32.5t-23 63.5l28 -2q22 -44 25 -69t3 -35q0 -25 -10 -49.5t-37 -40.5t-67 -16q-54 0 -110 32t-98 88 q-47 63 -53.5 99t-6.5 51q0 35 19.5 70t74 58.5t136.5 23.5q25 0 49 -1t51.5 -5t62.5 -10.5t82 -16.5q53 -12 88 -18t40 -6h1q27 17 51 30.5t62 21.5z"/>
<glyph glyph-name="U" d="M302 -1q-34 0 -63.5 16.5t-48.5 48.5q-9 15 -14 32t-6 32t-1 24q0 15 2 38.5t9 63.5q22 115 29.5 187.5t7.5 123.5v12q-2 30 -12 66.5t-25 62.5q-29 51 -72.5 80.5t-90.5 29.5q-36 0 -67 -15t-48 -41q-13 -20 -20.5 -46.5t-7.5 -55.5q0 -25 6 -51t20 -49q21 -36 52 -55.5 t69 -19.5q22 0 33 6.5t21 20.5l18 -16q-12 -19 -26.5 -25.5t-38.5 -6.5q-51 0 -93 28t-71 79q-30 51 -31.5 78.5t-1.5 34.5q0 41 17.5 75.5t57.5 57t96 22.5q66 0 125 -39t104 -116q22 -38 36 -76.5t20 -77.5t6 -79q0 -6 -0.5 -32t-7.5 -79q-3 -23 -8 -50.5t-10 -55.5 t-9.5 -54.5t-5.5 -46.5q0 -18 0.5 -37t7.5 -35q8 -14 19.5 -20.5t23.5 -6.5q23 0 49.5 21t51.5 55.5t45.5 79.5t32.5 93q3 8 4 13.5t1 13v18v29.5q2 40 7 76.5t9 54.5q5 23 20 34t37 11t29 -13q8 -12 8 -32t-14 -54q-3 -8 -6 -21t-6 -28.5t-5 -30.5t-3 -26l-2 -58 q-2 -36 -2.5 -51.5t-0.5 -19.5q0 -24 3 -54q2 -26 7 -44t13 -32q11 -19 26.5 -28.5t32.5 -9.5q39 12 73.5 44t58.5 77l25 -20q-11 -19 -26.5 -40.5t-35.5 -40.5t-45.5 -32.5t-56.5 -16.5q-41 0 -73 19.5t-53 55.5q-14 22 -19.5 43t-7.5 59q-10 -32 -26.5 -63.5t-39.5 -57 t-51 -41.5t-61 -16z" unicode="U"/>
<glyph glyph-name="V" horiz-adv-x="516" unicode="V" d="M145 76q-13 -14 -11.5 -24.5t8.5 -18.5q3 -5 9.5 -8.5t10.5 -3.5q15 0 20 15q4 11 1 27t-10 41q-18 -15 -28 -28zM160 133q-3 11 -5.5 19.5t-6.5 19t-8.5 24.5t-11.5 35q-21 60 -33 105t-19 85q-5 38 -5.5 59.5t-0.5 27.5q0 31 5 50q-22 -8 -38.5 -9.5t-41.5 -3.5 l-119 -3q-18 0 -32.5 -0.5t-27.5 -1.5q-85 -11 -100 -34.5t-15 -38.5q0 -27 26 -64q21 -29 58 -51t84 -37l1 -18q-68 20 -116.5 50t-82.5 77q-26 36 -26 68q0 27 18 45q14 6 27 14t29 10q17 4 38 7t35 4q16 2 40.5 2.5t60.5 0.5q62 0 103.5 2t79.5 7v12l13 36q1 14 17 38 q11 13 19 20t18 7q8 0 16.5 -6t13.5 -12q10 -13 10 -27q0 -10 -9 -27.5t-46 -46.5q-1 -5 -1 -11q0 -12 3.5 -35.5t11 -58.5t17 -74t19.5 -73q8 -28 13 -46t8.5 -32.5t7.5 -29t9 -34.5q74 59 122.5 113.5t73 107.5t24.5 106q0 50 -22 102l-26 36q-29 41 -33.5 56.5t-4.5 20.5 q0 15 18 15q16 0 35 -15t39 -42q14 -19 21.5 -39.5t13.5 -54.5q32 -18 60 -25t59 -7q11 0 16.5 0.5t17.5 2.5l16 -19q-11 -6 -21.5 -8.5t-27.5 -2.5q-23 0 -51 8t-58 22l-2 -10q1 -19 1.5 -33.5t-0.5 -27.5t-3.5 -26t-6.5 -28q-17 -63 -61.5 -121t-104.5 -108l-78 -58 l-11 -7q1 -7 1.5 -9t-1.5 -2v-43v-14q0 -8 -2 -18t-5 -20.5t-7 -19.5t-8 -14q-7 -10 -16 -10.5t-18 -0.5q-15 0 -31 8t-26 22q-14 20 -14 37q0 5 3 17.5t36 38.5z"/>
<glyph glyph-name="W" horiz-adv-x="721" unicode="W" d="M512 -4q-13 0 -19 9q-10 14 -10 32t5 45q0 2 0.5 4.5t-0.5 7.5l-11 32q-33 70 -51 115t-29 72l-15 54q-4 11 -5 16t-1 8q-2 1 -4 5q-1 1 0 3q-10 -25 -18 -43q-8 -20 -18.5 -42t-26 -51t-41.5 -74q-8 -16 -16 -29.5t-13 -24.5l-6 -17q0 -5 -0.5 -8t-1.5 -5q1 -11 1 -21 t-2 -25t-8.5 -29t-16 -22.5t-19.5 -8.5q-8 0 -11 2t-6 6q-9 12 -9 32q0 4 1 18.5t19 47.5v10l-9 20l-12 36l-37 103q-17 50 -28 91.5t-16 74.5t-5 59q0 5 0.5 22.5t7.5 46.5q-16 -2 -26.5 -3t-27.5 -3l-91 -6q-82 -7 -134.5 -19t-77.5 -30t-25 -43q0 -27 26 -62 q20 -28 49 -51.5t63.5 -41t71 -27.5t71.5 -10l9 2l13 -17q-10 -2 -14 -2.5t-10 -0.5q-40 0 -84.5 12.5t-86 34t-77.5 50t-59 60.5q-33 44 -33 77q0 27 22 47q17 12 36.5 21.5t47 15.5t66 9t92.5 4q44 1 72.5 2.5t48 3.5t32.5 4.5t26 5.5q2 6 5 10.5t4 6.5q4 7 4.5 12.5 t2.5 5.5q7 27 20 42.5t33 23.5h3q10 0 14.5 -3t12.5 -13q9 -13 9 -27q0 -11 -9 -29t-38 -35q-1 -14 -1 -29q0 -32 5.5 -79.5t22.5 -108.5l27 -104l17 -50l8 -26l3 -19l6 10l23 44q10 16 21.5 38t22.5 46t22 49t20 47q6 17 9.5 24.5t5.5 24.5l-6 20l-4 27l-4 38q-2 11 -2 26 t5 31q3 11 4.5 21t3.5 17q13 33 36 33q2 0 7 -2.5t10 -9.5q14 -20 16 -41.5t2 -28.5q0 -32 -14 -67l3 -12q0 -22 8.5 -51.5t19.5 -60.5l50 -142q7 -19 11.5 -32.5t7.5 -24.5t6 -22.5t7 -27.5l7 12l106 193l91 201q19 40 42 81t47.5 79t49 70t46.5 55q35 36 76 64t84.5 48 t89 30.5t89.5 10.5q72 0 148 -21.5t147.5 -60t134 -91t107.5 -114.5q20 -28 35.5 -57.5t24.5 -58t11 -47t2 -28.5q0 -13 -2 -25l-25 15v12q0 67 -62 154q-45 62 -106 114t-129.5 89t-141 57.5t-141.5 20.5q-58 0 -113 -17t-104 -48q-44 -27 -81 -60t-70 -75t-62.5 -94 t-58.5 -118q-47 -103 -74 -160t-37 -71l-107 -192l-5 -13q2 -23 2 -42q0 -24 -5 -47t-25 -23z"/>
<glyph glyph-name="X" horiz-adv-x="772" unicode="X" d="M646 424q27 26 42 54t18.5 48t3.5 32q0 13 -3.5 31.5t-14.5 37.5q-9 16 -20.5 22t-28.5 6q-28 0 -62.5 -27.5t-54.5 -82.5q-10 -23 -16 -40.5t-10 -41.5q-3 -23 -5 -40.5t-2.5 -33.5t0 -31t2.5 -33q40 20 81 45t70 54zM316 102q28 26 38 58t15 62q-34 -14 -65 -34 t-52 -34q-46 -31 -62 -52.5t-16 -34.5q0 -5 2 -9q3 -5 13.5 -9.5t27.5 -4.5q29 3 55.5 21.5t43.5 36.5zM610 -421q49 11 78 37t35.5 53.5t6.5 46.5q0 23 -8.5 60.5t-40.5 92.5l-6 11h26q8 -14 13.5 -20.5t13.5 -19.5q48 -83 48 -145q0 -29 -21.5 -79t-142.5 -68 q-13 -2 -30 -2.5t-34 -0.5q-86 0 -177.5 31.5t-177.5 88t-161 133.5t-128 169q-73 127 -83.5 210t-10.5 119q0 85 27 160q10 30 29 60t40.5 55t42 43.5t32.5 26.5q85 59 196 59q94 0 163.5 -32.5t101.5 -87.5l9 -16l35 49q44 46 93 66.5t92 20.5q36 0 59 -14t39 -42 q15 -25 15 -53q0 -5 -2 -25t-27 -67q-10 -19 -23.5 -37.5t-28.5 -35t-30 -30.5t-27 -24q-29 -24 -64 -42.5t-86 -45.5v-5q0 -33 11.5 -74.5t31.5 -76.5q20 -36 51 -56.5t63 -20.5q14 0 31.5 7.5t35 19.5t33.5 28t28 33q8 11 17 25.5t16 25.5l24 -13q-7 -18 -15 -33.5 t-20 -30.5q-12 -18 -33 -37t-46.5 -35t-53.5 -26.5t-55 -10.5q-61 0 -102 26.5t-76 86.5l-17 28q-14 -27 -41.5 -50.5t-57.5 -43.5q-11 -9 -28.5 -18t-37 -16.5t-39.5 -12t-36 -4.5q-30 0 -53 12.5t-36 34.5q-7 12 -7 25q0 22 27 52t124 77l90 40l50 22q8 17 11 44.5t5 52.5 q1 14 1 28q0 44 -8.5 88t-25.5 74q-30 53 -81 81.5t-114 28.5q-47 0 -88.5 -13t-74.5 -39q-35 -27 -59 -60t-40 -78q-19 -54 -21.5 -95.5t-2.5 -60.5q0 -46 8 -103.5t32 -126.5t62 -135q48 -84 112.5 -152t137.5 -117.5t151 -77.5t155 -31h12q15 0 32 2t31 6z"/>
<glyph glyph-name="Y" horiz-adv-x="642" unicode="Y" d="M260 -343q25 29 46.5 55t47.5 52q29 30 49 50.5t28 33.5q2 0 3.5 3t4.5 7q3 12 4.5 20t2 18.5t-0.5 27t-2 44.5q0 20 -0.5 37.5t-0.5 23.5q0 24 2 52q-1 19 -1 33q0 7 0.5 19t0.5 25.5t-0.5 26t-1.5 30.5q-31 -86 -75 -137t-86 -51q-31 0 -57 17t-47 47q-12 17 -20 32.5 t-8 29.5q-5 19 -6.5 34t-1.5 29.5t1 31t1 37.5l5 92q1 31 1.5 48.5t0.5 28.5t-0.5 26.5t-1.5 33.5t-3 37q-5 59 -19.5 104t-40.5 81q-35 51 -81.5 80.5t-92.5 29.5q-38 0 -66 -15t-42 -41q-11 -19 -14 -39t-3 -35q0 -11 2 -30t11.5 -46.5t26.5 -50.5q26 -37 59.5 -56.5 t73.5 -19.5q20 0 30 6.5t18 20.5l17 -15q-8 -20 -20 -26.5t-40 -6.5q-49 0 -95.5 28t-78.5 74q-17 24 -30 54t-17 58q-3 18 -3 33q0 52 35.5 89.5t113.5 37.5q140 0 248 -153q20 -29 36 -56.5t23 -51.5q22 -60 32 -128t10 -126q0 -16 -1 -31l-5 -143q-1 -9 -1 -17 q0 -22 5 -43t13 -34q18 -24 39 -24q10 0 22.5 8.5t26 23.5t26 35.5t22.5 43.5q8 12 15.5 31t18.5 47q8 20 13 31.5t8 28.5q2 10 2 24q0 3 -0.5 14.5t-1.5 35.5q-1 30 -1 54q0 48 4 70q4 26 17.5 41t31.5 15q8 0 14.5 -3.5t8.5 -7.5q12 -17 11 -38q-2 -10 -3.5 -18.5 t-2.5 -18.5q-1 -2 -3.5 -12.5t-7.5 -30.5q-1 -5 -2 -10.5t-2 -13.5l-1 -14v-188l7 -198l-1 -79q41 45 85 102.5t72 135.5l27 -13l-9 -23q-14 -37 -33.5 -69t-52.5 -76q-20 -24 -39.5 -46.5t-34.5 -39.5l-12 -11l1 -108q0 -17 -2 -43.5t-5 -57.5t-6.5 -64.5t-7.5 -64.5 q-11 -54 -20.5 -96.5t-25.5 -83.5q-7 -16 -16.5 -35t-19 -36t-19 -31.5t-17.5 -21.5q-19 -16 -44.5 -25t-49.5 -9q-32 0 -65 18.5t-56 50.5q-19 26 -23.5 51t-4.5 39q0 23 7 47q14 55 37 105q17 33 37.5 65.5t46.5 66.5zM275 -396q-7 -12 -16 -30.5t-18 -38.5t-16.5 -41 t-10.5 -39q-17 -63 -17 -105q0 -44 22 -75q11 -16 30 -26.5t39 -10.5q35 0 60 25t39 71l22 92q11 47 17 97.5t8 92.5l3 111l3 80q-42 -42 -88 -95.5t-77 -107.5z"/>
<glyph glyph-name="Z" horiz-adv-x="500" unicode="Z" d="M94 32q26 8 48 18t36 21q-23 11 -42 14.5t-41 4.5q-14 1 -26.5 -1t-22.5 -6t-15.5 -10.5t-4.5 -15.5q0 -9 6.5 -14.5t16.5 -8.5t22 -3t23 1zM363 -63q70 74 114 136.5t59 107.5l32 -21l-2 -6q-14 -23 -34.5 -51.5t-42.5 -58t-44 -58t-39.5 -50.5t-28.5 -36l-11 -13 q0 -12 0.5 -24t0.5 -27.5t0.5 -37.5t0.5 -53q1 -31 1 -68q0 -28 -1 -81t-8 -129q-5 -71 -17.5 -129t-30.5 -116l-18 -64q-32 -75 -71.5 -114.5t-86.5 -39.5q-36 0 -71 22t-64 67q-44 67 -47 118t-3 63q0 79 29 166q12 47 42.5 102t67.5 103q33 42 70.5 78.5t64.5 65.5 q26 29 44 48t18 20q-1 24 -1.5 51t-7.5 54t-23 51.5t-47 43.5q-13 -8 -25.5 -17t-28 -17t-35.5 -14t-48 -9q-14 -1 -25 -1q-28 0 -45 10.5t-19 35.5v7q0 22 11.5 39t30 27t38.5 14t33 4q19 0 33.5 -2t28.5 -5t29 -8t35 -11q40 37 65.5 89.5t32.5 98t7 79.5q0 26 -5 68.5 t-30 93.5q-26 52 -67 84.5t-86 32.5q-38 0 -66.5 -19.5t-45.5 -52.5q-18 -41 -18 -90.5t20 -92.5q14 -29 39.5 -46t54.5 -17q38 0 59.5 35t22.5 103l26 -9q1 -10 1 -20q0 -60 -29 -101t-88 -41q-45 0 -80 23t-55 64q-19 40 -19 89q0 4 1 32.5t24 76.5q28 50 77 77t108 27 q61 0 114.5 -38t88.5 -108q25 -53 28 -89.5t3 -50.5q0 -47 -14 -100.5t-47.5 -110.5t-84.5 -103q31 -17 50.5 -35.5t30.5 -38.5t16 -41t8 -42zM284 -683q4 46 6 89.5t3 85t1 79.5q0 19 -0.5 59.5t-2.5 120.5v18.5t0.5 13t1 11.5t0.5 14q-21 -21 -37.5 -37t-31 -32t-30 -34 t-35.5 -43q-35 -43 -57.5 -81t-44.5 -82q-25 -58 -38 -115.5t-13 -112.5q0 -50 12.5 -96t37.5 -85q20 -29 39 -41t43 -12q18 0 35.5 9t33.5 25.5t28 40t19 52.5l22 95z"/>
<glyph glyph-name="underscore" horiz-adv-x="252" unicode="_" d="M220 -16h-179v33h179v-33z"/>
<glyph glyph-name="grave" horiz-adv-x="144" unicode="`" d="M119 355q-12 21 -21 40l-15 29q-18 36 -18 55t18 19q21 0 31 -24q9 -23 13 -79q2 -31 2 -33.5t1 -6.5h-11z"/>
<glyph glyph-name="a" horiz-adv-x="335" unicode="a" d="M169 48q-14 -29 -34.5 -38.5t-41.5 -9.5q-19 0 -38.5 12.5t-33.5 32.5q-16 23 -18.5 42t-2.5 28q0 19 6 36q7 17 19 32t26 25q12 10 26 14.5t27 4.5q18 0 30.5 -7t21.5 -20q2 -4 5 -8t6 -10l16 39h45l-6 -147q-1 -9 -1 -16q0 -11 3 -15q7 -10 22 -10q12 0 26.5 8.5 t28.5 23t26.5 34t20.5 41.5l25 -17l-4 -4q-28 -60 -61 -89.5t-77 -29.5q-17 0 -32 7t-23 18q-4 6 -4.5 10t-2.5 13zM147 60q2 8 3 19t3 19q3 19 3 35q0 8 -1.5 23t-11.5 30q-11 17 -29 17h-3q-11 -2 -19 -11t-15 -21q-9 -14 -11 -29t-2 -27q0 -5 0.5 -16t5 -26t10.5 -24 q11 -14 27 -14q11 0 22.5 4.5t17.5 20.5z"/>
<glyph glyph-name="b" horiz-adv-x="330" unicode="b" d="M187 163q-24 36 -24 53q0 15 19 15q14 0 27 -9.5t23 -23.5q9 -13 12.5 -22t5.5 -32q-1 -11 2 -18.5t8 -14.5q6 -9 17.5 -16t22.5 -7q14 0 23.5 11t17.5 42l26 -18q-12 -34 -24.5 -45t-34.5 -11q-28 0 -62 27q-8 -20 -20.5 -37t-28.5 -29.5t-34 -20t-37 -7.5q-23 0 -43 11 t-34 31q-10 14 -12 26.5t-2 26.5q0 11 1 25l-20 -21l-16 10q8 17 16 36.5t10 35.5q6 12 6 29q4 12 5 31t4 45q6 98 6 163v31q1 92 10 130.5t33 38.5q15 0 28 -18q11 -17 12 -40.5t1 -30.5q0 -36 -7 -83q-10 -51 -14.5 -81.5t-7.5 -35.5q-1 -15 -2 -29.5t-2 -32.5t-2 -43.5 t-2 -62.5q0 -39 0.5 -64.5t1.5 -41.5t3 -24.5t6 -13.5q7 -11 15 -15.5t16 -4.5q9 0 21.5 9t23.5 20q17 20 21 37.5t4 27.5q0 11 -3 20q-5 7 -9 11.5t-7 9.5z"/>
<glyph glyph-name="c" horiz-adv-x="247" unicode="c" d="M283 123l-5 -5q-40 -63 -77.5 -90.5t-87.5 -27.5q-73 0 -100 49q-13 23 -13 47q0 26 12 52q17 35 49.5 58t65.5 23q23 0 44 -13t32 -33q6 -12 6 -22q0 -6 -3.5 -15.5t-22.5 -9.5q-15 0 -28.5 9t-19.5 20q-9 15 -2 24q5 1 2 6q-2 5 -6.5 6t-9.5 1q-10 0 -21.5 -9.5 t-19.5 -29.5q-9 -26 -9 -52q0 -29 13 -53q14 -27 50 -27q32 0 67.5 30t58.5 78z"/>
<glyph glyph-name="d" horiz-adv-x="335" unicode="d" d="M177 43q-14 -30 -33 -36.5t-42 -6.5q-20 0 -41 12.5t-36 32.5q-15 22 -19 42.5t-4 31.5q0 17 6 33q5 17 15.5 31.5t24.5 25.5q27 18 54 18q32 0 53 -27q2 -4 4 -7t6 -11l2 105l3 193q1 52 3 85t6 52t10.5 26t17.5 7q7 0 15 -5t13 -13q11 -15 12.5 -40.5t1.5 -36.5 q0 -34 -6 -75l-15 -120l-2 -37l-4 -129l2 -77v-30t0.5 -23.5t6.5 -19.5q7 -11 24 -11q12 0 25.5 8.5t26.5 23.5t24 34.5t16 41.5l24 -16l-1 -6q-23 -58 -55.5 -88.5t-71.5 -30.5q-40 0 -60 29zM158 98q1 11 1 22q0 16 -2.5 34t-13.5 32q-12 18 -31 18h-6q-21 -4 -33 -30 q-5 -10 -8 -24.5t-4 -29.5v-5q0 -17 6 -36.5t19 -30.5q8 -8 13.5 -10.5t13.5 -2.5q12 0 21.5 6t15.5 21q4 10 5.5 19t2.5 17z"/>
<glyph glyph-name="e" horiz-adv-x="236" unicode="e" d="M122 147q17 16 20.5 25.5t-1.5 19.5t-18 10q-17 0 -30 -23q-8 -12 -13 -29t-8 -35q27 10 50 32zM174 47q21 15 40.5 36.5t36.5 55.5l20 -18l-4 -5q-21 -37 -44 -60.5t-46 -37.5q-36 -18 -75 -18q-64 0 -88 49q-12 23 -12 45t9 48q10 22 27 40t38 32q15 7 29.5 12t27.5 5 q14 0 26 -8t18 -21q4 -9 5 -17.5t-4.5 -18.5t-18 -21.5t-34.5 -26.5l-55 -37q1 -5 2.5 -9.5l3.5 -10.5q8 -16 19.5 -23t29.5 -7q29 2 49 16z"/>
<glyph glyph-name="f" horiz-adv-x="207" unicode="f" d="M187 -521q4 -50 4 -88q0 -45 -8 -86t-52 -41q-20 0 -46 10.5t-37 37.5q-7 17 -10.5 32t-5.5 32t-3.5 38.5t-3.5 51.5q-5 66 -5 134q0 17 1 67.5t1 131.5q0 55 0.5 90t1.5 64t2 60t1 80l-22 -20l-15 11q6 14 9.5 22t5.5 22l4 10q-9 25 -9 37q0 3 2 9.5t25 13.5q-1 5 -1 7 t1 7q0 11 0.5 29.5t0.5 25.5q0 28 -3 69q0 29 2.5 64t6 70.5t8 68.5t9.5 59q9 49 21 69t30 20q8 0 16.5 -5.5t14.5 -14.5q9 -12 11.5 -26.5t2.5 -28.5q0 -11 -2 -31.5t-10.5 -60.5t-23.5 -95q-5 -22 -8 -36t-5 -25t-3.5 -22t-3.5 -27l-1 -17l2 -86l1 -19h158l1 -21h-163 l-2 -167q18 -57 35 -126.5t34 -147.5q14 -64 19.5 -126.5t11.5 -125.5zM134 -276q-2 14 -10 50.5t-22 97.5l-22 96v-130v-79.5t-0.5 -49t-1.5 -38.5q-1 -36 -1 -73t0.5 -70.5t2 -62t2.5 -46.5q3 -25 6 -49t8.5 -43t14.5 -30.5t24 -11.5t23.5 17t8.5 47v7v24q0 25 -1.5 62 t-6 85t-11 98.5t-14.5 98.5z"/>
<glyph glyph-name="g" horiz-adv-x="347" unicode="g" d="M164 -517q2 31 2.5 49.5t0.5 28.5q0 21 -1 48l-3 104l1 116l-27 -54q-15 -26 -24 -46.5t-16 -34.5q-8 -16 -14.5 -33t-12.5 -34q-12 -35 -23 -70t-17 -64q-9 -52 -9 -96q0 -50 15 -74q8 -13 20.5 -21.5t26.5 -8.5q15 0 28.5 18t24.5 46t18.5 61.5t9.5 64.5zM76 -735 q-23 0 -44.5 14.5t-35.5 37.5q-17 29 -21 56t-4 47q0 19 2 39q7 30 14 57.5t18 59.5q6 17 17.5 41t23.5 50q17 35 35.5 70.5t34.5 61.5q14 22 22.5 37t13.5 24q3 6 6 11t5 13l2 77q-1 15 -1 29q0 7 0.5 20.5t-1.5 22.5l-1 16q-16 -26 -35.5 -37.5t-39.5 -11.5t-39.5 11.5 t-32.5 33.5q-15 25 -15 57q0 26 10 50q8 17 19.5 31.5t25.5 26.5q13 11 28.5 15.5t29.5 4.5t28.5 -8.5t22.5 -22.5l3.5 -7l5.5 -11l14 38h40l-6 -282q26 35 37 50t16 21t7 9.5t10 14.5q7 11 17 25.5t20 29.5t18 28.5t13 23.5l22 -16l-3 -6q-7 -14 -20.5 -35.5t-31 -47 t-38 -53.5t-40.5 -55l-28 -40l-1 -13l1 -130v-46q0 -73 -5.5 -144.5t-20.5 -131.5q-6 -27 -18 -55t-28.5 -50.5t-35 -36.5t-36.5 -14zM155 99q4 20 4 37q0 7 -1.5 21.5t-9.5 28.5q-9 16 -27 16h-4q-13 -1 -21.5 -9t-16.5 -19q-5 -11 -8.5 -24t-6.5 -27q-2 -13 -2 -24 q0 -10 2.5 -23.5t10.5 -26.5q10 -15 24 -15t24 10t20 24q5 6 7.5 15t4.5 16z"/>
<glyph glyph-name="h" horiz-adv-x="366" unicode="h" d="M404 127q-26 -61 -57.5 -94t-65.5 -33q-21 0 -41.5 11t-35.5 31q-12 15 -12 37q0 21 9 66q0 20 -1 31.5t-6 16.5q-4 6 -10 6q-9 0 -22 -12t-24 -36q-8 -16 -13.5 -41.5t-8.5 -49.5t-5 -42l-2 -18h-60l-10 123l-20 -24l-17 10l2 5q2 6 4 13.5t5 15t5 13.5q5 11 8.5 25 t4.5 29l4 76q2 67 3.5 115t1.5 79v35q0 25 1 51t5.5 46t12.5 28.5t19 8.5q15 0 28 -18q10 -14 11 -39t1 -33q0 -36 -6 -79q-6 -47 -10.5 -84t-6.5 -74q-2 -30 -2 -64.5v-64.5q0 -35 1 -69l7 13q23 44 42 66.5t42 22.5q20 0 37.5 -8.5t28.5 -24.5q6 -8 9.5 -15t4.5 -16 t0.5 -22t-1.5 -32q-2 -13 -2 -24q0 -9 2 -21t8 -20q7 -10 21 -10q11 0 29.5 17t32.5 40l26 50z"/>
<glyph glyph-name="i" horiz-adv-x="201" unicode="i" d="M70 400q-32 0 -37 25q-1 5 -1 9q0 12 9.5 22.5t28.5 10.5q14 0 23 -6.5t10 -20.5t-6 -26.5t-27 -13.5zM2 109q4 11 7 19.5t9 26.5q7 20 8.5 32t4.5 32h64v-158q0 -6 2 -9.5t6 -8.5q2 -3 9.5 -6.5t16.5 -3.5q10 0 22 9t24 23.5t22 33.5t16 40l24 -16l-2 -6 q-44 -117 -115 -117q-22 0 -42.5 10.5t-34.5 28.5q-13 18 -12 46l-3 26l-9 -12z"/>
<glyph glyph-name="j" horiz-adv-x="176" unicode="j" d="M100 431q3 -34 -35 -34q-32 0 -37 25q-1 5 -1 9q0 12 9.5 22.5t28.5 10.5q17 0 27 -12t8 -21zM204 -508v-43v-36v-20q0 -37 -5 -69q-10 -61 -48 -61q-26 0 -44.5 12.5t-31 31.5t-20 42.5t-10.5 46.5q-4 28 -7 57.5t-5 64t-2.5 62t-0.5 41.5q0 30 1 64v429l-13 -15l-17 11 l17 40q4 16 8 27.5t4 32.5l5 9h63l1 -145l-1 -550q2 -27 2 -61t2 -65.5t7.5 -57t17.5 -35.5q5 -5 9.5 -8.5t7.5 -3.5q9 0 14.5 6.5t8.5 18t4 26t2 30.5l8 184l-1 557l24 1v-43q0 -43 -1 -103.5t-1 -109.5t0.5 -135.5t1.5 -232.5z"/>
<glyph glyph-name="k" horiz-adv-x="358" unicode="k" d="M245 192q11 -16 11 -29q0 -30 -56 -48q16 -9 24 -15.5t17 -18.5l20 -29q7 -9 12 -13.5t13 -4.5q11 0 29.5 15.5t32.5 40.5l28 48l19 -15q-25 -61 -56 -92t-65 -31q-20 0 -35.5 8t-29.5 28q-5 5 -10 14.5t-10 18.5q-6 9 -9 14.5t-6 10.5l-2 3q-2 2 -5 5.5t-5 3.5 q-1 2 -11 2q-4 1 -9.5 4.5t-7.5 5.5q-7 11 12 11q3 0 9 -0.5t14 -2.5q20 7 23 18.5t3 15.5q0 13 -10 26q-9 13 -20 13q-14 0 -24 -14.5t-17.5 -37t-11.5 -48t-6.5 -48t-2.5 -37t1 -14.5h-56l-9 123l-20 -24l-19 13l20 43q11 23 12 35.5t2 29.5q3 53 4.5 92.5t2.5 65t1 42.5 q0 9 -0.5 24.5t-2.5 35.5q0 47 1.5 79.5t6 52.5t12.5 28.5t19 8.5q17 0 28 -18q11 -14 12.5 -39.5t1.5 -34.5q0 -35 -7 -77l-15 -120q-1 -4 -1 -11.5t-0.5 -28.5t-1.5 -61.5t-3 -110.5q10 18 18 33t16 25.5t18 16t24 5.5q20 0 39.5 -6.5t37.5 -29.5z"/>
<glyph glyph-name="l" horiz-adv-x="201" unicode="l" d="M1 109q4 11 7.5 20t8.5 27q6 20 10 32t6 32q2 54 3.5 94t2 70t0.5 53v43q0 47 1 79.5t5 52.5t11.5 28.5t18.5 8.5q17 0 30 -18q11 -14 12.5 -39.5t1.5 -36.5q0 -34 -6 -75l-17 -120q-1 -8 -1.5 -17.5t-0.5 -20.5l-3 -129q-2 -46 -2.5 -66t-0.5 -26q0 -24 2 -40 q-1 -2 2 -7.5t5 -8.5q2 -4 9 -8t15 -4q12 0 26 8.5t27 23t23.5 34t16.5 42.5l28 -18l-3 -5q-48 -118 -130 -118q-20 0 -39 10.5t-33 29.5q-9 14 -11 23t-2 18q0 11 2 27l-10 -9z"/>
<glyph glyph-name="m" horiz-adv-x="525" unicode="m" d="M200 0l-1 106l1 51q2 17 -0.5 30t-11.5 12q-10 -1 -23.5 -13.5t-26.5 -35.5q-9 -16 -16.5 -41.5t-12.5 -49.5q-6 -28 -11 -59h-61l-1 121l-22 -24l-15 11q8 12 12 22.5t8 22.5q4 13 8 25t6 21l5 20h50l4 -96l7 12q22 48 45 69t49 21q32 0 49 -26q7 -11 10 -22.5t3 -29.5 q0 -10 -1 -24l6 12q23 48 46 69t49 21q17 0 34 -9t28 -26q5 -7 7.5 -13.5t3 -15.5t-1.5 -22t-6 -33q-4 -26 -4 -40t5 -23q3 -5 9.5 -8.5t12.5 -3.5q11 0 27.5 13.5t31.5 36.5q5 7 11.5 17t12 18.5t9 14.5t2.5 7l23 -17l-2 -4q-29 -59 -60.5 -89t-69.5 -30q-19 0 -37 10.5 t-30 28.5q-11 17 -12 29t-1 15q0 22 11 63q4 20 5 31t-4 19q-2 3 -4.5 4t-8.5 1q-19 0 -47 -49q-9 -15 -17 -40.5t-14 -49.5q-5 -24 -9 -42l-4 -18h-56z"/>
<glyph glyph-name="n" horiz-adv-x="364" unicode="n" d="M36 123l-24 -24l-15 10l20 45q3 6 6.5 17t6.5 22t5 19l2 8h52l4 -95l6 13q42 89 93 89q39 0 61 -35q12 -17 12 -35q0 -4 -1 -7l-8 -53q-1 -12 -1 -21q0 -7 1 -15.5t6 -15.5q8 -12 20 -12t27 13.5t32 36.5q5 7 11.5 16.5t11.5 18.5q4 8 8 14l4 7l23 -16l-2 -5 q-55 -118 -128 -118q-22 0 -40.5 10.5t-30.5 28.5q-5 9 -7.5 17t-2.5 19t2.5 28t7.5 43q5 21 5.5 31t-2.5 15t-7 6t-5 1q-24 0 -52 -48q-9 -16 -16.5 -41.5t-13.5 -49.5q-5 -24 -9 -42l-4 -17l-57 -1z"/>
<glyph glyph-name="o" horiz-adv-x="301" unicode="o" d="M163 58q9 15 9 33l-1 50q-6 8 -11.5 13.5t-8.5 10.5q-5 9 -6 15t-1 14q-7 7 -12 8.5t-13 1.5t-15.5 -3t-12.5 -9q-4 -5 -7 -8.5t-6 -9.5q-11 -19 -14 -45q-1 -11 -1 -20q0 -35 14 -58q14 -22 36 -22q11 0 26.5 8t23.5 21zM169 17q-14 -10 -29.5 -13.5t-35.5 -3.5 q-59 0 -90 51q-17 26 -17 57q0 3 1 22.5t23 46.5q7 11 16.5 18t17.5 15q28 21 58 21q29 0 53.5 -15.5t41.5 -42.5q3 -5 4.5 -8.5t3 -8t3.5 -11t5 -17.5q2 -6 4.5 -9.5t4.5 -7.5q5 -8 16 -14.5t19 -6.5q16 0 25.5 11t21.5 40l24 -18q-14 -34 -26.5 -44.5t-32.5 -10.5 q-28 0 -62 24l-2 -9l-9 -20q-6 -11 -14.5 -24t-23.5 -22z"/>
<glyph glyph-name="p" horiz-adv-x="392" unicode="p" d="M162 -432v-136.5t-1.5 -81t-5 -43.5t-11.5 -24q-7 -10 -21 -14.5t-29 -4.5t-28.5 5t-18.5 16q-14 27 -14 66l1 19q0 35 -2 83q-1 40 -2 95.5t-1 144.5v389l9 42l-22 -23l-17 10q-1 1 8 20t20 54l21 60q0 10 -0.5 16t1.5 8v9q0 15 3 29.5t6 25.5q5 11 11 14.5t14 3.5 q14 0 23 -14q8 -10 9 -20.5t1 -13.5q0 -14 -6 -27l-5 -31q-4 -22 -9 -64t-8 -120q-2 -26 -4 -68t-2 -90q0 -19 0.5 -67.5t0.5 -100v-75.5q0 -75 -1.5 -136.5t-1.5 -107.5t2 -75.5t8 -39.5q5 -8 15.5 -11t15.5 11q4 11 5.5 49t2 90t0.5 110v110l2 283q0 77 2 126t7 75 q5 31 13 48q15 36 48 36q25 0 52.5 -17.5t49.5 -48.5q13 -19 20 -38.5t10 -41.5h3q15 0 25 2t17.5 8.5t13.5 18t14 30.5l24 -15q-6 -15 -10.5 -24t-8 -14.5t-7 -8.5t-7.5 -7q-7 -7 -20 -9t-45 -2q-1 -12 -5 -23q-4 -9 -11 -18t-20 -13q-8 -5 -22.5 -6t-28.5 -1q-41 0 -59 24 q-7 10 -7 19q0 8 9.5 18.5t43.5 16.5q20 4 53 4q-4 14 -14.5 32.5t-23.5 36.5q-17 24 -29.5 34.5t-21.5 10.5q-15 0 -24 -25q-5 -14 -8 -40t-4 -59l1 -142zM271 22q11 2 16.5 11t5.5 18q0 6 -2 12h-8q-10 0 -19.5 -1t-18.5 -2q-22 -5 -26.5 -11.5t-4.5 -10.5q0 -5 4 -10 q7 -10 31 -10z"/>
<glyph glyph-name="q" horiz-adv-x="298" unicode="q" d="M333 -363q2 -60 2 -114q0 -36 -1.5 -93.5t-6.5 -105.5q-6 -31 -17.5 -44.5t-34.5 -15.5h-9q-22 0 -43 9t-32 38q-5 11 -8 25.5t-5 30.5t-3 31.5t-2 28.5q-2 28 -4 66.5t-3.5 89.5t-1.5 115t2 144l-1 192q0 1 -6.5 -4.5t-16.5 -12t-22 -12t-23 -5.5q-19 0 -39.5 12.5 t-34.5 32.5q-16 21 -19.5 42t-3.5 31q0 17 5 33q5 17 16 32t25 25q25 18 52 18q18 0 30.5 -6t23.5 -21q4 -5 11 -18l14 39h47v-147v-252q1 -43 1.5 -85t0.5 -85.5t0.5 -90.5t1.5 -99q0 -32 1 -55t1.5 -38.5t2 -26t3.5 -17.5q4 -15 11.5 -24t21.5 -8q11 1 18 7t9 26 q2 21 3 61t1 88t-0.5 99.5t-0.5 96.5v443l32 2zM155 97q1 12 1 22q0 16 -2.5 34.5t-12.5 32.5q-12 16 -29 16q-17 -1 -26.5 -9t-15.5 -20q-5 -11 -7 -27t-2 -36q0 -17 6.5 -33t17.5 -29q5 -6 11 -10t14 -4q6 0 13.5 4t14.5 12t12 20t5 27z"/>
<glyph glyph-name="r" horiz-adv-x="270" unicode="r" d="M123 113q-20 -25 -21.5 -45t-1.5 -31q0 -18 2 -37h-66v115l-23 -24l-16 11l3 4l6 12t8.5 16.5t7.5 16.5q15 34 16 62h51l6 -89q5 7 8 12t6.5 9.5t9 10t16.5 13.5l7 9q-2 10 -2 19q0 35 38 35q10 0 20 -4t15 -12q10 -16 0 -28t-37 -29q5 -33 20 -56q6 -10 16.5 -16 t23.5 -6q12 0 22 11t21 40l24 -17q-13 -35 -24.5 -46t-32.5 -11q-22 0 -42 12.5t-34 32.5q-7 11 -10.5 20.5t-7.5 23.5z"/>
<glyph glyph-name="s" horiz-adv-x="270" unicode="s" d="M183 6q-8 -2 -20.5 -4t-19.5 -2h-6q-32 0 -60.5 9.5t-48.5 26.5q-7 6 -16 16.5t-13 18.5q-8 16 -8 28q0 5 3.5 14.5t26.5 9.5q11 0 16 -2t16 -7l4 2q1 3 5 9.5t8.5 15t9.5 18t8 17.5l16 36q-10 24 -10 39q0 31 39 31q16 0 26 -16q6 -11 5 -16.5t-8 -19.5q-2 -4 -5 -8.5 t-5 -12.5l9 -11l21 -24q12 -12 22.5 -25t17.5 -26q8 -14 14 -25.5t11 -21.5q12 13 23.5 29t19.5 34l25 -16l-5 -5q-30 -48 -59 -75t-62 -37zM178 51q0 12 -2.5 21.5t-8.5 23t-17 34t-30 53.5l-7 -22q-2 -8 -6.5 -17.5t-10 -18.5t-11 -16.5t-9.5 -10.5q5 -7 7 -10t4 -7 q9 -14 9 -24t-5 -13q-2 -2 -5 -2t1 -7q3 -5 17.5 -10t31.5 -5q13 0 24 3q7 2 12.5 7.5t5.5 14.5v6z"/>
<glyph glyph-name="t" horiz-adv-x="207" unicode="t" d="M-112 315l-2 11q-1 4 6.5 5.5t18.5 2t22.5 0t19.5 -0.5h42.5t38.5 1l4 89q1 22 2 36t1.5 22t1.5 12.5t2 7.5q10 7 26 7q12 0 17 -6q1 -1 0 -4q3 -3 3 -14l-1 -150q0 -1 19 -0.5t48 0.5t63.5 0.5t65.5 0.5t53.5 -0.5t27.5 -1.5q5 0 7 -15q-5 -2 -7 -2h-7q-17 -1 -52 -1 h-88h-131l1 -130q1 -65 3.5 -97t10.5 -43q5 -7 10.5 -9.5t16.5 -2.5q12 0 25 8.5t25 23t22 34t16 41.5l27 -17l-3 -6q-23 -59 -52 -88t-67 -29q-47 0 -77 39q-5 7 -8.5 12.5t-5.5 13t-4 18t-4 26.5l-8 -10l-17 10q8 13 11.5 23t8.5 27q3 11 5.5 22t3.5 26t1 36.5v54.5l-1 17 h-141z"/>
<glyph glyph-name="u" horiz-adv-x="364" unicode="u" d="M95 124v-20t0.5 -26.5t2 -24.5t4.5 -15q6 -6 12 -9t17 -3t21.5 8.5t19 23.5t13 34.5t4.5 41.5l3 87h66l-3 -147q0 -8 1 -16.5t5 -13.5q5 -7 9.5 -9.5t13.5 -2.5q11 0 24.5 9t26 24t23.5 34.5t17 40.5l26 -17l-2 -6q-24 -61 -55.5 -89t-72.5 -28t-66 33q-2 2 -3 6t-3 9 q-17 -26 -35 -37t-44 -11q-50 0 -80 39q-11 16 -13 27.5t-2 23.5q0 10 1 24l-11 -15l-17 11l2 5q2 5 5.5 12.5t7 16t5.5 15.5q8 25 8.5 35.5t2.5 26.5h66v-97z"/>
<glyph glyph-name="v" horiz-adv-x="326" unicode="v" d="M88 81q0 -29 7 -39q12 -17 30 -17q15 0 29.5 9t25.5 23q16 20 21 38t5 28t-3 18q-7 8 -10.5 12.5t-7.5 9.5q-23 32 -24 49t19 17q12 0 25.5 -8.5t23.5 -22.5q9 -13 13 -22.5t8 -33.5q-1 -11 1.5 -17.5t7.5 -13.5q7 -9 18 -16t21 -7q15 0 24.5 11t15.5 40l28 -16 q-11 -35 -23 -45.5t-34 -10.5q-30 0 -63 27q-15 -39 -48 -66.5t-72 -27.5q-27 0 -50 11t-38 31q-9 12 -11.5 21.5t-2.5 24.5v11l1 10l-9 -10l-16 10l2 5q2 5 4.5 12.5t4.5 15.5t4 14q3 13 5.5 21.5t4 15.5t3 13t2.5 14h66z"/>
<glyph glyph-name="w" horiz-adv-x="503" unicode="w" d="M117 0q-23 0 -44 12t-35 30q-9 12 -11 22.5t-2 19.5q0 11 2 25l-11 -10l-16 10l5 15q2 7 5 15t5 17q9 23 11 35.5t6 28.5h64q-2 -30 -3 -52t-2 -40t-1 -34t1 -34q1 -7 2.5 -11.5t3.5 -6.5q5 -7 12.5 -12t15.5 -5q14 0 29 9t26 23q12 14 16.5 31.5t5.5 52.5q0 28 1.5 45 t5.5 26t11.5 11.5t19.5 2.5q7 0 13 -1.5t10 -7.5q3 -5 4.5 -13t2.5 -18q-3 -17 -4 -41t-1 -57l-2 -21q0 -8 3 -14t6 -11q5 -7 11.5 -12t17.5 -5q14 0 28 9t25 23q17 20 21.5 37t4.5 26q0 11 -4 21l-17 22q-23 32 -24 49t18 17q14 0 27 -8.5t23 -22.5q9 -13 13 -22.5t8 -33.5 q2 -11 2.5 -17.5t5.5 -13.5q7 -9 19 -16t23 -7q16 0 24 11t17 40l25 -16q-9 -35 -21.5 -45.5t-32.5 -10.5q-33 0 -67 27q-13 -42 -46.5 -68t-72.5 -26q-55 0 -78 33q-4 5 -6.5 8.5t-5.5 9.5q-18 -18 -41.5 -33.5t-51.5 -17.5z"/>
<glyph glyph-name="x" horiz-adv-x="386" unicode="x" d="M147 99q-13 -5 -25 -10.5t-21 -10.5q-8 -5 -15.5 -9.5t-11.5 -10t-4.5 -11.5t4.5 -13q4 -5 12 -6.5t13 -1.5q8 0 16 5.5t13 10.5q11 12 15 27.5t4 29.5zM355 55q16 14 25 35t20 50l23 -16l-2 -5q-14 -33 -26.5 -55t-30.5 -38q-17 -13 -39.5 -19.5t-44.5 -6.5 q-34 0 -57 9.5t-49 33.5q-8 -6 -15 -13t-15 -12q-14 -9 -27 -13.5t-29 -4.5q-14 0 -26.5 6.5t-20.5 19.5q-8 12 -8 23q0 9 9.5 21.5t48.5 28.5l42 17l13 7q0 19 -2.5 33t-10.5 27q-6 9 -15 14.5t-16 5.5q-17 0 -29.5 -17t-32.5 -54l-7 -13l-23 13l8 18q20 45 42.5 62 t48.5 17q27 0 45.5 -6.5t29.5 -22.5l2 -5q10 8 19.5 15.5t26.5 13.5q15 3 28 4t30 1q16 0 30 -6t22 -17q5 -8 5 -15q0 -8 -10 -19t-58 -29q-24 -9 -36.5 -14.5t-28.5 -9.5l1 -7q1 -7 2.5 -16.5t3.5 -19t6 -15.5q9 -14 25 -24t33 -10q17 2 37 9t33 19zM264 163 q23 11 31.5 17.5t8.5 12.5q0 4 -3 8q-4 5 -7 7.5t-10 2.5q-11 0 -20 -3.5t-20 -10.5q-9 -9 -16 -23t-9 -29z"/>
<glyph glyph-name="y" horiz-adv-x="324" unicode="y" d="M250 73v-252q1 -43 1.5 -85t0.5 -85.5t0.5 -90.5t1.5 -99q0 -32 1 -55t1.5 -38.5t2 -26t3.5 -17.5q4 -15 11.5 -24t21.5 -8q11 1 18 7t9 26q2 21 3 61t1 88t-0.5 99.5t-0.5 96.5v443l32 2l2 -478q2 -60 2 -114q0 -36 -1.5 -93.5t-6.5 -105.5q-6 -31 -17.5 -44.5 t-34.5 -15.5h-9q-22 0 -43 9t-32 38q-5 11 -8 25.5t-5 30.5t-3 31.5t-2 28.5q-2 28 -4 66.5t-3.5 89.5t-1.5 115t2 144l-2 208q-17 -29 -34 -39.5t-40 -10.5q-25 0 -43 10.5t-32 29.5q-10 13 -12.5 24t-2.5 29q-1 3 0 7t2 10l-12 -11l-17 11q2 8 6 17q2 7 5 15t5 14 q2 9 5 20t6 21t4.5 17t0.5 7h63l-4 -146q-2 -14 0.5 -21.5t7.5 -13.5q4 -5 11 -9.5t14 -4.5q8 0 16 7t17 18q6 9 11.5 20.5t10 23.5t7.5 22.5t3 17.5l6 60q2 16 13 25t29 9q14 0 22 -8q6 -7 6 -14.5t-2 -16.5t-4.5 -20t-3.5 -25z"/>
<glyph glyph-name="z" horiz-adv-x="327" unicode="z" d="M144 -517q2 31 2.5 49.5t0.5 28.5q0 21 -1 48l-3 104l1 116l-27 -54q-15 -26 -24 -46.5t-16 -34.5q-8 -16 -14.5 -33t-12.5 -34q-12 -35 -23 -70t-17 -64q-9 -52 -9 -96q0 -50 15 -74q8 -13 20.5 -21.5t26.5 -8.5q15 0 28.5 18t24.5 46t18.5 61.5t9.5 64.5zM158 30 q21 -10 31.5 -37.5t11.5 -55.5q0 -1 8 9.5t19 25.5t23 32t20 28q7 11 17 25.5t20 29.5t18 28.5t13 23.5l22 -16l-3 -6q-4 -7 -11.5 -18.5t-17 -26.5t-21 -31.5t-22.5 -32.5q-26 -38 -58 -82l-26 -40l-2 -143v-46q0 -73 -5.5 -144.5t-20.5 -131.5q-6 -27 -18 -55t-28.5 -50.5 t-35 -36.5t-36.5 -14q-23 0 -44.5 14.5t-35.5 37.5q-17 29 -21 56t-4 47q0 19 2 39q7 30 14 57.5t18 59.5q6 17 17.5 41t23.5 50q17 35 35.5 70.5t34.5 61.5q20 32 32 54.5t15 30.5q1 -1 3 6.5t4 18.5t2.5 24t-0.5 22q1 17 -5 31t-11 17q-6 -13 -17.5 -24.5t-31.5 -16.5 q-5 0 -8.5 1.5t-6.5 8.5q-5 13 4 29.5t29 29.5q13 6 22 16.5t13.5 22t6.5 23t2 18.5q1 6 1 11q0 14 -4.5 31t-12.5 30q-6 9 -15 14.5t-16 5.5q-17 0 -29.5 -17t-32.5 -54l-7 -13l-23 13l8 18q20 45 42.5 62t48.5 17q27 0 47.5 -11.5t31.5 -33.5q14 -21 14 -45q0 -27 -10 -51 q-5 -14 -13.5 -29t-20.5 -29z"/>
<glyph glyph-name="guillemotleft" horiz-adv-x="420" unicode="" d="M80 -116l-7 9q53 42 50 73q-3 14 -15 24q-18 14 -19 31q-3 16 7 28q7 11 22 11q29 0 35 -42v-9q0 -31 -17 -62q-19 -36 -56 -63zM179 -117l-7 9q53 42 50 73q-3 14 -15 24q-18 14 -19 31q-3 16 7 28q7 11 22 11q29 0 35 -42v-9q0 -31 -17 -62q-19 -36 -56 -63z"/>
<glyph glyph-name="guillemotright" horiz-adv-x="420" unicode="" d="M80 322l-7 9q53 42 50 73q-3 14 -15 24q-18 14 -19 31q-3 16 7 28q7 11 22 11q29 0 35 -42v-9q0 -31 -17 -62q-19 -36 -56 -63zM179 321l-7 9q53 42 50 73q-3 14 -15 24q-18 14 -19 31q-3 16 7 28q7 11 22 11q29 0 35 -42v-9q0 -31 -17 -62q-19 -36 -56 -63z"/>
<glyph glyph-name="afii10023" horiz-adv-x="537" unicode="" d="M239 775q-32 0 -37 25q-1 5 -1 9q0 12 9.5 22.5t28.5 10.5q14 0 23 -6.5t10 -20.5t-6 -26.5t-27 -13.5zM349 775q-32 0 -37 25q-1 5 -1 9q0 12 9.5 22.5t28.5 10.5q14 0 23 -6.5t10 -20.5t-6 -26.5t-27 -13.5zM87 514q-23 36 -23 72q0 5 2.5 28t30 54.5t77.5 51t117 19.5 q72 0 131 -25.5t89 -70.5q9 -14 11.5 -32t2.5 -24q0 -27 -14 -66l-2 -7l-27 13l2 5q7 16 7 32q0 10 -5 28t-21 41q-26 38 -65 58t-81 20q-45 0 -83 -21t-54 -58q-9 -15 -11.5 -30.5t-2.5 -27.5q0 -8 1.5 -22.5t7.5 -35t17 -36.5l10 -15q20 2 27.5 4t14.5 2q28 0 49 -8.5 t30 -22.5t-3.5 -24.5t-42.5 -10.5q-19 0 -38 5.5t-50 16.5q-43 -11 -71.5 -41t-38 -63t-9.5 -60q0 -17 5 -49.5t34 -76.5q69 -107 209 -107q93 0 159 38t89 106l34 -21l-4 -7q-74 -147 -298 -147q-95 0 -164.5 35.5t-114.5 102.5q-30 46 -32.5 74.5t-2.5 37.5q0 39 16.5 78 t56 72.5t97.5 50.5q-23 14 -35 25.5t-26 28.5z"/>
<glyph glyph-name="afii10017" horiz-adv-x="821" unicode="" d="M399 182q9 15 18.5 36.5t19.5 44t18 44t14 36.5q8 21 11.5 30.5t6.5 23.5l-11 5q-12 6 -31 15t-43 19.5t-49 19.5t-48 15.5t-39 6.5h-3q-71 0 -82 -27.5t-11 -42.5q0 -34 26 -78q26 -43 76 -84.5t118 -79.5zM668 544q5 24 9.5 49.5t6.5 45.5q1 4 -0.5 9t-3.5 9t-4.5 4.5 t-4.5 0.5q-4 0 -13 -5t-24 -25q-14 -19 -22 -37t-22 -44q-4 -8 -13 -28t-18.5 -41t-17 -38.5t-7.5 -18.5q-5 -8 -8.5 -17t-5.5 -14q8 -6 16 -11.5t20 -15.5q29 -24 52 -48t43 -48q1 6 1.5 9.5t1.5 7.5q0 6 -0.5 14.5t-0.5 13.5q0 10 1 22q0 11 0.5 26t1 30.5t1 29.5t2.5 24 q0 3 1 15t2 27t2.5 30t3.5 24zM653 236q0 7 -7 17t-17 20t-21 20.5t-20 19.5q-12 11 -24.5 22.5t-23 20.5t-17.5 14l-7 5q-5 -7 -8.5 -18t-8.5 -22q-7 -16 -15.5 -43t-18.5 -46l-25 -46q-7 -14 -11 -21t-6.5 -11.5t-3.5 -7.5t-3 -7q20 -9 36.5 -16.5t32.5 -13.5 q27 -11 75 -23t99 -20q-1 8 -1.5 13.5t-1 11.5t-0.5 14v20v18.5t-0.5 21.5t-1 21.5t-0.5 17.5zM881 133q-20 -25 -44.5 -41t-45.5 -25t-35.5 -12t-14.5 -2q-7 -27 -14.5 -39t-23.5 -12q-11 0 -19.5 5.5t-13.5 13.5q-4 6 -6.5 14.5l-7.5 25.5q-40 4 -78 12.5t-68 19.5 q-23 8 -51 19.5t-51 23.5q-46 -69 -106.5 -101.5t-138.5 -32.5q-35 0 -68.5 8t-62.5 22.5t-53 35.5t-40 47q-14 24 -14 44q0 8 5 23.5t40 15.5q13 0 28 -5.5t29.5 -14.5t27 -21t20.5 -26q10 -18 10 -33q0 -6 -3.5 -17.5t-25.5 -11.5h-8q-15 0 -9 -8q4 -7 15 -13.5t26 -11 t33.5 -7.5t37.5 -3q78 0 143 38q13 8 23.5 16t20 18t19.5 23.5t22 31.5q-86 48 -134.5 91.5t-78.5 93.5q-22 36 -26 57t-4 31q0 17 8 34.5t33 28.5t62 11h6q34 -2 76.5 -15.5t80.5 -29.5q44 -18 89 -42q9 19 16 37t14.5 37t17.5 40t25 48q30 54 52 82q14 18 34 32t35 14 q34 0 54 -32q5 -8 6.5 -17.5t-0.5 -28.5l-7 -53l-8 -79q-2 -22 -3 -46t-4 -50q-2 -20 -2 -35v-38q-1 -19 -1 -40q0 -10 0.5 -31.5t3.5 -70.5l6 -51q4 -23 4 -38t2 -15q25 0 49 11.5t42 25t29 24.5t12 10z"/>
<glyph glyph-name="afii10018" horiz-adv-x="1018" unicode="" d="M633 620q34 -8 62 -10t49 -3q44 5 66 14t16 17q-7 10 -25 14t-44 4q-33 -2 -63 -9t-61 -27zM701 679q20 3 38 5q8 1 16 1q11 0 21 -1q32 -4 55 -10t36 -23q6 -8 6 -16q0 -13 -18 -25q-29 -18 -92 -28l-12 -1q-21 -5 -40 -5h-4q-21 0 -50 1h-26t-35 2q-8 -18 -12 -37 q-4 -20 -4 -44q0 -4 -1 -8q1 -22 3 -48q2 -32 8 -75q6 -51 8 -89q2 -31 3 -56q-1 -5 -1 -10q0 -30 -4 -54t-11 -48q-19 -58 -57 -84t-107 -26q-72 0 -137 32t-110 91q-22 29 -22 50q0 3 1 7q5 22 35 23q30 -1 62 -17t52 -45q5 -7 8 -13t3 -9q9 -16 3 -29t-17 -13h-16 q-3 0 -3 -4t3 -9q4 -4 10 -8t14 -10q24 -14 50 -20t51 -5q28 0 48 9t31 30q13 21 17 56q3 24 3 57q0 14 -1 30l-6 87v31v32q1 32 3 62q1 30 5 56t9 44q5 17 12 31t24 36q-19 2 -31 4t-23 3t-22 3t-26 3l-121 21q-48 8 -84 12t-61 5q-65 1 -105 -19t-55 -54q-8 -19 -8 -42 q1 -18 5 -38q12 -46 50 -98q36 -47 78 -71t86 -24q36 -1 60 13t33 39q7 17 7 39q0 10 -2 20q-4 34 -24 76l28 -2q22 -44 27 -82q1 -11 1 -22q0 -26 -8 -46q-12 -28 -39 -44t-67 -16q-54 0 -110 32t-98 88q-47 63 -57 118q-3 17 -3 32q0 35 16 64q24 40 78 64t136 24 q25 0 49 -1q23 -1 51 -5t63 -10t82 -17q53 -13 91 -19q32 -6 37 -5h1q27 17 51 31t62 21zM672 307l32 -2q60 -4 106 -35t73 -73q15 -26 21 -50q4 -18 5 -33q0 -6 -1 -11q14 -3 22 -3h14q28 0 44 4t27 13q7 3 11 11t7 16t4 12l1 6l26 -16q-8 -21 -16 -34q-8 -12 -22 -20 q-12 -8 -30 -10t-45 -3q-11 1 -23 1t-32 2q-14 -31 -38 -49t-63 -26q-22 -7 -41 -8t-39 -1q-38 0 -59 8t-32 27q-5 8 -5 15q1 16 21 26q30 16 92 26q19 2 40 4t45 2h16v8q1 20 -7 42q-10 26 -27 55q-21 35 -42 53t-48 21h-10q-17 -5 -27 -7t-21 -3q-11 0 -17 3t-8 7 q-3 5 -3 8q0 7 9 11q10 4 27 4q6 0 13 -1zM777 25q26 7 36 21t20 38h-11q-24 0 -42 -2t-36 -3q-12 -1 -26 -5t-24 -9t-16 -11q-3 -4 -4 -8q0 -3 2 -5q13 -21 66 -21q10 0 16 2t19 3z"/>
<glyph glyph-name="afii10019" horiz-adv-x="829" unicode="" d="M606 7q-22 -7 -41 -8t-39 -1q-38 0 -59 8.5t-32 26.5q-5 8 -5 15q0 15 25 28.5t88 23.5q19 2 40 4t45 2h16v8q0 20 -8.5 44t-25.5 53q-21 35 -42 52.5t-48 21.5h-10q-17 -5 -26.5 -7.5t-21.5 -2.5q-10 0 -16.5 3t-8.5 7q-8 13 6 17.5t40 4.5h21q26 23 26 61q0 40 -25 82 q-14 24 -33.5 41t-50.5 31l-1 -8l-5 -22q0 -14 -1.5 -35.5t-3.5 -50.5l-3 -80q-3 -83 -10.5 -144t-25.5 -95q-25 -47 -63.5 -68t-93.5 -21q-31 0 -61 7.5t-57 21.5t-48.5 33.5t-35.5 42.5q-15 24 -15 43q0 6 4 20.5t34 14.5q24 0 49.5 -17.5t39.5 -41.5q9 -15 9 -28 q0 -4 -2 -13t-19 -11h-8q-13 0 -5 -13q4 -7 14.5 -13.5t24.5 -12t30 -8.5t31 -3q26 0 43.5 7t30.5 25q9 12 16 26.5t13 34.5t11 48.5t10 67.5l15 118q3 23 8 44t8 39q3 8 4.5 16t3 18t4 23t7.5 30q2 6 4 11.5t4 9.5l-8 2q-9 2 -23 5t-30.5 5t-31.5 2q-26 0 -53 -5.5 t-52.5 -14.5t-47.5 -21.5t-37 -28.5q-42 -47 -46 -82.5t-4 -46.5q0 -50 28 -97q37 -62 94 -62q35 0 61 29t28 76q0 26 -8 56t-24 56l-4 7h16l7 -12q18 -30 26.5 -58.5t8.5 -52.5v-10q-3 -52 -32 -83.5t-76 -31.5q-36 0 -72 23t-60 63q-29 49 -29 102q0 33 11 67 q25 66 90.5 107.5t159.5 46.5h45q20 -2 34 -4t23 -4q11 -2 18 -4q-1 1 5 11t18.5 26t30.5 34.5t41.5 34t50 24t53.5 8.5h12q51 -3 95.5 -27.5t70.5 -66.5q18 -30 18 -55q0 -23 -16 -42l-13 8q6 14 6 28q0 21 -13 41q-12 19 -29.5 35.5t-38 27.5t-43.5 17.5t-45 6.5 q-61 0 -103 -32t-61 -89q50 -19 87.5 -46.5t59.5 -63.5q21 -36 21 -66q0 -47 -52 -79q95 -22 146 -105q16 -26 21 -47t5 -36q0 -6 -1 -11q15 -2 22.5 -2.5t13.5 -0.5q28 0 44.5 4.5t26.5 12.5q6 4 10.5 11.5t7.5 15.5q3 6 4 12l1 6l26 -16q-8 -21 -16.5 -34t-21 -20.5 t-30.5 -10t-45 -2.5q-11 0 -22.5 0.5t-32.5 2.5q-14 -31 -38 -49t-63 -26zM588 25q26 8 36 21.5t20 37.5h-11q-23 0 -41.5 -1.5t-36.5 -3.5q-13 -1 -26.5 -5t-24 -9t-15 -10t-4.5 -9q0 -3 2 -5q13 -21 66 -21q10 0 15.5 1.5t19.5 3.5z"/>
<glyph glyph-name="afii10020" horiz-adv-x="797" unicode="" d="M630 40q20 0 50 9.5t59 26.5t53 41.5t33 53.5l24 -18l-5 -10q-26 -44 -56 -69t-60 -38.5t-57 -18.5t-47 -9q-20 -2 -53.5 -4.5t-65.5 -2.5q-34 0 -68.5 8.5t-66 24.5t-58.5 38t-46 48q-23 30 -23 54q0 4 2.5 18t34.5 14q27 0 57.5 -18t50.5 -46q15 -21 15 -38.5 t-20 -17.5l-8 -3q-9 0 -9.5 -4.5t2.5 -9.5q5 -7 15 -13.5t21 -11.5q20 -9 44 -15t44 -6q46 0 71.5 36t28.5 105v104q0 40 4 82t10 80.5t14 71.5t16 56q4 11 10.5 22.5t11.5 22.5q-24 0 -47.5 2t-54.5 6.5t-73.5 12t-104.5 19.5q-67 14 -117 20.5t-80 6.5q-111 0 -128.5 -33 t-17.5 -51q0 -42 43 -102q22 -31 51.5 -56.5t62 -43.5t66.5 -27.5t66 -9.5q38 0 65.5 10t48.5 35l20 -15q-20 -32 -50.5 -45t-72.5 -13t-88.5 13t-91 35.5t-83 53t-64.5 66.5q-32 45 -35.5 69t-3.5 32q0 29 17.5 54.5t60.5 42t106 16.5q34 0 82.5 -6t128.5 -25 q106 -20 180.5 -32.5t106.5 -12.5q8 0 12.5 -1t9.5 4l19 13q10 6 16.5 9.5t12 5.5t11.5 2.5t14 0.5q11 0 24 -6.5t20 -15.5q9 -14 -9 -21.5t-68 -12.5l-14 -3q-5 -9 -8 -16.5t-6 -19.5q-3 -13 -5 -24t-4 -25q-2 -15 -3 -27.5t-2 -26t-0.5 -30t2.5 -39.5l7 -64l4 -34 q1 -9 1.5 -21.5t0.5 -27v-29t-1 -26.5q-4 -61 -18 -94.5t-37 -55.5z"/>
<glyph glyph-name="afii10021" horiz-adv-x="948" unicode="" d="M673 28q28 4 50 21.5t45 47.5l-14 -1q-15 0 -34.5 -1t-38 -2t-24.5 -2q-52 -6 -72.5 -16t-20.5 -20q0 -3 2 -7q5 -12 29.5 -17.5t54.5 -5.5zM826 93q-14 -26 -41.5 -47t-60.5 -31.5t-60.5 -11.5t-41.5 -1h-15q-42 3 -66.5 9t-35.5 27q-4 8 -4 15q0 20 33 38.5t110 26.5 q11 2 35.5 3t47.5 1h47q15 19 19.5 42.5t4.5 43.5q0 11 -2 34t-13.5 60.5t-30.5 75.5q-29 57 -68 102t-85.5 76.5t-98 48.5t-104.5 17h-5q-41 0 -86.5 -16t-89 -45t-80 -69.5t-58.5 -86.5q-33 -76 -34.5 -117t-1.5 -47q0 -68 26 -119q24 -47 63.5 -72.5t85.5 -25.5 q31 0 55 11t42.5 36.5t34.5 68.5t31 108q7 42 13 65.5t8 28.5q10 39 26 78.5t30 65.5q7 13 14.5 22.5t16 17t19.5 14t26 15.5l16 -13q-11 -9 -17 -19t-10.5 -21.5t-8 -26.5t-7.5 -35l-15 -74q-16 -78 -24 -138t-26 -99q-26 -63 -80.5 -96.5t-133.5 -33.5q-77 0 -135 35 t-90 98q-29 57 -29 124q0 70 36 140q27 52 61 96t78 78t98.5 57t122.5 33q13 2 28 2h29q63 0 122 -18t111 -51.5t94.5 -82t73.5 -108.5q42 -84 43 -124t1 -44q0 -70 -33 -116q18 -2 26.5 -2.5t16.5 -0.5q32 0 51.5 5t30.5 15q5 4 12.5 16t23.5 35l24 -18q-12 -24 -23 -39 t-26 -23.5t-36 -11.5t-52 -3h-15.5t-19.5 1q-11 0 -24 1z"/>
<glyph glyph-name="afii10022" horiz-adv-x="537" unicode="" d="M87 514q-23 36 -23 72q0 5 2.5 28t30 54.5t77.5 51t117 19.5q72 0 131 -25.5t89 -70.5q9 -14 11.5 -32t2.5 -24q0 -27 -14 -66l-2 -7l-27 13l2 5q7 16 7 32q0 10 -5 28t-21 41q-26 38 -65 58t-81 20q-45 0 -83 -21t-54 -58q-9 -15 -11.5 -30.5t-2.5 -27.5q0 -8 1.5 -22.5 t7.5 -35t17 -36.5l10 -15q20 2 27.5 4t14.5 2q28 0 49 -8.5t30 -22.5t-3.5 -24.5t-42.5 -10.5q-19 0 -38 5.5t-50 16.5q-43 -11 -71.5 -41t-38 -63t-9.5 -60q0 -17 5 -49.5t34 -76.5q69 -107 209 -107q93 0 159 38t89 106l34 -21l-4 -7q-74 -147 -298 -147 q-95 0 -164.5 35.5t-114.5 102.5q-30 46 -32.5 74.5t-2.5 37.5q0 39 16.5 78t56 72.5t97.5 50.5q-23 14 -35 25.5t-26 28.5z"/>
<glyph glyph-name="afii10024" horiz-adv-x="1079" unicode="" d="M728 255q-11 -6 -26 -19t-30 -31t-29 -39.5t-24 -44.5l-5 -13q2 -23 2 -42q0 -24 -5 -47t-25 -23q-13 0 -19 9q-10 14 -10 32t5 45q0 2 1 6.5t2 10.5q3 11 5 47.5t3.5 82.5t2 77.5t0.5 45.5q0 28 -1 50q-11 -27 -25.5 -50.5t-30.5 -42.5t-32.5 -33.5t-29.5 -22.5 q-5 -18 -18.5 -46.5t-32.5 -58t-41.5 -56t-43.5 -41.5q-12 -8 -29.5 -17t-37 -16.5t-39 -12.5t-35.5 -5q-30 0 -53 12.5t-36 34.5q-7 12 -7 25q0 22 27 52t124 77l90 40l50 22q8 17 11 44.5t5 52.5q1 14 1 28q0 44 -8.5 88t-25.5 74q-30 53 -81 81.5t-114 28.5 q-47 0 -88.5 -13t-74.5 -39q-35 -27 -59 -60t-40 -78q-19 -54 -21.5 -95.5t-2.5 -60.5q0 -46 8 -103.5t32 -126.5t62 -135q48 -84 112.5 -152t137.5 -117.5t151 -77.5t155 -31h12q15 0 32 2t31 6q49 11 78 37t35.5 53.5t6.5 46.5q0 23 -8.5 60.5t-40.5 92.5l-6 11h26 q8 -14 13.5 -20.5t13.5 -19.5q48 -83 48 -145q0 -29 -21.5 -79t-142.5 -68q-13 -2 -30 -2.5t-34 -0.5q-86 0 -177.5 31.5t-177.5 88t-161 133.5t-128 169q-73 127 -83.5 210t-10.5 119q0 85 27 160q10 30 29 60t40.5 55t42 43.5t32.5 26.5q85 59 196 59q94 0 162 -33.5 t103 -86.5q18 -26 26.5 -64.5t10 -66.5t1.5 -43q0 -24 -3 -54t-10 -52q12 11 21.5 21.5t18 23.5t17 29.5t17.5 38.5q6 17 9.5 24.5t5.5 24.5l-6 20l-4 27l-4 38q-2 11 -2 26t5 31q3 11 4.5 21t3.5 17q13 33 36 33q2 0 7 -2.5t10 -9.5q14 -20 16 -41.5t2 -28.5q0 -32 -14 -67 l3 -12q3 -25 4 -53.5t1 -52.5q0 -12 -0.5 -36.5t-2.5 -62t-4 -69.5t-3.5 -55t-2.5 -32q18 39 50.5 78.5t69.5 60.5q-5 33 -5 71q0 4 0.5 27.5t8 67t22.5 84t39 71.5q24 29 48 46t47 26t46 12t44 3q36 0 59 -14t39 -42q15 -25 15 -53q0 -5 -2 -25t-27 -67 q-10 -19 -23.5 -37.5t-28.5 -35t-30 -30.5t-27 -24q-29 -24 -64 -42.5t-86 -45.5v-5q0 -33 11.5 -74.5t31.5 -76.5q20 -36 51 -56.5t63 -20.5q14 0 31.5 7.5t35 19.5t33.5 28t28 33q8 11 17 25.5t16 25.5l24 -13q-7 -18 -15 -33.5t-20 -30.5q-12 -18 -33 -37t-46.5 -35 t-53.5 -26.5t-55 -10.5q-30 0 -53 7t-40.5 19.5t-30.5 29t-23 34.5q-8 13 -15.5 35t-14 45.5t-10.5 45.5t-4 35zM950 424q27 26 42 54t18.5 48t3.5 32q0 13 -3.5 31.5t-14.5 37.5q-9 16 -20.5 22t-28.5 6q-28 0 -62.5 -25t-56.5 -76q-10 -23 -15 -45t-9 -46q-3 -23 -5 -40.5 t-2.5 -33.5t0 -31t2.5 -33q40 20 81 45t70 54zM316 102q28 26 38 58t15 62q-34 -14 -65 -34t-52 -34q-46 -31 -62 -52.5t-16 -34.5q0 -5 2 -9q3 -5 13.5 -9.5t27.5 -4.5q29 3 55.5 21.5t43.5 36.5z"/>
<glyph glyph-name="afii10025" horiz-adv-x="500" unicode="" d="M94 32q26 8 48 18t36 21q-23 11 -42 14.5t-41 4.5q-14 1 -26.5 -1t-22.5 -6t-15.5 -10.5t-4.5 -15.5q0 -9 6.5 -14.5t16.5 -8.5t22 -3t23 1zM363 -63q70 74 114 136.5t59 107.5l32 -21l-2 -6q-14 -23 -34.5 -51.5t-42.5 -58t-44 -58t-39.5 -50.5t-28.5 -36l-11 -13 q0 -12 0.5 -24t0.5 -27.5t0.5 -37.5t0.5 -53q1 -31 1 -68q0 -28 -1 -81t-8 -129q-5 -71 -17.5 -129t-30.5 -116l-18 -64q-32 -75 -71.5 -114.5t-86.5 -39.5q-36 0 -71 22t-64 67q-44 67 -47 118t-3 63q0 79 29 166q12 47 42.5 102t67.5 103q33 42 70.5 78.5t64.5 65.5 q26 29 44 48t18 20q-1 24 -1.5 51t-7.5 54t-23 51.5t-47 43.5q-13 -8 -25.5 -17t-28 -17t-35.5 -14t-48 -9q-14 -1 -25 -1q-28 0 -45 10.5t-19 35.5v7q0 22 11.5 39t30 27t38.5 14t33 4q19 0 33.5 -2t28.5 -5t29 -8t35 -11q40 37 65.5 89.5t32.5 98t7 79.5q0 26 -5 68.5 t-30 93.5q-26 52 -67 84.5t-86 32.5q-38 0 -66.5 -19.5t-45.5 -52.5q-18 -41 -18 -90.5t20 -92.5q14 -29 39.5 -46t54.5 -17q38 0 59.5 35t22.5 103l26 -9q1 -10 1 -20q0 -60 -29 -101t-88 -41q-45 0 -80 23t-55 64q-19 40 -19 89q0 4 1 32.5t24 76.5q28 50 77 77t108 27 q61 0 114.5 -38t88.5 -108q25 -53 28 -89.5t3 -50.5q0 -47 -14 -100.5t-47.5 -110.5t-84.5 -103q31 -17 50.5 -35.5t30.5 -38.5t16 -41t8 -42zM284 -683q4 46 6 89.5t3 85t1 79.5q0 19 -0.5 59.5t-2.5 120.5v18.5t0.5 13t1 11.5t0.5 14q-21 -21 -37.5 -37t-31 -32t-30 -34 t-35.5 -43q-35 -43 -57.5 -81t-44.5 -82q-25 -58 -38 -115.5t-13 -112.5q0 -50 12.5 -96t37.5 -85q20 -29 39 -41t43 -12q18 0 35.5 9t33.5 25.5t28 40t19 52.5l22 95z"/>
<glyph glyph-name="afii10026" d="M302 -1q-34 0 -63.5 16.5t-48.5 48.5q-9 15 -14 32t-6 32t-1 24q0 15 2 38.5t9 63.5q22 115 29.5 187.5t7.5 123.5v12q-2 30 -12 66.5t-25 62.5q-29 51 -72.5 80.5t-90.5 29.5q-36 0 -67 -15t-48 -41q-13 -20 -20.5 -46.5t-7.5 -55.5q0 -25 6 -51t20 -49q21 -36 52 -55.5 t69 -19.5q22 0 33 6.5t21 20.5l18 -16q-12 -19 -26.5 -25.5t-38.5 -6.5q-51 0 -93 28t-71 79q-30 51 -31.5 78.5t-1.5 34.5q0 41 17.5 75.5t57.5 57t96 22.5q66 0 125 -39t104 -116q22 -38 36 -76.5t20 -77.5t6 -79q0 -6 -0.5 -32t-7.5 -79q-3 -23 -8 -50.5t-10 -55.5 t-9.5 -54.5t-5.5 -46.5q0 -18 0.5 -37t7.5 -35q8 -14 19.5 -20.5t23.5 -6.5q23 0 49.5 21t51.5 55.5t45.5 79.5t32.5 93q3 8 4 13.5t1 13v18v29.5q2 40 7 76.5t9 54.5q5 23 20 34t37 11t29 -13q8 -12 8 -32t-14 -54q-3 -8 -6 -21t-6 -28.5t-5 -30.5t-3 -26l-2 -58 q-2 -36 -2.5 -51.5t-0.5 -19.5q0 -24 3 -54q2 -26 7 -44t13 -32q11 -19 26.5 -28.5t32.5 -9.5q39 12 73.5 44t58.5 77l25 -20q-11 -19 -26.5 -40.5t-35.5 -40.5t-45.5 -32.5t-56.5 -16.5q-41 0 -73 19.5t-53 55.5q-14 22 -19.5 43t-7.5 59q-10 -32 -26.5 -63.5t-39.5 -57 t-51 -41.5t-61 -16z" unicode=""/>
<glyph glyph-name="afii10027" d="M324 840q8 9 16 9q1 0 7 -1t14.5 -8t15.5 -16.5t10 -15.5q9 -5 23 -2.5t28.5 7.5t28 12t20.5 12l21 -17q-16 -21 -49 -36t-78 -17q-16 0 -28.5 7t-22.5 16q-6 5 -9 13t-3.5 15.5t1.5 13.5t5 8zM302 -1q-34 0 -63.5 16.5t-48.5 48.5q-9 15 -14 32t-6 32t-1 24q0 15 2 38.5 t9 63.5q22 115 29.5 187.5t7.5 123.5v12q-2 30 -12 66.5t-25 62.5q-29 51 -72.5 80.5t-90.5 29.5q-36 0 -67 -15t-48 -41q-13 -20 -20.5 -46.5t-7.5 -55.5q0 -25 6 -51t20 -49q21 -36 52 -55.5t69 -19.5q22 0 33 6.5t21 20.5l18 -16q-12 -19 -26.5 -25.5t-38.5 -6.5 q-51 0 -93 28t-71 79q-30 51 -31.5 78.5t-1.5 34.5q0 41 17.5 75.5t57.5 57t96 22.5q66 0 125 -39t104 -116q22 -38 36 -76.5t20 -77.5t6 -79q0 -6 -0.5 -32t-7.5 -79q-3 -23 -8 -50.5t-10 -55.5t-9.5 -54.5t-5.5 -46.5q0 -18 0.5 -37t7.5 -35q8 -14 19.5 -20.5t23.5 -6.5 q23 0 49.5 21t51.5 55.5t45.5 79.5t32.5 93q3 8 4 13.5t1 13v18v29.5q2 40 7 76.5t9 54.5q5 23 20 34t37 11t29 -13q8 -12 8 -32t-14 -54q-3 -8 -6 -21t-6 -28.5t-5 -30.5t-3 -26l-2 -58q-2 -36 -2.5 -51.5t-0.5 -19.5q0 -24 3 -54q2 -26 7 -44t13 -32q11 -19 26.5 -28.5 t32.5 -9.5q39 12 73.5 44t58.5 77l25 -20q-11 -19 -26.5 -40.5t-35.5 -40.5t-45.5 -32.5t-56.5 -16.5q-41 0 -73 19.5t-53 55.5q-14 22 -19.5 43t-7.5 59q-10 -32 -26.5 -63.5t-39.5 -57t-51 -41.5t-61 -16z" unicode=""/>
<glyph glyph-name="afii10028" horiz-adv-x="815" unicode="" d="M672 688q20 0 38 -10t31 -28q12 -18 12 -40q0 -3 -1 -18t-19 -38q-5 -9 -15.5 -18.5t-21.5 -17.5q-11 -5 -20.5 -14t-20.5 -11q-2 -2 -15 -9t-41 -21q-1 -21 -2.5 -35.5t-4 -25t-6 -18.5t-8.5 -16q-3 -10 -10.5 -19.5t-18.5 -17.5t-23.5 -14t-24.5 -9q38 -18 57 -33.5 t33 -35.5q13 -18 21 -40t16 -56q6 -27 11 -46.5t13 -30.5q10 -14 25 -20.5t30 -6.5q20 0 40 9.5t38 27t32 42t23 53.5l32 -22l-1 -6q-34 -75 -77 -109t-104 -34q-38 0 -68.5 17t-50.5 46q-13 18 -23.5 52t-15.5 77l-7 56q-3 7 -5.5 13.5t-7.5 13.5q-15 22 -45 22h-3 q-14 -4 -22.5 -6.5t-15 -4t-12.5 -2t-14 -0.5q-11 0 -21 4t-14 9q-6 8 10.5 14t50.5 6h33q12 5 23.5 12.5t22.5 23.5q8 8 12 16t6.5 17.5t3 22.5t1.5 31l-197 -69v-12l2 -42q1 -22 1 -44q0 -36 -4 -79.5t-19 -80.5q-6 -20 -16 -37.5t-26 -31.5q-22 -23 -53.5 -33.5 t-68.5 -10.5q-83 0 -131 69q-17 24 -17 54q0 3 1 21.5t14.5 51.5t35 61t41.5 43q16 14 39.5 25.5t46.5 21.5l69 30q2 7 2 11.5v6.5l1.5 34.5t2.5 16.5q2 13 6 29t9 34q6 20 11 30.5t13 25.5q-80 -17 -147 -17q-17 0 -32.5 1t-33.5 3.5t-40.5 5.5l-52.5 7l-14 25 q28 -6 50 -9.5t40.5 -5.5t35.5 -2.5t37 -0.5q36 0 63 2t48 5.5t37.5 10t31.5 15.5q20 42 44 67t44 25q7 0 13.5 -3.5t9.5 -7.5q7 -10 7 -21q0 -15 -17 -38t-68 -43q-2 0 -4 -2t-7 -4q-5 -18 -8 -29.5t-5 -33.5v-23.5t0.5 -24t1.5 -28t1 -35.5l201 63l1 15q3 47 5 74.5 t12 51.5q12 29 36 47q19 14 38.5 23.5t46.5 9.5h6zM599 619q-8 -17 -8.5 -35.5t-0.5 -24.5q0 -27 3 -63l69 43q35 22 42.5 39.5t7.5 26.5q0 15 -11 30q-9 14 -20.5 20t-25.5 6q-17 -4 -31.5 -12.5t-24.5 -29.5zM104 260q-17 -15 -31 -37.5t-20 -44t-6 -39.5q0 -9 2.5 -27 t19.5 -43q14 -21 34 -33t43 -12q17 0 32.5 12t27 26.5t18 26.5t5.5 13q7 24 7.5 59.5t2.5 80.5q0 22 0.5 35.5t0.5 24t0.5 19.5t1.5 23l-21 -9q-36 -14 -62 -31t-55 -44z"/>
<glyph glyph-name="afii10029" horiz-adv-x="821" unicode="" d="M656 82q-1 12 -2 29t-2 36t-1.5 37t-0.5 32q0 52 1.5 77.5t2.5 44.5q0 11 0.5 25.5t1 30t1 30t2.5 24.5q0 3 1 15t2 27t2.5 30t3.5 24q5 24 9.5 49.5t6.5 45.5q1 4 -0.5 9t-3.5 9t-4.5 4.5t-4.5 0.5q-4 0 -13 -5t-24 -25q-14 -19 -22 -37t-22 -44q-4 -8 -13 -28 t-18.5 -41t-16.5 -38.5t-8 -18.5q-9 -22 -23 -54.5t-24 -64.5q-10 -31 -21 -59.5t-22.5 -52t-21 -40t-16.5 -23.5q-87 -129 -243 -129q-35 0 -68.5 8t-62.5 22.5t-53 35.5t-40 47q-14 24 -14 44q0 8 5 23.5t40 15.5q13 0 28 -5.5t29.5 -14.5t27 -21t20.5 -26q10 -18 10 -33 q0 -6 -3.5 -17.5t-25.5 -11.5h-8q-15 0 -9 -8q4 -7 15 -13.5t26 -11t33.5 -7.5t37.5 -3q78 0 143 38q27 17 53.5 49t51.5 69q12 17 24.5 45t24.5 58.5t22.5 60.5t18.5 51q13 32 29 78t46 100t52 82q14 18 34 32t35 14q34 0 54 -32q5 -8 6 -15t1 -12q0 -8 -1 -19l-7 -53 l-8 -79q-2 -22 -3 -46t-4 -50q-2 -20 -2 -35v-38q-1 -29 -1.5 -46.5t-0.5 -20.5q0 -30 5 -75l4 -42q2 -20 6.5 -41t4.5 -40v-8q-1 -28 -10.5 -38.5t-25.5 -10.5q-11 0 -19.5 5t-13.5 14t-8.5 26.5t-5.5 34.5z"/>
<glyph glyph-name="afii10030" horiz-adv-x="1184" unicode="" d="M923 490q4 40 8 76.5t8 54.5q5 23 20 34t37 11t29 -13q8 -12 8 -32t-14 -54q-3 -8 -6 -21t-6 -28.5t-5 -30.5t-3 -26l-2 -193q0 -36 -1 -54.5t-1 -28.5q0 -20 2 -42q2 -26 7 -44t13 -32q11 -19 26.5 -28.5t32.5 -9.5q39 12 73.5 44t58.5 77l25 -20q-11 -19 -26.5 -40.5 t-35.5 -40.5t-45.5 -32.5t-56.5 -16.5q-41 0 -73 19.5t-53 55.5q-14 22 -19.5 43t-7.5 59q-10 -32 -26.5 -63.5t-39.5 -57t-51 -41.5t-61 -16q-34 0 -63.5 16.5t-48.5 48.5q-9 15 -14 32t-6 32t-1 24q0 15 2 38.5t9 63.5q11 58 18 100.5t12.5 75.5t10.5 60t11 54 q5 24 9.5 49.5t6.5 45.5q1 4 -0.5 9t-3.5 9t-4.5 4.5t-4.5 0.5q-4 0 -13 -5t-24 -25q-14 -19 -22 -37t-22 -44q-4 -8 -13 -28t-18.5 -41t-16.5 -38.5t-8 -18.5q-9 -22 -23 -54.5t-24 -64.5q-10 -31 -21 -59.5t-22.5 -52t-21 -40t-16.5 -23.5q-87 -129 -243 -129 q-35 0 -68.5 8t-62.5 22.5t-53 35.5t-40 47q-14 24 -14 44q0 8 5 23.5t40 15.5q13 0 28 -5.5t29.5 -14.5t27 -21t20.5 -26q10 -18 10 -33q0 -6 -3.5 -17.5t-25.5 -11.5h-8q-15 0 -9 -8q4 -7 15 -13.5t26 -11t33.5 -7.5t37.5 -3q78 0 143 38q27 17 53.5 49t51.5 69 q12 17 24.5 45t24.5 58.5t22.5 60.5t18.5 51q13 32 29 78t46 100t52 82q14 18 34 32t35 14q34 0 54 -32q5 -8 6.5 -17.5t-0.5 -28.5l-7 -53l-8 -79q-2 -22 -5 -53t-6 -57l-7.5 -57.5t-9.5 -71t-9 -70t-5 -53.5q0 -18 0.5 -37t7.5 -35q8 -14 19.5 -20.5t23.5 -6.5 q23 0 49.5 21t51.5 55.5t45.5 79.5t32.5 93q3 8 3 35v59.5v64.5t2 50z"/>
<glyph glyph-name="afii10031" horiz-adv-x="701" unicode="" d="M457 76q33 -5 40 -5h2l-7 110q-16 20 -44.5 41.5t-58.5 39t-54.5 29t-31.5 11.5q-1 -13 -1.5 -31.5t-1.5 -38.5t-2.5 -39t-3.5 -31q-1 -5 -2 -12t-2 -13.5t-2 -10.5l-1 -4q42 -14 87 -27t83 -19zM432 62q-20 3 -42 8.5t-43 11.5t-39 11.5t-28 9.5q-22 -54 -61.5 -79 t-96.5 -25q-30 0 -60 7.5t-57 21.5t-49.5 34t-37.5 45q-14 22 -14 38q0 7 5 20.5t31 13.5q24 0 50.5 -16t41.5 -41q11 -18 11 -30q0 -3 -2 -12t-20 -9h-8q-11 0 -3 -13q4 -7 15 -14t25.5 -12t31 -8.5t33.5 -3.5q40 0 62 25.5t36 87.5q-15 7 -24.5 11.5t-16.5 8t-12.5 6 t-11.5 6.5q-29 17 -51 36.5t-35 39.5q-16 25 -16 47q0 16 15.5 38.5t81.5 23.5q13 0 29.5 -1.5t30.5 -3.5q14 -1 24 -3l10 -2q2 13 4.5 27.5t3.5 23.5q5 20 8 33t6 23.5t6 19.5t8 21q-25 -9 -44.5 -13.5t-35.5 -8.5q-11 -2 -21 -2.5t-20 -0.5q-14 0 -23 0.5t-24 4.5l-8 17 q12 -2 19 -2.5t13 -0.5q12 0 25.5 1.5t24.5 4.5q8 2 21.5 5.5t29 8t31 10.5t26.5 13q10 4 13 14q1 2 6.5 9.5t13.5 19.5q17 29 39.5 47t40.5 18q23 0 32 -17q3 -4 3 -9q0 -21 -50 -58l-55 -34q-6 -15 -9.5 -22t-6.5 -19q-3 -20 -7 -50t-4 -74v-21l3 -8q30 -11 53.5 -21.5 t44.5 -23.5t42 -29.5t45 -38.5q-4 52 -4 101q0 64 9.5 143t38.5 150.5t75.5 111t106.5 39.5q39 0 74 -20t57 -55q20 -32 20 -62q0 -8 -4.5 -30.5t-46.5 -43.5l-16 13q28 20 29.5 37.5t1.5 21.5q0 28 -18 56q-17 29 -42 42.5t-54 13.5t-55.5 -14.5t-47.5 -40.5t-36.5 -63.5 t-22.5 -82.5q-2 -27 -3.5 -67.5t-1.5 -88.5t2 -100.5t8 -103.5l11 -99q33 1 57.5 5.5t42.5 15t30 27.5t21 41l24 -17q-10 -26 -19 -39t-24 -26q-21 -14 -50.5 -21.5t-75.5 -7.5q0 -26 -6.5 -35.5t-24.5 -9.5q-25 0 -37 19q-5 8 -6.5 14.5t0.5 17.5zM158 331q-33 0 -51 -8 t-23 -19t-5 -20q0 -6 3 -17.5t14 -28.5q8 -13 28 -28.5t41 -28.5t37 -21.5t16 -7.5l7 56l4 74q0 8 1 12t1.5 8l1 8t0.5 12q-18 2 -36.5 5.5t-38.5 3.5z"/>
<glyph glyph-name="afii10032" horiz-adv-x="525" unicode="" d="M444 133q-39 -69 -86 -100t-101 -33q-62 0 -114 31.5t-90 91.5q-25 38 -39 92t-14 113t14.5 119t46.5 111q20 33 50 60t63.5 46t67 29t60.5 10q45 0 80.5 -17t57.5 -52q18 -28 18 -52q0 -28 -23 -46q36 -59 45 -108.5t9 -84.5q0 -41 -8 -86q-4 -20 -7 -36t-7 -30 t-9.5 -28t-13.5 -30zM400 144q7 17 12 37t7 37q7 35 7 75q0 3 -0.5 26.5t-8 66t-21 81t-30.5 65.5q-17 25 -34.5 37t-40.5 12q-31 0 -56 -26t-44 -67q-7 -20 -11 -42.5t-8 -44.5l-26 12v8q0 25 5.5 51t17.5 49q23 42 54.5 69t71.5 27q39 0 68 -15t58 -48q7 7 7 18q0 2 -1 11 t-12 25q-20 32 -55 50.5t-74 18.5q-45 0 -84 -27.5t-68 -74.5q-29 -64 -37 -124t-8 -106q0 -22 3 -65.5t18.5 -98t35.5 -85.5q41 -66 111 -66q25 0 48 11.5t41.5 28.5t32.5 37t21 37z"/>
<glyph glyph-name="afii10033" horiz-adv-x="795" unicode="" d="M217 421q-2 42 -9.5 71t-18.5 45q-18 26 -45.5 40t-59.5 14q-33 0 -56.5 -13.5t-43.5 -34.5q-19 -20 -28.5 -47t-9.5 -57t9.5 -60.5t28.5 -56.5q18 -26 37 -37.5t38 -11.5q28 0 44 24.5t16 65.5v5l24 -13v-11q0 -106 -79 -106q-37 0 -73.5 24t-63.5 63q-24 35 -31 65.5 t-7 51.5q0 19 4 37q7 31 25 56.5t45 42.5t61 26.5t73 9.5q47 0 91.5 -23.5t74.5 -68.5q12 -16 17 -28t10 -31l7 16q36 65 79 99t88 34q35 0 72.5 -21t61.5 -56q8 -12 15.5 -27.5t10.5 -31.5q3 -13 4.5 -25.5t1.5 -33.5t-2 -56.5t-6 -94.5q-4 -42 -4.5 -61t-0.5 -27 q0 -19 2 -37t7.5 -33t14.5 -28q14 -21 32.5 -31.5t34.5 -10.5q33 7 63 42.5t56 95.5l28 -22q-12 -23 -26 -49t-33 -48t-42 -37.5t-53 -16.5q-37 0 -75.5 22.5t-65.5 61.5q-28 40 -32.5 76.5t-4.5 68.5q0 27 2 58q3 42 5.5 76t3.5 69v25q0 29 -2 49.5t-13 36.5 q-12 17 -27 24.5t-32 7.5q-28 0 -60 -27.5t-59 -71.5q-14 -23 -20 -42t-9 -54q-6 -27 -9 -64t-5 -74q-2 -32 -3.5 -52.5t-2.5 -35.5t-2 -26t-2 -23q-1 -18 -3.5 -37t-8 -34.5t-13.5 -26t-19 -10.5q-12 0 -24.5 6.5t-19.5 15.5q-12 18 -13 42.5t-1 31.5q0 37 9 83l9 49 q7 35 10 85t3 108z"/>
<glyph glyph-name="afii10034" horiz-adv-x="619" unicode="" d="M564 262q-30 -12 -61 -12l-25 2q-25 2 -52 10l-3 -20q-3 -20 -11.5 -49t-22.5 -63t-35.5 -63t-50 -48.5t-66.5 -19.5q-33 0 -65.5 7t-61.5 20.5t-53 33t-41 43.5q-17 26 -17 44q0 4 2.5 16.5t30.5 12.5q26 0 53.5 -15t45.5 -41q12 -17 12 -31q0 -21 -17 -23q-8 0 -8.5 -3 t1.5 -8q11 -14 42.5 -24t65.5 -10q56 0 85 32q9 11 15.5 25.5t11 37.5t6.5 56.5t4 81.5l1 32q-54 24 -93.5 53t-64.5 65q-14 20 -19 38t-7 38l22 -9q3 -17 9.5 -33.5t19.5 -30.5q9 -15 31.5 -32.5t45.5 -32.5t40 -25t17 -9v27v13v13.5t1 29.5q2 37 14 60.5t21 36.5 q12 17 25.5 29.5t30.5 26.5q-36 36 -84 65t-92 50q-12 6 -34.5 14t-51.5 15.5t-61 12t-63 4.5h-13q-75 -2 -124.5 -26t-66.5 -58t-17 -67q0 -17 7 -54t52 -101q22 -31 49.5 -57.5t58 -46t63 -32.5t65.5 -17l7 -16q-89 10 -169 59.5t-136 128.5q-46 65 -50 98.5t-4 44.5 q0 42 25 79t85 60.5t149 23.5q53 0 103.5 -6t98.5 -20q34 -10 76 -32t79 -44t62.5 -38.5t26.5 -16.5q24 8 40 11t33 3h10q17 -1 30.5 -3.5t27 -8.5t28.5 -16t35 -25l-4 -5q-19 10 -32.5 16.5t-24.5 11t-23 7t-22.5 4t-15.5 1.5l-19 -4q-19 -4 -38 -12q14 -13 25 -23 t19.5 -19.5t16.5 -19t16 -21.5q48 -68 48 -117q0 -6 -4 -35.5t-66 -49.5zM424 283q22 -6 42 -6q9 0 26.5 2.5t36.5 7.5q21 9 26 24.5t5 27.5q0 10 -3.5 28.5t-17.5 47t-34 56.5q-6 8 -13 17.5t-14 17t-11.5 12.5t-5.5 5q-28 -20 -41 -46q-15 -29 -15 -56q0 -24 7 -65 q3 -18 5 -36.5t7 -36.5z"/>
<glyph glyph-name="afii10035" horiz-adv-x="538" unicode="" d="M328 579q-38 -17 -45 -39t-7 -35q0 -22 12 -47q14 -29 43.5 -46.5t64.5 -17.5q16 0 33 4t31 14q19 15 32 35t17.5 39.5t4.5 35.5q0 8 -1.5 24t-12.5 39q-23 48 -68.5 76t-103.5 28q-59 0 -109 -29t-91 -83q-31 -44 -50.5 -95.5t-25.5 -93.5t-6 -72q0 -22 4 -58.5 t24 -78.5q32 -69 96 -108.5t145 -39.5q60 0 107.5 18.5t80.5 40t51 39.5t19 18q6 -4 11.5 -7.5t11.5 -7.5q-15 -23 -45 -46.5t-69 -43t-85 -31.5t-94 -12q-113 0 -196 48.5t-126 142.5q-30 63 -30 131q0 80 42 165q24 51 60 92t79.5 70t92.5 44.5t99 15.5q36 0 71.5 -10 t66 -27.5t54 -41.5t36.5 -52q15 -32 15 -63q0 -6 -2 -28t-24 -52q-23 -28 -61.5 -45t-79.5 -17q-51 0 -91 23t-59 63q-11 24 -11 45q0 18 12.5 42.5t66.5 49.5z"/>
<glyph glyph-name="afii10036" horiz-adv-x="1196" unicode="" d="M672 190q-1 -14 -1 -27q0 -6 0.5 -18t-0.5 -22q0 -34 -3 -56.5t-8 -36.5t-13.5 -20t-20.5 -6q-15 0 -24 5t-18 18q-9 12 -13.5 34t-5 39t-0.5 21q0 27 3.5 60.5t10.5 73.5q3 15 4 29t1 32t-0.5 42t-1.5 57q-1 29 -1 51t-2 36q-2 19 -5 38t-12 32q-24 35 -63 35 q-42 0 -91 -63q-17 -23 -30 -44.5t-22 -45.5t-14.5 -51.5t-6.5 -61.5l-6 -157q-2 -99 -15.5 -141t-35.5 -42q-12 0 -25.5 8t-21.5 18q-6 9 -10 28t-4.5 32.5t-0.5 17.5q0 19 2.5 42t8.5 46l11 49q6 25 7 56t2 49q1 32 1.5 46t0.5 19q0 16 -1.5 31.5t-3.5 29.5t-5 29 q-14 61 -48 110q-22 31 -49 47t-56 16q-60 0 -101 -31t-49 -84q-2 -16 -2 -32q0 -26 6.5 -61t32.5 -71q17 -24 38 -38t43 -14q24 0 39.5 27t21.5 73l23 -12v-10q0 -52 -20.5 -81t-66.5 -29q-36 0 -74.5 22.5t-67.5 64.5q-33 48 -35 79.5t-2 38.5q0 48 24 90q25 45 76 69.5 t111 24.5q116 0 191 -106q19 -26 32 -55.5t18 -53.5q79 154 182 154q38 0 73 -20.5t63 -59.5q11 -17 17.5 -31.5t9.5 -36.5q86 144 188 144q37 0 71.5 -20.5t59.5 -55.5q14 -21 22 -43t10.5 -47t2.5 -49q0 -16 -1.5 -46.5t-7.5 -93.5q-3 -43 -3 -75q0 -27 3.5 -59t20.5 -57 q30 -44 73 -44q14 0 35 20.5t41 45.5q18 24 32 45l14 21l27 -20l-7 -12q-6 -12 -17.5 -28.5t-28 -36t-35 -36.5t-39 -29t-41.5 -12h-3q-36 0 -73 24.5t-68 69.5q-23 34 -28 65t-5 58q0 21 2 46l8 80q5 57 5.5 82t0.5 36q0 22 -1.5 43t-6.5 35.5t-12 25.5q-24 35 -61 35 q-24 0 -48.5 -16.5t-47.5 -45.5t-42.5 -68t-31.5 -84z"/>
<glyph glyph-name="afii10037" horiz-adv-x="642" unicode="" d="M260 -343q25 29 46.5 55t47.5 52q29 30 49 50.5t28 33.5q2 0 3.5 3t4.5 7q3 12 4.5 20t2 18.5t-0.5 27t-2 44.5q0 20 -0.5 37.5t-0.5 23.5q0 24 2 52q-1 19 -1 33q0 7 0.5 19t0.5 25.5t-0.5 26t-1.5 30.5q-31 -86 -75 -137t-86 -51q-31 0 -57 17t-47 47q-12 17 -20 32.5 t-8 29.5q-5 19 -6.5 34t-1.5 29.5t1 31t1 37.5l5 92q1 31 1.5 48.5t0.5 28.5t-0.5 26.5t-1.5 33.5t-3 37q-5 59 -19.5 104t-40.5 81q-35 51 -81.5 80.5t-92.5 29.5q-38 0 -66 -15t-42 -41q-11 -19 -14 -39t-3 -35q0 -11 2 -30t11.5 -46.5t26.5 -50.5q26 -37 59.5 -56.5 t73.5 -19.5q20 0 30 6.5t18 20.5l17 -15q-8 -20 -20 -26.5t-40 -6.5q-49 0 -95.5 28t-78.5 74q-17 24 -30 54t-17 58q-3 18 -3 33q0 52 35.5 89.5t113.5 37.5q140 0 248 -153q20 -29 36 -56.5t23 -51.5q22 -60 32 -128t10 -126q0 -16 -1 -31l-5 -143q-1 -9 -1 -17 q0 -22 5 -43t13 -34q18 -24 39 -24q10 0 22.5 8.5t26 23.5t26 35.5t22.5 43.5q8 12 15.5 31t18.5 47q8 20 13 31.5t8 28.5q2 10 2 24q0 3 -0.5 14.5t-1.5 35.5q-1 30 -1 54q0 48 4 70q4 26 17.5 41t31.5 15q8 0 14.5 -3.5t8.5 -7.5q12 -17 11 -38q-2 -10 -3.5 -18.5 t-2.5 -18.5q-1 -2 -3.5 -12.5t-7.5 -30.5q-1 -5 -2 -10.5t-2 -13.5l-1 -14v-188l7 -198l-1 -79q41 45 85 102.5t72 135.5l27 -13l-9 -23q-14 -37 -33.5 -69t-52.5 -76q-20 -24 -39.5 -46.5t-34.5 -39.5l-12 -11l1 -108q0 -17 -2 -43.5t-5 -57.5t-6.5 -64.5t-7.5 -64.5 q-11 -54 -20.5 -96.5t-25.5 -83.5q-7 -16 -16.5 -35t-19 -36t-19 -31.5t-17.5 -21.5q-19 -16 -44.5 -25t-49.5 -9q-32 0 -65 18.5t-56 50.5q-19 26 -23.5 51t-4.5 39q0 23 7 47q14 55 37 105q17 33 37.5 65.5t46.5 66.5zM275 -396q-7 -12 -16 -30.5t-18 -38.5t-16.5 -41 t-10.5 -39q-17 -63 -17 -105q0 -44 22 -75q11 -16 30 -26.5t39 -10.5q35 0 60 25t39 71l22 92q11 47 17 97.5t8 92.5l3 111l3 80q-42 -42 -88 -95.5t-77 -107.5z"/>
<glyph glyph-name="afii10038" horiz-adv-x="798" unicode="" d="M459 124q58 -57 84 -63.5t35 -6.5q35 0 65 36q-20 1 -43 2.5t-47.5 4.5t-48.5 9.5t-45 17.5zM133 276q-3 -27 -4.5 -44.5t-1.5 -29.5q0 -9 1 -23.5t8 -34.5t21 -41q29 -42 77 -42q42 0 81.5 23.5t61.5 58.5q-43 10 -89.5 47.5t-62.5 105.5q-23 -12 -46.5 -15.5 t-45.5 -4.5zM415 675q-16 3 -31 3q-35 0 -72 -21.5t-79 -75.5q-14 -20 -24.5 -37.5t-20.5 -39.5t-19.5 -50.5t-19.5 -68.5q-8 -30 -9.5 -51t-0.5 -21q50 2 83 13q-3 16 -3 33q0 15 3.5 41t13.5 61t25 66.5t33 53.5q31 38 57 59.5t64 34.5zM453 658q-13 -2 -27.5 -7t-31 -15 t-35.5 -26.5t-42 -41.5q-17 -20 -30 -46t-21.5 -56t-12.5 -60t-4 -57v-12q100 50 140 84q39 31 63.5 63t31.5 55.5t7 39.5q0 14 -6 35t-32 44zM504 661q27 -30 29.5 -51.5t2.5 -28.5q0 -29 -15.5 -63.5t-54.5 -75t-99 -80.5q-68 -45 -113 -57q16 -47 43.5 -81t83.5 -56 l-3 24q-1 7 -1 14q0 25 10.5 47t30.5 22q8 0 13 -4t10 -10q7 -10 8 -20.5t-3 -30.5v-5.5t-2 -7.5v-48q25 -11 54.5 -18.5t59 -12t56.5 -7t45 -3.5q27 35 33.5 78.5t6.5 77.5q0 24 -4 66t-20.5 102t-39.5 107q-13 26 -30.5 48t-36 38.5t-35.5 26t-29 9.5zM459 689q20 7 35 11 t29 4q61 0 110 -43t84 -113q22 -45 30 -97.5t8 -97.5q0 -17 -2 -56.5t-18 -97t-45 -96.5q15 -2 22.5 -2.5t13.5 -0.5q28 0 44.5 4.5t26.5 12.5q6 4 10.5 11.5t7.5 15.5q3 6 4 12l1 6l26 -16q-8 -21 -16.5 -34t-21 -20.5t-30.5 -10t-45 -2.5q-11 0 -23.5 1.5t-33.5 3.5 q-10 -11 -13 -14t-11 -9q-37 -27 -77 -27q-11 0 -43 6t-88 66v-101q18 -57 35 -126.5t34 -147.5q14 -64 19.5 -126.5t11.5 -125.5q4 -50 4 -88q0 -45 -8 -86t-52 -41q-20 0 -46 10.5t-37 37.5q-7 17 -10.5 32t-5.5 32t-3.5 38.5t-3.5 51.5q-5 66 -5 134q0 17 1 67.5t1 131.5 q0 55 0.5 92t1 68.5t1.5 64.5t1 82q-66 -73 -141 -73q-47 0 -90 22t-68 64q-15 25 -23 53t-12 50.5t-5 37.5t-2 15q-22 0 -48 3.5t-52 12.5q-59 17 -109.5 44.5t-98.5 60.5q-24 17 -44 38.5t-35 44.5q-17 24 -28 47.5t-13 43.5v8q0 45 23 78.5t85 53.5l14 -16 q-29 -18 -44.5 -29t-26.5 -28q-12 -18 -12 -41q0 -11 5.5 -36t34.5 -67q26 -38 61.5 -68.5t77.5 -53.5t88 -38t93 -20q14 -2 20.5 -2.5t11.5 -0.5q4 47 22 97.5t47 98.5q17 28 32 50.5t33 38.5l27 24q44 38 91.5 60.5t94.5 22.5q22 0 35 -1.5t32 -11.5zM491 -276 q-2 14 -10 50.5t-22 97.5l-22 96v-130v-79.5t-0.5 -49t-1.5 -38.5q-1 -36 -1 -73t0.5 -70.5t2 -62t2.5 -46.5q3 -25 6 -49t8.5 -43t14.5 -30.5t24 -11.5t23.5 17t8.5 47v7v24q0 25 -1.5 62t-6 85t-11 98.5t-14.5 98.5z"/>
<glyph glyph-name="afii10039" horiz-adv-x="772" unicode="" d="M646 424q27 26 42 54t18.5 48t3.5 32q0 13 -3.5 31.5t-14.5 37.5q-9 16 -20.5 22t-28.5 6q-28 0 -62.5 -27.5t-54.5 -82.5q-10 -23 -16 -40.5t-10 -41.5q-3 -23 -5 -40.5t-2.5 -33.5t0 -31t2.5 -33q40 20 81 45t70 54zM316 102q28 26 38 58t15 62q-34 -14 -65 -34 t-52 -34q-46 -31 -62 -52.5t-16 -34.5q0 -5 2 -9q3 -5 13.5 -9.5t27.5 -4.5q29 3 55.5 21.5t43.5 36.5zM610 -421q49 11 78 37t35.5 53.5t6.5 46.5q0 23 -8.5 60.5t-40.5 92.5l-6 11h26q8 -14 13.5 -20.5t13.5 -19.5q48 -83 48 -145q0 -29 -21.5 -79t-142.5 -68 q-13 -2 -30 -2.5t-34 -0.5q-86 0 -177.5 31.5t-177.5 88t-161 133.5t-128 169q-73 127 -83.5 210t-10.5 119q0 85 27 160q10 30 29 60t40.5 55t42 43.5t32.5 26.5q85 59 196 59q94 0 163.5 -32.5t101.5 -87.5l9 -16l35 49q44 46 93 66.5t92 20.5q36 0 59 -14t39 -42 q15 -25 15 -53q0 -5 -2 -25t-27 -67q-10 -19 -23.5 -37.5t-28.5 -35t-30 -30.5t-27 -24q-29 -24 -64 -42.5t-86 -45.5v-5q0 -33 11.5 -74.5t31.5 -76.5q20 -36 51 -56.5t63 -20.5q14 0 31.5 7.5t35 19.5t33.5 28t28 33q8 11 17 25.5t16 25.5l24 -13q-7 -18 -15 -33.5 t-20 -30.5q-12 -18 -33 -37t-46.5 -35t-53.5 -26.5t-55 -10.5q-61 0 -102 26.5t-76 86.5l-17 28q-14 -27 -41.5 -50.5t-57.5 -43.5q-11 -9 -28.5 -18t-37 -16.5t-39.5 -12t-36 -4.5q-30 0 -53 12.5t-36 34.5q-7 12 -7 25q0 22 27 52t124 77l90 40l50 22q8 17 11 44.5t5 52.5 q1 14 1 28q0 44 -8.5 88t-25.5 74q-30 53 -81 81.5t-114 28.5q-47 0 -88.5 -13t-74.5 -39q-35 -27 -59 -60t-40 -78q-19 -54 -21.5 -95.5t-2.5 -60.5q0 -46 8 -103.5t32 -126.5t62 -135q48 -84 112.5 -152t137.5 -117.5t151 -77.5t155 -31h12q15 0 32 2t31 6z"/>
<glyph glyph-name="afii10040" d="M527 -155q20 19 39 39.5t31.5 39.5t16.5 35t-6 26q-17 -7 -38 -18.5t-42 -23.5t-39.5 -23.5t-28.5 -18.5q-46 -31 -61 -54t-15 -36q0 -6 3 -10q3 -5 13.5 -9.5t27.5 -4.5q29 3 55.5 21.5t43.5 36.5zM661 5q11 -8 10.5 -21.5t-7 -30t-17 -33.5t-20.5 -31q-8 -11 -19 -24 t-24 -26t-26.5 -25t-25.5 -20q-11 -9 -28.5 -18t-37 -16.5t-39.5 -12t-36 -4.5q-30 0 -53 12.5t-36 34.5q-6 11 -6 23q0 60 162 139l128 54h-2q-37 0 -77 69q-14 22 -19.5 43t-7.5 59q-10 -32 -26.5 -63.5t-39.5 -57t-51 -41.5t-61 -16q-34 0 -63.5 16.5t-48.5 48.5 q-9 15 -14 32t-6 32t-1 24q0 15 2 38.5t9 63.5q22 115 29.5 187.5t7.5 123.5v12q-2 30 -12 66.5t-25 62.5q-29 51 -72.5 80.5t-90.5 29.5q-36 0 -67 -15t-48 -41q-13 -20 -20.5 -46.5t-7.5 -55.5q0 -25 6 -51t20 -49q21 -36 52 -55.5t69 -19.5q22 0 33 6.5t21 20.5l18 -16 q-12 -19 -26.5 -25.5t-38.5 -6.5q-51 0 -93 28t-71 79q-30 51 -31.5 78.5t-1.5 34.5q0 41 17.5 75.5t57.5 57t96 22.5q66 0 125 -39t104 -116q22 -38 36 -76.5t20 -77.5t6 -79q0 -6 -0.5 -32t-7.5 -79q-3 -23 -8 -50.5t-10 -55.5t-9.5 -54.5t-5.5 -46.5q0 -18 0.5 -37 t7.5 -35q8 -14 19.5 -20.5t23.5 -6.5q23 0 49.5 21t51.5 55.5t45.5 79.5t32.5 93q3 8 4 13.5t1 13v18v29.5q2 40 7 76.5t9 54.5q5 23 20 34t37 11t29 -13q8 -12 8 -32t-14 -54q-3 -8 -6 -21t-6 -28.5t-5 -30.5t-3 -26l-2 -58q-2 -36 -2.5 -51.5t-0.5 -19.5q0 -24 3 -54 q2 -26 7 -44t13 -32q11 -19 26.5 -28.5t32.5 -9.5q39 12 73.5 44t58.5 77l25 -20q-11 -19 -25.5 -40t-32 -39t-37.5 -30.5t-41 -15.5z" unicode=""/>
<glyph glyph-name="afii10041" d="M488 348q-10 -32 -26 -62t-38.5 -54t-50 -39t-60.5 -15q-34 0 -63.5 16.5t-48.5 48.5q-9 15 -14 32t-6 32t-1 24q0 15 2 38.5t9 63.5q3 13 8 26.5t9 30.5t6.5 38.5t2.5 48.5q-2 30 -12 66.5t-25 62.5q-29 51 -72.5 80.5t-90.5 29.5q-36 0 -67 -15t-48 -41 q-13 -20 -20.5 -46.5t-7.5 -55.5q0 -25 6 -51t20 -49q21 -36 52 -55.5t69 -19.5q22 0 33 6.5t21 20.5l18 -16q-12 -19 -26.5 -25.5t-38.5 -6.5q-51 0 -93 28t-71 79q-30 51 -31.5 78.5t-1.5 34.5q0 41 17.5 75.5t57.5 57t96 22.5q66 0 125 -39t104 -116q60 -103 60 -172 q0 -9 -1 -18q-6 -46 -15 -93.5t-12 -88.5q0 -18 0.5 -37t7.5 -35q8 -14 19.5 -20.5t23.5 -6.5q23 0 50.5 21.5t53 56.5t46.5 80.5t33 93.5l6 23q5 23 20 34t37 11t29 -13q8 -12 8 -32t-14 -54q-3 -8 -6 -21t-6 -28.5t-5 -30.5t-3 -26l-2 -58q-2 -36 -2.5 -51.5t-0.5 -19.5 q0 -24 3 -54q2 -26 7 -44t13 -32q11 -19 26.5 -28.5t32.5 -9.5q39 12 73.5 44t58.5 77l25 -20q-11 -19 -26.5 -40.5t-35.5 -40.5t-45.5 -32.5t-56.5 -16.5q-41 0 -73 19.5t-53 55.5q-13 21 -18.5 40t-7.5 51q-1 17 -1 37q0 10 0.5 30.5t2 48t3.5 46t2 20.5z" unicode=""/>
<glyph glyph-name="afii10042" horiz-adv-x="1085" unicode="" d="M303 32q23 0 49.5 21t51.5 55.5t45.5 79.5t32.5 93q3 8 4 13.5t1 13v18v29.5q2 40 7 76.5t9 54.5q5 23 20 34t37 11t29 -13q8 -12 8 -32t-14 -54q-3 -8 -6 -21t-6 -28.5t-5 -30.5t-3 -26l-2 -58q-2 -36 -2.5 -51.5t-0.5 -19.5q0 -24 3 -54q2 -26 7 -44t13 -32 q11 -19 26 -28.5t32 -9.5q23 0 49 21t50 56.5t43.5 80.5t31.5 93q3 8 4 13.5t1 13v18v29.5q2 40 7 76.5t9 54.5q5 23 20 34t37 11t29 -13q8 -12 8 -32t-14 -54q-3 -8 -6 -21t-6 -28.5t-5 -30.5t-3 -26l-2 -58q-2 -36 -2.5 -51.5t-0.5 -19.5q0 -24 3 -54q2 -26 7 -44t13 -32 q11 -19 26.5 -28.5t32.5 -9.5q39 12 73.5 44t58.5 77l25 -20q-11 -19 -26.5 -40.5t-35.5 -40.5t-45.5 -32.5t-56.5 -16.5q-41 0 -73 19.5t-53 55.5q-14 22 -19.5 43t-7.5 59q-10 -32 -26.5 -63t-39.5 -56t-51 -41t-61 -16q-41 0 -73 19.5t-53 55.5q-14 22 -19.5 43t-7.5 59 q-10 -32 -26.5 -63.5t-39.5 -57t-51 -41.5t-61 -16q-34 0 -63.5 16.5t-48.5 48.5q-9 15 -14 32t-6 32t-1 24q0 15 2 38.5t9 63.5q22 115 29.5 187.5t7.5 123.5v12q-2 30 -12 66.5t-25 62.5q-29 51 -72.5 80.5t-90.5 29.5q-36 0 -67 -15t-48 -41q-13 -20 -20.5 -46.5 t-7.5 -55.5q0 -25 6 -51t20 -49q21 -36 52 -55.5t69 -19.5q22 0 33 6.5t21 20.5l18 -16q-12 -19 -26.5 -25.5t-38.5 -6.5q-51 0 -93 28t-71 79q-30 51 -31.5 78.5t-1.5 34.5q0 41 17.5 75.5t57.5 57t96 22.5q66 0 125 -39t104 -116q22 -38 36 -76.5t20 -77.5t6 -79 q0 -6 -0.5 -32t-7.5 -79q-3 -23 -8 -50.5t-10 -55.5t-9.5 -54.5t-5.5 -46.5q0 -18 0.5 -37t7.5 -35q8 -14 19.5 -20.5t23.5 -6.5z"/>
<glyph glyph-name="afii10043" horiz-adv-x="1085" unicode="" d="M864 -155q20 19 39 39.5t31.5 39.5t16.5 35t-6 26q-17 -7 -38 -18.5t-42 -23.5t-39.5 -23.5t-28.5 -18.5q-46 -31 -61 -54t-15 -36q0 -6 3 -10q3 -5 13.5 -9.5t27.5 -4.5q29 3 55.5 21.5t43.5 36.5zM633 0q-41 0 -73 19.5t-53 55.5q-14 22 -19.5 43t-7.5 59 q-10 -32 -26.5 -63.5t-39.5 -57t-51 -41.5t-61 -16q-34 0 -63.5 16.5t-48.5 48.5q-9 15 -14 32t-6 32t-1 24q0 15 2 38.5t9 63.5q22 115 29.5 187.5t7.5 123.5v12q-2 30 -12 66.5t-25 62.5q-29 51 -72.5 80.5t-90.5 29.5q-36 0 -67 -15t-48 -41q-13 -20 -20.5 -46.5 t-7.5 -55.5q0 -25 6 -51t20 -49q21 -36 52 -55.5t69 -19.5q22 0 33 6.5t21 20.5l18 -16q-12 -19 -26.5 -25.5t-38.5 -6.5q-51 0 -93 28t-71 79q-30 51 -31.5 78.5t-1.5 34.5q0 41 17.5 75.5t57.5 57t96 22.5q66 0 125 -39t104 -116q22 -38 36 -76.5t20 -77.5t6 -79 q0 -6 -0.5 -32t-7.5 -79q-3 -23 -8 -50.5t-10 -55.5t-9.5 -54.5t-5.5 -46.5q0 -18 0.5 -37t7.5 -35q8 -14 19.5 -20.5t23.5 -6.5q23 0 49.5 21t51.5 55.5t45.5 79.5t32.5 93q3 8 4 13.5t1 13v18v29.5q2 40 7 76.5t9 54.5q5 23 20 34t37 11t29 -13q8 -12 8 -32t-14 -54 q-3 -8 -6 -21t-6 -28.5t-5 -30.5t-3 -26l-2 -58q-2 -36 -2.5 -51.5t-0.5 -19.5q0 -24 3 -54q2 -26 7 -44t13 -32q11 -19 26 -28.5t32 -9.5q23 0 50 21.5t52 56.5t45.5 80.5t32.5 93.5q3 8 4 13.5t1 13v18v29.5q2 40 7 76.5t9 54.5q5 23 20 34t37 11t29 -13q8 -12 8 -32 t-14 -54q-3 -8 -6 -21t-6 -28.5t-5 -30.5t-3 -26l-2 -58q-2 -36 -2.5 -51.5t-0.5 -19.5q0 -24 3 -54q2 -26 7 -44t13 -32q11 -19 26.5 -28.5t32.5 -9.5q39 12 73.5 44t58.5 77l25 -20q-11 -19 -25.5 -40t-32 -39t-37.5 -30.5t-41 -15.5q11 -8 10.5 -21.5t-7 -30t-17 -33.5 t-20.5 -31q-8 -11 -19 -24t-24 -26t-26.5 -25t-25.5 -20q-11 -9 -28.5 -18t-37 -16.5t-39.5 -12t-36 -4.5q-30 0 -53 12.5t-36 34.5q-7 11 -7 23q0 60 163 139l128 54h-2q-37 0 -77 69q-14 22 -19.5 43t-7.5 59q-10 -32 -27.5 -63t-41.5 -56.5t-53 -41.5t-62 -16z"/>
<glyph glyph-name="afii10044" horiz-adv-x="829" unicode="" d="M286 643q-67 15 -117 21t-80 6q-111 0 -138 -50q-8 -15 -8 -34q0 -42 43 -102q22 -30 52 -56t62 -44t66 -28t66 -9q38 0 66 10q21 8 38 24l4 30q8 46 18 85t17 62l11 22t11 23q-11 5 -27 11l-32 12t-30 10t-22 7zM483 307l32 -2q61 -4 107 -35t72 -73q16 -26 22 -50 q4 -18 4 -33q0 -6 -1 -11q15 -3 23 -3h13q29 0 45 4t26 13q6 3 10 11l8 16q3 8 4 12l1 6l26 -16q-9 -21 -17 -34q-8 -12 -20 -20t-31 -10q-18 -2 -45 -3q-10 1 -22 1t-33 2q-14 -31 -38 -49t-63 -26q-22 -7 -41 -8t-39 -1q-38 0 -59 8t-32 27q-5 8 -5 15q0 16 20 26 q30 16 93 26q19 2 40 4t45 2h16v8q0 20 -8 42q-10 26 -26 55q-21 35 -42 53t-48 21h-10q-16 -5 -26 -7t-22 -3q-10 0 -16 3t-9 7q-8 13 6 19q10 4 27 4q6 0 13 -1zM588 25q26 7 36 21t20 38h-11q-23 0 -41 -2t-37 -3q-13 -1 -27 -5t-24 -9t-16 -11t-1 -13q13 -21 66 -21 q9 0 15 2t20 3zM331 340q-7 -5 -15 -8q-30 -13 -73 -13t-89 13q-46 14 -90 36t-84 52q-38 30 -64 67q-32 45 -38 84q-1 9 -1 17q-1 29 15 51q20 29 63 45t106 17q35 0 83 -6t128 -25l58 -16t55 -22q7 -4 15 -6t12 2q24 19 38 24t25 0t15 -20q2 -5 2 -10q0 -8 -5 -13 q-9 -7 -19 -7t-30 -2q-5 -8 -8 -16t-6 -20q-3 -13 -5 -24t-4 -25q-3 -31 -5 -53t-1 -50l-2 -86q-3 -83 -11 -144t-25 -95q-25 -47 -63 -68t-94 -21q-31 0 -61 8t-57 21q-26 13 -48 33t-36 43q-15 24 -15 43q-1 6 1 12q6 23 37 23q23 1 49 -17t40 -42q9 -15 9 -28 q-1 -4 -1 -7q-4 -15 -20 -17h-8q-13 0 -5 -13q5 -7 15 -13t24 -12t30 -9t31 -3q25 0 43 7t31 25q9 12 16 26t13 35t11 49t10 67q0 40 5 88q2 12 3 23z"/>
<glyph glyph-name="afii10045" horiz-adv-x="1071" unicode="" d="M721 115q-1 -17 -9 -35t-21 -33t-31 -25t-36 -15q-34 -7 -56 -8t-42 -1q-38 0 -59 8t-32 27q-5 8 -5 15q0 16 20 26q30 16 93 26q9 1 23 3t27 4q13 3 27 5t24 4q0 12 -4 26t-10 26t-10 23q-6 11 -10 20q-21 35 -42 53t-48 21h-10q-16 -5 -26 -7t-22 -3q-10 0 -16 3t-9 7 q-8 13 6 19q10 4 27 4q6 0 13 -1l32 -2q59 -5 107 -35t72 -73q12 -19 16 -33l8 -28q6 2 16 7t21 19q13 14 25 43q12 28 24 76q3 7 4 13t1 14v18v29q2 41 7 77t9 54q5 23 20 34t37 11t29 -13q8 -12 8 -32t-14 -54q-3 -8 -6 -21t-6 -29t-5 -30q-2 -15 -3 -26l-2 -58 q-3 -36 -3 -63v-8q0 -24 3 -54q2 -26 7 -44t13 -32q11 -19 27 -29t32 -9q40 12 74 44t58 77l25 -20q-11 -18 -27 -40t-35 -41t-45 -33t-57 -16q-41 0 -73 20t-53 55q-13 22 -19 43t-8 59q-10 -15 -24 -27t-26 -19t-22 -11q-9 -4 -9 -5zM412 630q-168 -26 -226 -80 q-30 -28 -31 -62q0 -31 26 -67q17 -25 41 -40t66 -29l4 -15q-104 9 -168 96q-27 38 -27 70q0 115 347 157q20 20 36 28t40 8q12 0 18 -2t11 -9q3 -5 3 -9q0 -10 -14 -18q-20 -12 -67 -22l-17 -3q-6 -7 -8 -11t-8 -14q-5 -8 -8 -20l-6 -24q-3 -13 -5 -24t-4 -25 q-3 -31 -5 -53t-1 -50l-2 -86q-3 -83 -11 -144t-25 -95q-25 -47 -63 -68t-94 -21q-31 0 -61 8t-57 21q-26 13 -48 33t-36 43q-15 24 -15 43q-1 6 1 12q6 23 37 23q23 1 49 -17t40 -42q9 -15 9 -28q-1 -4 -1 -7q-4 -15 -20 -17h-8q-13 0 -5 -13q5 -7 15 -13t24 -12t30 -9 t31 -3q25 0 43 7t31 25q9 12 16 26t13 35t11 49t10 67q0 40 5 88q4 48 12 94t18 85t17 62q2 5 6 13q5 8 9 17t8 17t8 14zM553 20l35 5q20 4 32 12q12 7 20 17q6 10 8 20q1 7 1 13v6q-3 0 -9 -1t-10 -2q-17 -4 -37 -6t-38 -5q-13 -1 -27 -5t-24 -9t-16 -11q-3 -4 -3 -8 q0 -3 2 -5q13 -21 66 -21z"/>
<glyph glyph-name="afii10046" horiz-adv-x="829" unicode="" d="M412 630q-168 -26 -226 -80q-30 -28 -31 -62q0 -31 26 -67q17 -25 41 -40t66 -29l4 -15q-104 9 -168 96q-27 38 -27 70q0 115 347 157q20 20 36 28t40 8q12 0 18 -2t11 -9q3 -5 3 -9q0 -10 -14 -18q-20 -12 -67 -22l-17 -3q-6 -7 -8 -11t-8 -14q-5 -8 -8 -20l-6 -24 q-3 -13 -5 -24t-4 -25q-3 -31 -5 -53t-1 -50l-2 -86q-3 -83 -11 -144t-25 -95q-25 -47 -63 -68t-94 -21q-31 0 -61 8t-57 21q-26 13 -48 33t-36 43q-15 24 -15 43q-1 6 1 12q6 23 37 23q23 1 49 -17t40 -42q9 -15 9 -28q-1 -4 -1 -7q-4 -15 -20 -17h-8q-13 0 -5 -13 q5 -7 15 -13t24 -12t30 -9t31 -3q25 0 43 7t31 25q9 12 16 26t13 35t11 49t10 67q0 40 5 88q4 48 12 94t18 85t17 62q2 5 6 13q5 8 9 17t8 17t8 14zM483 307l32 -2q61 -4 107 -35t72 -73q16 -26 22 -50q4 -18 4 -33q0 -6 -1 -11q15 -3 23 -3h13q29 0 45 4t26 13q6 3 10 11 l8 16q3 8 4 12l1 6l26 -16q-9 -21 -17 -34q-8 -12 -20 -20t-31 -10q-18 -2 -45 -3q-10 1 -22 1t-33 2q-14 -31 -38 -49t-63 -26q-22 -7 -41 -8t-39 -1q-38 0 -59 8t-32 27q-5 8 -5 15q0 16 20 26q30 16 93 26q19 2 40 4t45 2h16v8q0 20 -8 42q-10 26 -26 55q-21 35 -42 53 t-48 21h-10q-16 -5 -26 -7t-22 -3q-10 0 -16 3t-9 7q-3 5 -3 8q0 7 9 11q10 4 27 4q6 0 13 -1zM588 25q26 7 36 21t20 38h-11q-23 0 -41 -2t-37 -3q-13 -1 -27 -5t-24 -9t-16 -11q-3 -4 -3 -8q0 -3 2 -5q13 -21 66 -21q9 0 15 2t20 3z"/>
<glyph glyph-name="afii10047" horiz-adv-x="619" unicode="" d="M234 299h253q2 18 2 36q0 55 -19 117t-64 125q-41 54 -91 83t-109 29q-58 0 -103.5 -28t-68.5 -76q-11 -23 -12.5 -39t-1.5 -24q0 -17 4.5 -36t17 -39t32.5 -35q14 -10 31 -14t33 -4q35 0 64.5 17.5t43.5 46.5q12 25 12 47q0 12 -7 34.5t-45 39.5l10 16 q54 -25 66.5 -49.5t12.5 -42.5q0 -21 -11 -45q-19 -40 -59 -63t-91 -23q-41 0 -79.5 17t-61.5 45q-22 30 -24 52t-2 28q0 31 15 63q13 28 36.5 52t54 41.5t66 27.5t71.5 10q50 0 99 -15.5t92.5 -44.5t79.5 -70t60 -92q42 -86 42 -165q0 -67 -30 -131q-43 -94 -126 -142.5 t-196 -48.5q-48 0 -94 12t-85 31.5t-69 43t-45 46.5q6 4 11.5 7.5t11.5 7.5q1 0 19 -18t51 -39.5t80.5 -40t107.5 -18.5q81 0 145 39.5t96 108.5q11 23 17.5 43.5t8.5 48.5h-252v28z"/>
<glyph glyph-name="afii10048" horiz-adv-x="943" unicode="" d="M506 366q28 8 41.5 26t20 40.5t10 46t11.5 42.5q18 42 52 69t74 27q39 0 68 -15t58 -48q9 8 7 23t-13 31q-20 32 -55 50.5t-74 18.5q-45 0 -84 -27.5t-68 -74.5q-24 -54 -36 -103t-12 -106zM506 329q0 -80 18.5 -138.5t41.5 -94.5q41 -66 111 -66q25 0 48 11.5t41.5 28.5 t32.5 37t21 37t12 37t7 37q7 35 7 75q0 3 -0.5 26.5t-8 66t-21 81t-30.5 65.5q-17 25 -34.5 37t-40.5 12q-15 0 -31 -6.5t-29.5 -19t-23 -30.5t-12.5 -41q-1 -21 -8 -46t-20 -47.5t-33 -39t-48 -22.5zM417 315q-14 -2 -21.5 -3.5t-15.5 -2t-19 -1.5t-30 -1q1 -25 1 -49 q0 -31 -3 -69.5t-18 -75.5q-6 -20 -16 -37.5t-26 -31.5q-22 -23 -53.5 -33.5t-68.5 -10.5q-83 0 -131 69q-19 27 -20 43.5t-1 20.5q0 25 9 51t26 50.5t35 41.5t42 27.5t48.5 17t47.5 9.5t39 6q3 0 4.5 9t2 19.5t0 20t-0.5 10.5l1.5 34.5t2.5 16.5q2 13 6 29t9 34 q6 20 11 30.5t13 25.5q-80 -17 -147 -17q-17 0 -32.5 1t-33.5 3.5t-40.5 5.5l-52.5 7l-14 25q28 -6 50 -9.5t40.5 -5.5t35.5 -2.5t37 -0.5q36 0 63 2t48 5.5t37.5 10t31.5 15.5q20 42 44 67t44 25q7 0 13.5 -3.5t9.5 -7.5q7 -10 7 -21q0 -15 -17 -38t-68 -43q-2 0 -4 -2 t-7 -4q-5 -18 -8 -29.5t-5 -33.5q-1 -15 -2.5 -37t-1.5 -45.5t1.5 -47t6.5 -41.5l92 8q3 0 7 23t11 55t17.5 67t26.5 61q20 33 50 60t63.5 46t67 29t60.5 10q45 0 80.5 -17t57.5 -52q18 -28 18 -52q0 -28 -23 -46q36 -59 45 -108.5t9 -84.5q0 -41 -8 -86q-4 -20 -7 -36 t-7 -30t-9.5 -28t-13.5 -30q-39 -69 -86 -100t-101 -33q-62 0 -114 31.5t-90 91.5q-25 38 -40.5 85t-15.5 107zM91 245q-17 -15 -29 -35.5t-15.5 -37t-3.5 -27.5q0 -13 4.5 -32t21.5 -44q14 -21 34 -33t43 -12q17 0 32.5 12t27 26.5t18 26.5t5.5 13q7 24 7.5 59.5t2.5 80.5 l3 56l-26 -2q-11 -2 -26.5 -5t-32.5 -9t-34 -15t-32 -22z"/>
<glyph glyph-name="afii10049" horiz-adv-x="977" unicode="" d="M836 0h-7q-83 0 -140.5 24t-84.5 63q-28 40 -32.5 76.5t-4.5 68.5q0 27 2 58q3 42 5.5 76t3.5 69q1 47 4.5 80.5t6.5 60.5q1 11 7.5 22.5t16.5 18t22 4t24 -19.5q4 -6 6.5 -21t4 -32t1.5 -32.5v-23.5q-1 -14 0 -29t1 -39t-1 -61.5t-5 -96.5q-4 -42 -4.5 -61t-0.5 -27 q0 -19 2 -37t7.5 -33t14.5 -28q17 -27 49.5 -39.5t70.5 -12.5q11 0 23 1q57 4 102 45.5t71 101.5l28 -22q-12 -23 -29.5 -49.5t-41.5 -50t-54.5 -39t-67.5 -15.5zM489 620q-28 -18 -51.5 -41.5t-39.5 -61.5q-13 -32 -13 -58q0 -9 4 -30t42 -53h6q76 0 76 -19q0 -3 -2 -6 q-6 -16 -29 -16q-2 0 -3.5 1.5t-3.5 1.5l-33 10h-19q-37 0 -54 -35q-3 -7 -4.5 -21t0.5 -28q4 -39 5 -58.5t1 -30.5q0 -14 -1.5 -29.5t-6.5 -30.5t-12 -30q-8 -16 -26.5 -31.5t-44 -27.5t-54.5 -19t-57 -7h-7q-35 0 -68.5 8t-62.5 23t-52.5 36.5t-39.5 47.5q-14 24 -14 44 q0 8 5 23.5t40 15.5q13 0 28 -5.5t29.5 -14.5t27 -21t20.5 -26q10 -18 10 -33q0 -6 -3.5 -17.5t-25.5 -11.5h-8q-15 0 -9 -8q4 -7 15 -13.5t26 -11t33.5 -7.5t37.5 -3h11q19 0 36.5 6t31.5 17t22.5 23.5t13.5 21.5q8 17 10 32.5t2 25.5q0 17 -3 38q-2 22 -2 38 q0 11 1.5 25.5t12.5 35.5q32 66 102 77q-55 35 -65 62.5t-10 44.5q0 29 16 64q18 37 49 69t74 55q35 20 84.5 29t93.5 9q88 0 157.5 -27.5t112 -72t50.5 -80.5t8 -54q0 -38 -18 -75q-20 -42 -56.5 -65t-78.5 -23q-33 0 -58 13t-40.5 34.5t-18.5 41t-3 29.5q0 20 6 41h15 q-2 -11 -2 -23q0 -13 4.5 -31.5t17.5 -37.5t32.5 -30.5t42.5 -11.5q55 0 86 60q15 32 15 64q0 20 -11 56.5t-63 78.5q-34 29 -86.5 46.5t-106.5 17.5q-47 0 -80.5 -6.5t-66.5 -23.5z"/>
<glyph glyph-name="afii10065" horiz-adv-x="335" unicode="" d="M169 48q-14 -29 -34.5 -38.5t-41.5 -9.5q-19 0 -38.5 12.5t-33.5 32.5q-16 23 -18.5 42t-2.5 28q0 19 6 36q7 17 19 32t26 25q12 10 26 14.5t27 4.5q18 0 30.5 -7t21.5 -20q2 -4 5 -8t6 -10l16 39h45l-6 -147q-1 -9 -1 -16q0 -11 3 -15q7 -10 22 -10q12 0 26.5 8.5 t28.5 23t26.5 34t20.5 41.5l25 -17l-4 -4q-28 -60 -61 -89.5t-77 -29.5q-17 0 -32 7t-23 18q-4 6 -4.5 10t-2.5 13zM147 60q2 8 3 19t3 19q3 19 3 35q0 8 -1.5 23t-11.5 30q-11 17 -29 17h-3q-11 -2 -19 -11t-15 -21q-9 -14 -11 -29t-2 -27q0 -5 0.5 -16t5 -26t10.5 -24 q11 -14 27 -14q11 0 22.5 4.5t17.5 20.5z"/>
<glyph glyph-name="afii10066" horiz-adv-x="301" unicode="" d="M163 58q9 15 9 33l-1 50q-6 8 -11.5 13.5t-8.5 10.5q-5 9 -6 15t-1 14q-7 7 -12 8.5t-13 1.5t-15.5 -3t-12.5 -9q-4 -5 -7 -8.5t-6 -9.5q-11 -19 -14 -45q-1 -11 -1 -20q0 -35 14 -58q14 -22 36 -22q11 0 26.5 8t23.5 21zM200 192q11 -17 15.5 -30.5t8.5 -33.5 q2 -6 4.5 -9.5t4.5 -7.5q5 -8 16 -14.5t19 -6.5q16 0 25.5 11t21.5 40l24 -18q-14 -34 -26.5 -44.5t-32.5 -10.5q-28 0 -62 24l-2 -9l-9 -20q-6 -11 -14.5 -24t-23.5 -22q-14 -10 -29.5 -13.5t-35.5 -3.5q-59 0 -90 51q-17 26 -17 57q0 3 1 22.5t23 46.5q7 11 16.5 18 t17.5 15q28 21 58 21q27 0 42 -12q-16 23 -34.5 55t-36 66t-33.5 67t-27 58q-8 18 -14.5 38.5t-8 34.5t-1.5 22q0 10 2 23t11 23q9 8 23 15t34 11q17 4 40.5 6t48.5 2t49.5 -1t43.5 -3v-27q-5 1 -16 2t-23.5 1t-25 -1t-21.5 -2q-84 -11 -98 -34t-14 -42q0 -28 17 -70z"/>
<glyph glyph-name="afii10067" horiz-adv-x="330" unicode="" d="M190 163q-24 36 -24 53q0 15 19 15q14 0 27 -9.5t23 -23.5q9 -13 12.5 -22t5.5 -32q-1 -11 2 -18.5t8 -14.5q6 -9 17.5 -16t22.5 -7q14 0 23.5 11t17.5 42l26 -18q-12 -34 -24.5 -45t-34.5 -11q-28 0 -62 27q-8 -20 -20.5 -37t-28.5 -29.5t-34 -20t-37 -7.5q-23 0 -43 11 t-34 31q-10 14 -12 26.5t-2 26.5q0 11 1 25l-20 -21l-16 10q8 17 16 36.5t10 35.5q6 12 6 29q4 12 5 31t4 45q6 98 6 163v31q1 92 10 130.5t33 38.5q15 0 28 -18q11 -17 12 -40.5t1 -30.5q0 -36 -7 -83q-10 -51 -14.5 -81.5t-7.5 -35.5q-1 -15 -2 -29.5t-2 -32.5t-2 -43.5 t-2 -62.5q0 -39 0.5 -64.5t1.5 -41.5t3 -24.5t6 -13.5q7 -11 15 -15.5t16 -4.5q9 0 21.5 9t23.5 20q17 20 21 37.5t4 27.5q0 11 -3 20q-5 7 -9 11.5t-7 9.5z"/>
<glyph glyph-name="afii10068" horiz-adv-x="287" unicode="" d="M72 43q-1 5 -1 9q0 11 6 23.5t25 35.5q5 6 11.5 16t12 20.5t8 20t-0.5 15.5q-5 10 -14.5 15t-16.5 5q-17 0 -29.5 -17t-32.5 -54l-7 -13l-23 13l8 18q20 45 42.5 62t48.5 17q27 0 45.5 -6.5t29.5 -22.5q9 -13 8.5 -28t-6 -29.5t-13 -25.5t-11.5 -17q-15 -20 -17.5 -34 t1.5 -23t12.5 -13t16.5 -4q9 0 20 1.5t22 5t20.5 9t15.5 13.5q16 14 25 35t20 50l23 -16l-2 -5q-14 -33 -26.5 -55t-30.5 -38q-17 -13 -43.5 -19.5t-58.5 -6.5q-17 0 -31.5 1t-25.5 5t-19 13t-12 24z"/>
<glyph glyph-name="afii10069" horiz-adv-x="347" unicode="" d="M164 -517q2 31 2.5 49.5t0.5 28.5q0 21 -1 48l-3 104l1 116l-27 -54q-15 -26 -24 -46.5t-16 -34.5q-8 -16 -14.5 -33t-12.5 -34q-12 -35 -23 -70t-17 -64q-9 -52 -9 -96q0 -50 15 -74q8 -13 20.5 -21.5t26.5 -8.5q15 0 28.5 18t24.5 46t18.5 61.5t9.5 64.5zM76 -735 q-23 0 -44.5 14.5t-35.5 37.5q-17 29 -21 56t-4 47q0 19 2 39q7 30 14 57.5t18 59.5q6 17 17.5 41t23.5 50q17 35 35.5 70.5t34.5 61.5q14 22 22.5 37t13.5 24q3 6 6 11t5 13l2 77q-1 15 -1 29q0 7 0.5 20.5t-1.5 22.5l-1 16q-16 -26 -35.5 -37.5t-39.5 -11.5t-39.5 11.5 t-32.5 33.5q-15 25 -15 57q0 26 10 50q8 17 19.5 31.5t25.5 26.5q13 11 28.5 15.5t29.5 4.5t28.5 -8.5t22.5 -22.5l3.5 -7l5.5 -11l14 38h40l-6 -282q26 35 37 50t16 21t7 9.5t10 14.5q7 11 17 25.5t20 29.5t18 28.5t13 23.5l22 -16l-3 -6q-7 -14 -20.5 -35.5t-31 -47 t-38 -53.5t-40.5 -55l-28 -40l-1 -13l1 -130v-46q0 -73 -5.5 -144.5t-20.5 -131.5q-6 -27 -18 -55t-28.5 -50.5t-35 -36.5t-36.5 -14zM155 99q4 20 4 37q0 7 -1.5 21.5t-9.5 28.5q-9 16 -27 16h-4q-13 -1 -21.5 -9t-16.5 -19q-5 -11 -8.5 -24t-6.5 -27q-2 -13 -2 -24 q0 -10 2.5 -23.5t10.5 -26.5q10 -15 24 -15t24 10t20 24q5 6 7.5 15t4.5 16z"/>
<glyph glyph-name="afii10070" horiz-adv-x="236" unicode="" d="M122 147q17 16 20.5 25.5t-1.5 19.5t-18 10q-17 0 -30 -23q-8 -12 -13 -29t-8 -35q27 10 50 32zM174 47q21 15 40.5 36.5t36.5 55.5l20 -18l-4 -5q-21 -37 -44 -60.5t-46 -37.5q-36 -18 -75 -18q-64 0 -88 49q-12 23 -12 45t9 48q10 22 27 40t38 32q15 7 29.5 12t27.5 5 q14 0 26 -8t18 -21q4 -9 5 -17.5t-4.5 -18.5t-18 -21.5t-34.5 -26.5l-55 -37q1 -5 2.5 -9.5l3.5 -10.5q8 -16 19.5 -23t29.5 -7q29 2 49 16z"/>
<glyph glyph-name="afii10072" horiz-adv-x="511" unicode="" d="M193 115q0 -8 -3 -21t-9 -27t-15.5 -27t-21.5 -22q-25 -18 -56 -18q-14 0 -26.5 6.5t-20.5 19.5q-8 12 -8 23q0 9 9.5 21.5t48.5 28.5l42 17l13 7q0 19 -2.5 33t-10.5 27q-6 9 -15 14.5t-16 5.5q-17 0 -29.5 -17t-32.5 -54l-7 -13l-23 13l8 18q20 45 42.5 62t48.5 17 q27 0 45.5 -6.5t29.5 -22.5q7 -10 10 -28.5t1 -30.5q8 5 13 18t8 27q2 14 2 24l1 10h52l4 -95l17 6q0 13 5.5 27.5t14 27.5t20 23.5t23.5 14.5q14 5 27.5 5h30.5q16 0 30 -6t22 -17q5 -8 5 -15q0 -8 -10 -19t-58 -29q-24 -9 -36.5 -14.5t-28.5 -9.5l1 -7q1 -7 2.5 -16.5 t3.5 -19t6 -15.5q9 -14 25 -24t33 -10q17 2 37 9t33 19q16 14 25 35t20 50l23 -16l-2 -5q-14 -33 -26.5 -55t-30.5 -38q-17 -13 -39.5 -19.5t-44.5 -6.5q-17 0 -35.5 4.5t-34.5 15.5t-27.5 30t-12.5 48q-9 -16 -12.5 -33t-4.5 -31t-1 -24v-10h-56l-1 125zM147 99 q-13 -5 -25 -10.5t-21 -10.5q-8 -5 -15.5 -9.5t-12 -10.5t-4.5 -12t5 -12q4 -5 12 -6.5t13 -1.5q8 0 16 5.5t13 10.5q11 12 15 27.5t4 29.5zM387 163q23 11 31.5 17.5t8.5 12.5q0 4 -3 8q-4 5 -7 7.5t-10 2.5q-11 0 -20 -3.5t-20 -10.5q-9 -9 -16 -23t-9 -29z"/>
<glyph glyph-name="afii10073" horiz-adv-x="327" unicode="" d="M144 -517q2 31 2.5 49.5t0.5 28.5q0 21 -1 48l-3 104l1 116l-27 -54q-15 -26 -24 -46.5t-16 -34.5q-8 -16 -14.5 -33t-12.5 -34q-12 -35 -23 -70t-17 -64q-9 -52 -9 -96q0 -50 15 -74q8 -13 20.5 -21.5t26.5 -8.5q15 0 28.5 18t24.5 46t18.5 61.5t9.5 64.5zM158 30 q21 -10 31.5 -37.5t11.5 -55.5q0 -1 8 9.5t19 25.5t23 32t20 28q7 11 17 25.5t20 29.5t18 28.5t13 23.5l22 -16l-3 -6q-4 -7 -11.5 -18.5t-17 -26.5t-21 -31.5t-22.5 -32.5q-26 -38 -58 -82l-26 -40l-2 -143v-46q0 -73 -5.5 -144.5t-20.5 -131.5q-6 -27 -18 -55t-28.5 -50.5 t-35 -36.5t-36.5 -14q-23 0 -44.5 14.5t-35.5 37.5q-17 29 -21 56t-4 47q0 19 2 39q7 30 14 57.5t18 59.5q6 17 17.5 41t23.5 50q17 35 35.5 70.5t34.5 61.5q20 32 32 54.5t15 30.5q1 -1 3 6.5t4 18.5t2.5 24t-0.5 22q1 17 -5 31t-11 17q-6 -13 -17.5 -24.5t-31.5 -16.5 q-5 0 -8.5 1.5t-6.5 8.5q-5 13 4 29.5t29 29.5q13 6 22 16.5t13.5 22t6.5 23t2 18.5q1 6 1 11q0 14 -4.5 31t-12.5 30q-6 9 -15 14.5t-16 5.5q-17 0 -29.5 -17t-32.5 -54l-7 -13l-23 13l8 18q20 45 42.5 62t48.5 17q27 0 47.5 -11.5t31.5 -33.5q14 -21 14 -45q0 -27 -10 -51 q-5 -14 -13.5 -29t-20.5 -29z"/>
<glyph glyph-name="afii10074" horiz-adv-x="364" unicode="" d="M95 124v-20t0.5 -26.5t2 -24.5t4.5 -15q6 -6 12 -9t17 -3t21.5 8.5t19 23.5t13 34.5t4.5 41.5l3 87h66l-3 -147q0 -8 1 -16.5t5 -13.5q5 -7 9.5 -9.5t13.5 -2.5q11 0 24.5 9t26 24t23.5 34.5t17 40.5l26 -17l-2 -6q-24 -61 -55.5 -89t-72.5 -28t-66 33q-2 2 -3 6t-3 9 q-17 -26 -35 -37t-44 -11q-50 0 -80 39q-11 16 -13 27.5t-2 23.5q0 10 1 24l-11 -15l-17 11l2 5q2 5 5.5 12.5t7 16t5.5 15.5q8 25 8.5 35.5t2.5 26.5h66v-97z"/>
<glyph glyph-name="afii10075" horiz-adv-x="364" unicode="" d="M61 463q8 9 16 9q1 0 7 -1t14.5 -8t15.5 -16.5t10 -15.5q9 -5 23 -2.5t28.5 7.5t28 12t20.5 12l21 -17q-8 -11 -21.5 -20t-30 -16t-31.5 -9.5t-26 -2.5q-7 0 -14 1q-10 -1 -27.5 3.5t-27.5 13.5q-6 5 -9 13t-3.5 15.5t1.5 13.5t5 8zM95 124v-20t0.5 -26.5t2 -24.5 t4.5 -15q6 -6 12 -9t17 -3t21.5 8.5t19 23.5t13 34.5t4.5 41.5l3 87h66l-3 -147q0 -8 1 -16.5t5 -13.5q5 -7 9.5 -9.5t13.5 -2.5q11 0 24.5 9t26 24t23.5 34.5t17 40.5l26 -17l-2 -6q-24 -61 -55.5 -89t-72.5 -28t-66 33q-2 2 -3 6t-3 9q-17 -26 -35 -37t-44 -11 q-50 0 -80 39q-11 16 -13 27.5t-2 23.5q0 10 1 24l-11 -15l-17 11l2 5q2 5 5.5 12.5t7 16t5.5 15.5q8 25 8.5 35.5t2.5 26.5h66v-97z"/>
<glyph glyph-name="afii10076" horiz-adv-x="338" unicode="" d="M257 228q-20 -6 -32 -24.5t-20.5 -38.5t-15.5 -35.5t-16 -14.5q25 -8 41 -34l20 -29q7 -9 12 -13.5t13 -4.5q11 0 29.5 15.5t32.5 40.5l28 48l19 -15q-25 -61 -56 -92t-65 -31q-20 0 -35.5 8t-29.5 28q-5 5 -10 14.5t-10 18.5q-6 9 -9 14.5t-6 10.5l-2 3q-2 2 -5 5.5 t-5 3.5q-1 2 -11 2q-4 1 -9.5 4.5t-7.5 5.5q-7 11 12 11q3 0 5 0.5t10 -0.5q9 -1 15 8t11 22t10 27t11 24q5 7 10 12.5t19 5.5h47zM92 148q-1 -30 -1 -53q0 -11 0.5 -30.5t2.5 -36t5 -22.5t5 -6h-56l-9 123l-20 -24l-19 13l20 43q11 23 12.5 39.5t2.5 33.5h62z"/>
<glyph glyph-name="afii10077" horiz-adv-x="363" unicode="" d="M22 140q7 0 10.5 -5.5t5 -14t1 -18.5t-2.5 -17q-3 -14 -3 -23t4 -17.5t12 -13.5q10 -7 26 -4.5t28 13.5q19 16 34.5 40.5t27 51t17.5 52t6 44.5h70l-4 -154q0 -8 1 -16.5t5 -13.5q5 -7 9.5 -9.5t13.5 -2.5q11 0 24.5 9t26 24t23.5 34.5t17 40.5l26 -17l-2 -6 q-24 -61 -55.5 -87.5t-72.5 -29.5q-15 -1 -26.5 3.5t-20 13t-13.5 19t-8 20.5q-2 6 -1.5 17t1 24.5t2 28t2.5 27.5q-7 -22 -19 -45.5t-27.5 -44.5t-34 -37t-39.5 -23q-12 -4 -24 -4t-20 4q-24 12 -32.5 33.5t-9.5 33.5q0 3 -1 12t-1 16q0 5 0.5 13.5t6 18.5t17.5 10z"/>
<glyph glyph-name="afii10078" horiz-adv-x="545" unicode="" d="M258 228l-4 -154q0 -8 1 -16.5t5 -13.5q5 -7 9.5 -9.5t13.5 -2.5q9 1 19.5 12.5t21 29t20 39t17 43t11.5 40.5t4 32h66l-4 -154q0 -8 1 -16.5t5 -13.5q5 -7 9.5 -9.5t13.5 -2.5q11 0 24.5 9t26 24t23.5 34.5t17 40.5l26 -17l-2 -6q-24 -61 -55.5 -87.5t-72.5 -29.5 q-15 -1 -26.5 3.5t-20 13t-13.5 19t-8 20.5q-2 6 -1.5 17t1 24.5t2 28t2.5 27.5q-7 -22 -19.5 -49t-28.5 -50.5t-34 -38.5t-36 -15h-2q-15 -1 -26.5 3.5t-20 13t-13.5 19t-8 20.5q-2 6 -1.5 17t1 24.5t2 28t2.5 27.5q-7 -22 -19 -45.5t-27.5 -44.5t-34 -37t-39.5 -23 q-12 -4 -24 -4t-20 4q-24 12 -32.5 33.5t-9.5 33.5q0 3 -1 12t-1 16q0 5 0.5 13.5t6 18.5t17.5 10q7 0 10.5 -5.5t5 -14t1 -18.5t-2.5 -17q-3 -14 -3 -23t4 -17.5t12 -13.5q10 -7 26 -4.5t28 13.5q19 16 34.5 40.5t27 51t17.5 52t6 44.5h70z"/>
<glyph glyph-name="afii10079" horiz-adv-x="363" unicode="" d="M91 59q0 -14 -2 -31.5t-4 -27.5h-64q1 20 2 54t3 60l-11 -15l-17 11l2 5q2 5 5.5 12.5t7 16t5.5 15.5q4 12 6.5 23.5t3.5 19.5q1 10 1 19h62l1 -126q6 -6 17 -9t22 -3q23 0 40 15.5t18 35.5l3 87h66l-3 -147q0 -8 1 -16.5t5 -13.5q5 -7 9.5 -9.5t13.5 -2.5q11 0 24.5 9 t26 24t23.5 34.5t17 40.5l26 -17l-2 -6q-24 -61 -55.5 -89t-72.5 -28t-66 33q-2 2 -9.5 17t-7.5 38q-17 -17 -31 -24t-37 -9q-5 0 -13.5 1t-15.5 3z"/>
<glyph glyph-name="afii10080" horiz-adv-x="301" unicode="" d="M163 58q9 15 9 33l-1 50q-6 8 -11.5 13.5t-8.5 10.5q-5 9 -6 15t-1 14q-7 7 -12 8.5t-13 1.5t-15.5 -3t-12.5 -9q-4 -5 -7 -8.5t-6 -9.5q-11 -19 -14 -45q-1 -11 -1 -20q0 -35 14 -58q14 -22 36 -22q11 0 26.5 8t23.5 21zM169 17q-14 -10 -29.5 -13.5t-35.5 -3.5 q-59 0 -90 51q-17 26 -17 57q0 3 1 22.5t23 46.5q7 11 16.5 18t17.5 15q28 21 58 21q29 0 53.5 -15.5t41.5 -42.5q3 -5 4.5 -8.5t3 -8t3.5 -11t5 -17.5q2 -6 4.5 -9.5t4.5 -7.5q5 -8 16 -14.5t19 -6.5q16 0 25.5 11t21.5 40l24 -18q-14 -34 -26.5 -44.5t-32.5 -10.5 q-28 0 -62 24l-2 -9l-9 -20q-6 -11 -14.5 -24t-23.5 -22z"/>
<glyph glyph-name="afii10081" horiz-adv-x="364" unicode="" d="M36 123l-24 -24l-15 10l20 45q3 6 6.5 17t6.5 22t5 19l2 8h52l4 -95l6 13q42 89 93 89q39 0 61 -35q12 -17 12 -35q0 -4 -1 -7l-8 -53q-1 -12 -1 -21q0 -7 1 -15.5t6 -15.5q8 -12 20 -12t27 13.5t32 36.5q5 7 11.5 16.5t11.5 18.5q4 8 8 14l4 7l23 -16l-2 -5 q-55 -118 -128 -118q-22 0 -40.5 10.5t-30.5 28.5q-5 9 -7.5 17t-2.5 19t2.5 28t7.5 43q5 21 5.5 31t-2.5 15t-7 6t-5 1q-24 0 -52 -48q-9 -16 -16.5 -41.5t-13.5 -49.5q-5 -24 -9 -42l-4 -17l-57 -1z"/>
<glyph glyph-name="afii10082" horiz-adv-x="392" unicode="" d="M162 -432v-136.5t-1.5 -81t-5 -43.5t-11.5 -24q-7 -10 -21 -14.5t-29 -4.5t-28.5 5t-18.5 16q-14 27 -14 66l1 19q0 35 -2 83q-1 40 -2 95.5t-1 144.5v389l9 42l-22 -23l-17 10q-1 1 8 20t20 54l21 60q0 10 -0.5 16t1.5 8v9q0 15 3 29.5t6 25.5q5 11 11 14.5t14 3.5 q14 0 23 -14q8 -10 9 -20.5t1 -13.5q0 -14 -6 -27l-5 -31q-4 -22 -9 -64t-8 -120q-2 -26 -4 -68t-2 -90q0 -19 0.5 -67.5t0.5 -100v-75.5q0 -75 -1.5 -136.5t-1.5 -107.5t2 -75.5t8 -39.5q5 -8 15.5 -11t15.5 11q4 11 5.5 49t2 90t0.5 110v110l2 283q0 77 2 126t7 75 q5 31 13 48q15 36 48 36q25 0 52.5 -17.5t49.5 -48.5q13 -19 20 -38.5t10 -41.5h3q15 0 25 2t17.5 8.5t13.5 18t14 30.5l24 -15q-6 -15 -10.5 -24t-8 -14.5t-7 -8.5t-7.5 -7q-7 -7 -20 -9t-45 -2q-1 -12 -5 -23q-4 -9 -11 -18t-20 -13q-8 -5 -22.5 -6t-28.5 -1q-41 0 -59 24 q-7 10 -7 19q0 8 9.5 18.5t43.5 16.5q20 4 53 4q-4 14 -14.5 32.5t-23.5 36.5q-17 24 -29.5 34.5t-21.5 10.5q-15 0 -24 -25q-5 -14 -8 -40t-4 -59l1 -142zM271 22q11 2 16.5 11t5.5 18q0 6 -2 12h-8q-10 0 -19.5 -1t-18.5 -2q-22 -5 -26.5 -11.5t-4.5 -10.5q0 -5 4 -10 q7 -10 31 -10z"/>
<glyph glyph-name="afii10083" horiz-adv-x="247" unicode="" d="M283 123l-5 -5q-40 -63 -77.5 -90.5t-87.5 -27.5q-73 0 -100 49q-13 23 -13 47q0 26 12 52q17 35 49.5 58t65.5 23q23 0 44 -13t32 -33q6 -12 6 -22q0 -6 -3.5 -15.5t-22.5 -9.5q-15 0 -28.5 9t-19.5 20q-9 15 -2 24q5 1 2 6q-2 5 -6.5 6t-9.5 1q-10 0 -21.5 -9.5 t-19.5 -29.5q-9 -26 -9 -52q0 -29 13 -53q14 -27 50 -27q32 0 67.5 30t58.5 78z"/>
<glyph glyph-name="afii10084" horiz-adv-x="525" unicode="" d="M200 0l-1 106l1 51q2 17 -0.5 30t-11.5 12q-10 -1 -23.5 -13.5t-26.5 -35.5q-9 -16 -16.5 -41.5t-12.5 -49.5q-6 -28 -11 -59h-61l-1 121l-22 -24l-15 11q8 12 12 22.5t8 22.5q4 13 8 25t6 21l5 20h50l4 -96l7 12q22 48 45 69t49 21q32 0 49 -26q7 -11 10 -22.5t3 -29.5 q0 -10 -1 -24l6 12q23 48 46 69t49 21q17 0 34 -9t28 -26q5 -7 7.5 -13.5t3 -15.5t-1.5 -22t-6 -33q-4 -26 -4 -40t5 -23q3 -5 9.5 -8.5t12.5 -3.5q11 0 27.5 13.5t31.5 36.5q5 7 11.5 17t12 18.5t9 14.5t2.5 7l23 -17l-2 -4q-29 -59 -60.5 -89t-69.5 -30q-19 0 -37 10.5 t-30 28.5q-11 17 -12 29t-1 15q0 22 11 63q4 20 5 31t-4 19q-2 3 -4.5 4t-8.5 1q-19 0 -47 -49q-9 -15 -17 -40.5t-14 -49.5q-5 -24 -9 -42l-4 -18h-56z"/>
<glyph glyph-name="afii10085" horiz-adv-x="324" unicode="" d="M250 73v-252q1 -43 1.5 -85t0.5 -85.5t0.5 -90.5t1.5 -99q0 -32 1 -55t1.5 -38.5t2 -26t3.5 -17.5q4 -15 11.5 -24t21.5 -8q11 1 18 7t9 26q2 21 3 61t1 88t-0.5 99.5t-0.5 96.5v443l32 2l2 -478q2 -60 2 -114q0 -36 -1.5 -93.5t-6.5 -105.5q-6 -31 -17.5 -44.5 t-34.5 -15.5h-9q-22 0 -43 9t-32 38q-5 11 -8 25.5t-5 30.5t-3 31.5t-2 28.5q-2 28 -4 66.5t-3.5 89.5t-1.5 115t2 144l-2 208q-17 -29 -34 -39.5t-40 -10.5q-25 0 -43 10.5t-32 29.5q-10 13 -12.5 24t-2.5 29q-1 3 0 7t2 10l-12 -11l-17 11q2 8 6 17q2 7 5 15t5 14 q2 9 5 20t6 21t4.5 17t0.5 7h63l-4 -146q-2 -14 0.5 -21.5t7.5 -13.5q4 -5 11 -9.5t14 -4.5q8 0 16 7t17 18q6 9 11.5 20.5t10 23.5t7.5 22.5t3 17.5l6 60q2 16 13 25t29 9q14 0 22 -8q6 -7 6 -14.5t-2 -16.5t-4.5 -20t-3.5 -25z"/>
<glyph glyph-name="afii10086" horiz-adv-x="534" unicode="" d="M412 22q11 2 17.5 13t2.5 28h-8q-10 0 -19.5 -1t-18.5 -2q-22 -5 -28 -14t1 -18q7 -10 31 -10zM224 73v-413q0 -75 -1.5 -136.5t-1.5 -107.5t2 -75.5t8 -39.5q5 -8 15.5 -11t15.5 11q4 11 5.5 49t2 90t0.5 110v110l2 283q0 77 2 126t7 75q5 31 13 48q15 36 48 36 q25 0 52.5 -17.5t49.5 -48.5q13 -19 20 -38.5t10 -41.5h3q15 0 25 2t17.5 8.5t13.5 18t14 30.5l24 -15q-6 -15 -10.5 -24t-8 -14.5t-7 -8.5t-7.5 -7q-7 -7 -20 -9t-45 -2q-1 -12 -5 -23q-4 -9 -11 -18t-20 -13q-8 -5 -22.5 -6t-28.5 -1q-41 0 -59 24q-7 10 -7 19 q0 8 9.5 18.5t43.5 16.5q20 4 53 4q-4 14 -14.5 32.5t-23.5 36.5q-17 24 -29.5 34.5t-21.5 10.5q-15 0 -24 -25q-5 -14 -8 -40t-4 -59l1 -142l1 -362v-136.5t-1.5 -81t-5 -43.5t-11.5 -24q-7 -10 -21 -14.5t-29 -4.5t-28.5 5t-18.5 16q-14 27 -14 66l1 19q0 35 -2 83 q-1 40 -1 95.5t-2 144.5l-5 341q0 1 -6.5 -4.5t-16.5 -12t-22 -12t-23 -5.5q-19 0 -39.5 12.5t-34.5 32.5q-16 21 -19.5 42t-3.5 31q0 17 5 33q5 17 16 32t25 25q25 18 52 18q18 0 30.5 -6t23.5 -21q4 -5 11 -18l14 39h47v-147zM155 97q1 12 1 22q0 16 -2.5 34.5t-12.5 32.5 q-12 16 -29 16q-17 -1 -26.5 -9t-15.5 -20q-5 -11 -7 -27t-2 -36q0 -17 6.5 -33t17.5 -29q5 -6 11 -10t14 -4q6 0 13.5 4t14.5 12t12 20t5 27z"/>
<glyph glyph-name="afii10087" horiz-adv-x="386" unicode="" d="M147 99q-13 -5 -25 -10.5t-21 -10.5q-8 -5 -15.5 -9.5t-11.5 -10t-4.5 -11.5t4.5 -13q4 -5 12 -6.5t13 -1.5q8 0 16 5.5t13 10.5q11 12 15 27.5t4 29.5zM355 55q16 14 25 35t20 50l23 -16l-2 -5q-14 -33 -26.5 -55t-30.5 -38q-17 -13 -39.5 -19.5t-44.5 -6.5 q-34 0 -57 9.5t-49 33.5q-8 -6 -15 -13t-15 -12q-14 -9 -27 -13.5t-29 -4.5q-14 0 -26.5 6.5t-20.5 19.5q-8 12 -8 23q0 9 9.5 21.5t48.5 28.5l42 17l13 7q0 19 -2.5 33t-10.5 27q-6 9 -15 14.5t-16 5.5q-17 0 -29.5 -17t-32.5 -54l-7 -13l-23 13l8 18q20 45 42.5 62 t48.5 17q27 0 45.5 -6.5t29.5 -22.5l2 -5q10 8 19.5 15.5t26.5 13.5q15 3 28 4t30 1q16 0 30 -6t22 -17q5 -8 5 -15q0 -8 -10 -19t-58 -29q-24 -9 -36.5 -14.5t-28.5 -9.5l1 -7q1 -7 2.5 -16.5t3.5 -19t6 -15.5q9 -14 25 -24t33 -10q17 2 37 9t33 19zM264 163 q23 11 31.5 17.5t8.5 12.5q0 4 -3 8q-4 5 -7 7.5t-10 2.5q-11 0 -20 -3.5t-20 -10.5q-9 -9 -16 -23t-9 -29z"/>
<glyph glyph-name="afii10088" horiz-adv-x="372" unicode="" d="M296 -116q0 -15 4 -25t9 -15.5t10 -8t7 -2.5q17 -1 27 5t14.5 16.5t5.5 25t1 29.5v216h27l1 -257q0 -16 -3 -28.5t-12 -21.5t-25.5 -14t-42.5 -5q-28 0 -46 8.5t-28 25t-14 40.5t-4 54l2 77q-11 0 -17 6t-9 14.5t-4 15.5q-1 6 0 8q-17 -26 -35 -37t-44 -11q-50 0 -80 39 q-11 16 -13 27.5t-2 23.5q0 10 1 24l-11 -15l-17 11l2 5q2 5 5.5 12.5t7 16t5.5 15.5q8 25 8.5 35.5t2.5 26.5h66v-97v-20t0.5 -26.5t2 -24.5t4.5 -15q6 -6 12 -9t17 -3t21.5 8.5t19 23.5t13 34.5t4.5 41.5l3 87h66l-3 -147q0 -8 1 -16.5t5 -13.5q5 -7 14.5 -10.5t18.5 -3.5 z"/>
<glyph glyph-name="afii10089" horiz-adv-x="347" unicode="" d="M94 177q6 -10 20 -20t27 -10q12 0 22 11t21 40q1 3 1 10v5h51v-90v-24t1 -25t2.5 -21.5t3.5 -12.5q5 -7 12.5 -8t13.5 1q26 6 59 50q5 7 11.5 16.5t11.5 18t9 14.5l3 7l23 -16l-2 -5q-55 -118 -128 -118q-22 0 -39 5t-27 23q-5 9 -6.5 25t-2 28.5t-0.5 20.5t0.5 19 t1.5 17q-7 -9 -16.5 -11.5t-15.5 -2.5q-46 0 -73 41q-7 -5 -12 -7t-15 -7l-32 -66l-24 15l5 10q4 10 10.5 23.5l13 27t9.5 21.5q-1 8 -1 14q0 14 7 25t31 11q10 0 20 -4t15 -12q7 -11 2 -21t-13 -18z"/>
<glyph glyph-name="afii10090" horiz-adv-x="528" unicode="" d="M291 26q11 0 23 8.5t21.5 23.5t15 34.5t5.5 41.5l3 87h66l-3 -147q0 -8 1 -16.5t5 -13.5q5 -7 9.5 -9.5t13.5 -2.5q11 0 24.5 9t26 24t23.5 34.5t17 40.5l26 -17l-2 -6q-24 -61 -55.5 -89t-72.5 -28t-66 33q-2 2 -3 6t-3 9q-17 -26 -37.5 -37t-46.5 -11h-6q-22 0 -44 13 t-33 35q-17 -26 -35 -37t-44 -11q-50 0 -80 39q-11 16 -13 27.5t-2 23.5q0 10 1 24l-11 -15l-17 11l2 5q2 5 5.5 12.5t7 16t5.5 15.5q8 25 8.5 35.5t2.5 26.5h66v-97v-20t0.5 -26.5t2 -24.5t4.5 -15q6 -6 12 -9t17 -3t21.5 8.5t19 23.5t13 34.5t4.5 41.5l3 87h66l-3 -147 q0 -17 8.5 -32.5t25.5 -15.5h2z"/>
<glyph glyph-name="afii10091" horiz-adv-x="537" unicode="" d="M366 48q-17 -26 -37.5 -37t-46.5 -11h-6q-22 0 -44 13t-33 35q-17 -26 -35 -37t-44 -11q-50 0 -80 39q-11 16 -13 27.5t-2 23.5q0 10 1 24l-11 -15l-17 11l2 5q2 5 5.5 12.5t7 16t5.5 15.5q8 25 8.5 35.5t2.5 26.5h66v-97v-20t0.5 -26.5t2 -24.5t4.5 -15q6 -6 12 -9 t17 -3t21.5 8.5t19 23.5t13 34.5t4.5 41.5l3 87h66l-3 -147q0 -17 8.5 -32.5t25.5 -15.5h2q11 0 23 8.5t21.5 23.5t15 34.5t5.5 41.5l3 87h66l-3 -147q0 -8 1 -16.5t5 -13.5q5 -7 14.5 -10.5t18.5 -3.5l2 -146q0 -15 4 -25t9 -15.5t10 -8t7 -2.5q17 -1 27 5t14.5 16.5 t5.5 25t1 29.5v216h27l1 -257q0 -16 -3 -28.5t-12 -21.5t-25.5 -14t-42.5 -5q-28 0 -46 8.5t-28 25t-14 40.5t-4 54l2 77q-11 0 -17 6t-9 14.5t-4 15.5t0 8z"/>
<glyph glyph-name="afii10092" horiz-adv-x="355" unicode="" d="M52 154l-33 -69l-24 15l5 10q4 10 10.5 23.5l13 27t9.5 21.5q-1 8 -1 14q0 14 7 25t31 11q10 0 20 -4t15 -12q8 -14 -1.5 -26.5t-22.5 -21.5q3 -3 9 -5t14 -1q12 2 22 12t21 39h51v-90l-1 -62q0 -6 2 -9.5t6 -8.5q2 -3 9.5 -6.5t16.5 -3.5q20 0 30.5 11.5t13.5 25 t-0.5 25t-11.5 11.5q-11 1 -23.5 0t-19.5 4q-8 5 -11 9.5t4 15.5q14 8 27 8q5 0 16 -2.5t23 -12.5q12 -2 26.5 -4t27.5 -1.5t22.5 4t12.5 12.5l24 -16q-5 -12 -17 -17.5t-26.5 -7t-27.5 0t-19 4.5q5 -17 5 -32q0 -8 -3 -21.5t-15.5 -26t-29 -18t-32.5 -5.5h-5q-22 0 -41 4.5 t-29 27.5q-5 11 -6.5 28.5t-2 30.5t-0.5 21t0.5 19.5t0.5 17.5q-10 -10 -30 -10q-22 0 -34 5t-21 15z"/>
<glyph glyph-name="afii10093" horiz-adv-x="429" unicode="" d="M261 125q-8 -14 -22.5 -18.5t-27.5 -4.5q-5 0 -11 1q5 -17 5 -32q0 -8 -3 -21.5t-15.5 -26t-29 -18t-32.5 -5.5h-5q-22 0 -42.5 10.5t-34.5 28.5q-13 18 -12 46l-3 26l-9 -12l-17 10q4 11 7 19.5t9 26.5q3 10 6 22.5t5 24.5q2 10 3 18l1 8h63v-89l-1 -78q0 -6 2 -9.5 t6 -8.5q2 -3 9.5 -6.5t16.5 -3.5q20 0 30.5 11.5t13.5 25t-0.5 25t-11.5 11.5q-11 1 -23.5 0t-19.5 4q-8 5 -11 9.5t4 15.5q14 8 27 8q5 0 16 -2.5t23 -12.5q10 -2 20 -2q12 0 26.5 5t24.5 24q7 20 8.5 36.5t4.5 36.5h62l2 -167q0 -6 2 -9.5t6 -8.5q2 -3 9.5 -6.5t16.5 -3.5 q10 0 22 9t24 23.5t22 33.5t16 40l24 -16l-2 -6q-44 -117 -115 -117q-22 0 -42.5 10.5t-34.5 28.5q-4 5 -6.5 16.5t-4 24.5t-1.5 25.5v19.5z"/>
<glyph glyph-name="afii10094" horiz-adv-x="247" unicode="" d="M95 61q0 -6 2 -9.5t6 -8.5q2 -3 9.5 -6.5t16.5 -3.5q20 0 30.5 11.5t13.5 25t-0.5 25t-11.5 11.5q-11 1 -23.5 0t-19.5 4q-8 5 -11 9.5t4 15.5q14 8 27 8q5 0 16 -2.5t23 -12.5q12 -2 26.5 -4t27.5 -1.5t22.5 4t12.5 12.5l24 -16q-5 -12 -17 -17.5t-26.5 -7t-27.5 0 t-19 4.5q5 -17 5 -32q0 -8 -3 -21.5t-15.5 -26t-29 -18t-32.5 -5.5h-5q-22 0 -42.5 10.5t-34.5 28.5q-13 18 -12 46l-3 26l-9 -12l-17 10q4 11 7 19.5t9 26.5q3 10 6 22.5t5 24.5q2 10 3 18l1 8h63v-89z"/>
<glyph glyph-name="afii10095" horiz-adv-x="307" unicode="" d="M178 107q-12 3 -26 3q-8 0 -24 -2t-36 -8q-6 0 -5.5 9.5t6.5 17.5q20 5 33.5 6t18.5 1q17 0 32 -4v11q-6 8 -11.5 13.5t-8.5 10.5q-5 9 -6 15t-1 14q-7 7 -12 8.5t-13 1.5t-22 -4.5t-26 -13.5q-11 -8 -23.5 -26.5t-17.5 -39.5l-25 12q3 12 9 24t13 22.5t14.5 19 t13.5 12.5q28 21 58 21q29 0 53.5 -15.5t41.5 -42.5q3 -5 4.5 -8.5t3 -8t3.5 -11t5 -17.5q2 -6 4.5 -9.5t4.5 -7.5q5 -8 16 -14.5t19 -6.5q16 0 25.5 11t21.5 40l24 -18q-14 -34 -26.5 -44.5t-32.5 -10.5q-28 0 -62 24l-2 -9l-9 -20q-6 -11 -14.5 -24t-23.5 -22 q-14 -10 -29.5 -13.5t-35.5 -3.5q-59 0 -90 51h62q14 -22 37 -22q11 0 26.5 8t23.5 21q8 12 9 21.5t0 27.5z"/>
<glyph glyph-name="afii10096" horiz-adv-x="460" unicode="" d="M323 58q9 15 9 33l-1 50q-6 8 -11.5 13.5t-8.5 10.5q-5 9 -6 15t-1 14q-7 7 -12 8.5t-13 1.5t-15.5 -3t-12.5 -9q-4 -5 -7 -8.5t-6 -9.5q-11 -19 -14 -45q-1 -11 -1 -20q0 -35 14 -58q14 -22 36 -22q11 0 26.5 8t23.5 21zM156 87q-1 7 -1 15q0 11 2 29.5t24 45.5 q7 11 16.5 18t17.5 15q28 21 58 21q29 0 53.5 -15.5t41.5 -42.5q3 -5 4.5 -8.5t3 -8t3.5 -11t5 -17.5q2 -6 4.5 -9.5t4.5 -7.5q5 -8 16 -14.5t19 -6.5q16 0 25.5 11t21.5 40l24 -18q-14 -34 -26.5 -44.5t-32.5 -10.5q-28 0 -62 24l-2 -9l-9 -20q-6 -11 -14.5 -24t-23.5 -22 q-26 -17 -61 -17h-4q-23 1 -41 10.5t-30.5 20.5t-18.5 20l-6 9q-19 -5 -38 -5q-5 0 -18.5 1t-20.5 3q0 -14 -2 -31.5t-4 -27.5h-64q1 20 2 54t3 60l-11 -15l-17 11l2 5q2 5 5.5 12.5t7 16t5.5 15.5q4 12 6.5 23.5t3.5 19.5q1 10 1 19h62l1 -126q6 -6 18.5 -9t20.5 -3 q12 0 25 4z"/>
<glyph glyph-name="afii10097" horiz-adv-x="363" unicode="" d="M185 111q8 -1 11 0t7 5q1 13 1.5 25.5t1.5 24.5q2 17 4.5 31t3.5 24h41l-1 -147q0 -8 1 -16.5t5 -13.5q5 -7 9.5 -9.5t13.5 -2.5q11 0 24.5 9t26 24t23.5 34.5t17 40.5l26 -17l-2 -6q-24 -61 -55.5 -87.5t-72.5 -29.5h-6q-26 0 -41.5 16.5t-20.5 39.5q-1 5 -1.5 15 t1.5 27q-4 -4 -11.5 -6t-14.5 -2q-17 -35 -40.5 -57t-49.5 -30q-12 -4 -24 -4t-20 4q-24 12 -32.5 33.5t-9.5 33.5q0 3 -1 12t-1 16q0 5 0.5 13.5t6 18.5t17.5 10q7 0 10.5 -5.5t5 -14t1 -18.5t-2.5 -17q-3 -14 -3 -23t4 -17.5t12 -13.5q10 -7 26 -4.5t28 13.5 q15 14 23.5 25t19.5 30q-16 5 -29.5 13.5t-23 19.5t-14 23t-2.5 24q5 24 24.5 37.5t32.5 14.5t17 1q18 0 34 -8.5t18 -28.5q1 -7 1 -14q0 -15 -4 -29t-15 -37zM159 118q10 15 14.5 30.5t4.5 29.5q0 11 -8.5 18.5t-14.5 8t-8 0.5l-15 -7q-15 -7 -18 -24q-1 -5 -1 -10 q0 -13 9 -25.5t37 -20.5z"/>
<glyph glyph-name="afii10071" horiz-adv-x="236" unicode="" d="M70 400q-32 0 -37 25q-1 5 -1 9q0 12 9.5 22.5t28.5 10.5q14 0 23 -6.5t10 -20.5t-6 -26.5t-27 -13.5zM122 147q17 16 20.5 25.5t-1.5 19.5t-18 10q-17 0 -30 -23q-8 -12 -13 -29t-8 -35q27 10 50 32zM174 47q21 15 40.5 36.5t36.5 55.5l20 -18l-4 -5q-21 -37 -44 -60.5 t-46 -37.5q-36 -18 -75 -18q-64 0 -88 49q-12 23 -12 45t9 48q10 22 27 40t38 32q15 7 29.5 12t27.5 5q14 0 26 -8t18 -21q4 -9 5 -17.5t-4.5 -18.5t-18 -21.5t-34.5 -26.5l-55 -37q1 -5 2.5 -9.5l3.5 -10.5q8 -16 19.5 -23t29.5 -7q29 2 49 16zM180 400q-32 0 -37 25 q-1 5 -1 9q0 12 9.5 22.5t28.5 10.5q14 0 23.5 -7t9.5 -23q0 -12 -6.5 -24t-26.5 -13z"/>
<glyph glyph-name="quotedblright" horiz-adv-x="420" unicode="" d="M80 322l-7 9q53 42 50 73q-3 14 -15 24q-18 14 -19 31q-3 16 7 28q7 11 22 11q29 0 35 -42v-9q0 -31 -17 -62q-19 -36 -56 -63zM179 321l-7 9q53 42 50 73q-3 14 -15 24q-18 14 -19 31q-3 16 7 28q7 11 22 11q29 0 35 -42v-9q0 -31 -17 -62q-19 -36 -56 -63z"/>
</font>
</defs>
</svg>
